<?xml version="1.0" standalone="no"?><!DOCTYPE svg PUBLIC "-//W3C//DTD SVG 1.1//EN" "http://www.w3.org/Graphics/SVG/1.1/DTD/svg11.dtd"><svg height="1024" legacy-metrics="false" node-id="1" sillyvg="true" template-height="1024" template-width="1024" version="1.1" viewBox="0 0 1024 1024" width="1024" xmlns="http://www.w3.org/2000/svg" xmlns:xlink="http://www.w3.org/1999/xlink"><defs node-id="113"><linearGradient gradientUnits="userSpaceOnUse" id="未命名的渐变_30" node-id="5" x1="26305.36" x2="26384.72" y1="-42886.72" y2="-42888.098"><stop offset="0" stop-color="#98d6fa"></stop><stop offset="1" stop-color="#47b0f1"></stop></linearGradient><linearGradient gradientUnits="userSpaceOnUse" id="未命名的渐变_30-2" node-id="8" x1="26305.36" x2="26384.72" y1="-42886.72" y2="-42888.098"><stop offset="0" stop-color="#98d6fa"></stop><stop offset="1" stop-color="#47b0f1"></stop></linearGradient><linearGradient gradientUnits="userSpaceOnUse" id="未命名的渐变_3" node-id="9" x1="198806.11" x2="199736.11" y1="-228966.97" y2="-228966.97"><stop offset="0" stop-color="#fff5de"></stop><stop offset="1" stop-color="#fbd2ac"></stop></linearGradient><linearGradient gradientUnits="userSpaceOnUse" id="未命名的渐变_30-3" node-id="12" x1="15798.319" x2="15845.487" y1="-23888.906" y2="-23889.418"><stop offset="0" stop-color="#98d6fa"></stop><stop offset="1" stop-color="#47b0f1"></stop></linearGradient><linearGradient gradientUnits="userSpaceOnUse" id="未命名的渐变_30-4" node-id="13" x1="10883.409" x2="10916.618" y1="-16576.174" y2="-16576.527"><stop offset="0" stop-color="#98d6fa"></stop><stop offset="1" stop-color="#47b0f1"></stop></linearGradient><linearGradient gradientUnits="userSpaceOnUse" id="未命名的渐变_30-5" node-id="14" x1="10883.409" x2="10916.618" y1="-16576.174" y2="-16576.527"><stop offset="0" stop-color="#98d6fa"></stop><stop offset="1" stop-color="#47b0f1"></stop></linearGradient><linearGradient gradientUnits="userSpaceOnUse" id="未命名的渐变_30-6" node-id="15" x1="7478.883" x2="7501.544" y1="-11524.333" y2="-11524.578"><stop offset="0" stop-color="#98d6fa"></stop><stop offset="1" stop-color="#47b0f1"></stop></linearGradient><linearGradient gradientUnits="userSpaceOnUse" id="未命名的渐变_30-7" node-id="16" x1="38343.6" x2="38413.8" y1="-273877.84" y2="-274042.72"><stop offset="0" stop-color="#98d6fa"></stop><stop offset="1" stop-color="#47b0f1"></stop></linearGradient><linearGradient gradientTransform="matrix(0 248 160 0 -148632.29 -52423.42)" gradientUnits="userSpaceOnUse" id="未命名的渐变_30-8" node-id="17" x1="213.42998" x2="214.08998" y1="931.62994" y2="931.4199"><stop offset="0" stop-color="#98d6fa"></stop><stop offset="1" stop-color="#47b0f1"></stop></linearGradient><linearGradient gradientTransform="matrix(0 360 180 0 -167250.51 -76483.16)" gradientUnits="userSpaceOnUse" id="未命名的渐变_30-9" node-id="18" x1="212.82999" x2="213.86998" y1="931.4199" y2="931.56995"><stop offset="0" stop-color="#98d6fa"></stop><stop offset="1" stop-color="#47b0f1"></stop></linearGradient><linearGradient gradientTransform="matrix(0 360 180 0 -167248.18 -76491.85)" gradientUnits="userSpaceOnUse" id="未命名的渐变_30-10" node-id="19" x1="213.35999" x2="214.45999" y1="931.6599" y2="931.45996"><stop offset="0" stop-color="#98d6fa"></stop><stop offset="1" stop-color="#47b0f1"></stop></linearGradient><linearGradient gradientTransform="matrix(239.55 64.19 41.41 -154.55 -89295.59 130726.9)" gradientUnits="userSpaceOnUse" id="未命名的渐变_12" node-id="20" x1="213.3" x2="213.61" y1="931.84" y2="931.49"><stop offset="0" stop-color="#98d6fa"></stop><stop offset="1" stop-color="#47b0f1"></stop></linearGradient><linearGradient gradientTransform="matrix(9.66 2.59 17.08 -63.75 -17302.86 59292.27)" gradientUnits="userSpaceOnUse" id="未命名的渐变_30-11" node-id="23" x1="191.46" x2="191.52" y1="932.49" y2="931.54"><stop offset="0" stop-color="#98d6fa"></stop><stop offset="1" stop-color="#47b0f1"></stop></linearGradient><linearGradient gradientTransform="matrix(21.25 5.69 5.69 -21.25 -9174.32 19009.78)" gradientUnits="userSpaceOnUse" id="未命名的渐变_30-12" node-id="24" x1="202.57" x2="205.29" y1="933.34" y2="932.39"><stop offset="0" stop-color="#98d6fa"></stop><stop offset="1" stop-color="#47b0f1"></stop></linearGradient><linearGradient gradientUnits="userSpaceOnUse" id="未命名的渐变_30-13" node-id="25" x1="38343.6" x2="38412" y1="-276659.3" y2="-276828.84"><stop offset="0" stop-color="#98d6fa"></stop><stop offset="1" stop-color="#47b0f1"></stop></linearGradient><linearGradient gradientUnits="userSpaceOnUse" id="未命名的渐变_30-14" node-id="26" x1="8457.1875" x2="8441.035" y1="-33805.3" y2="-33833.215"><stop offset="0" stop-color="#98d6fa"></stop><stop offset="1" stop-color="#47b0f1"></stop></linearGradient><linearGradient gradientUnits="userSpaceOnUse" id="未命名的渐变_30-15" node-id="27" x1="8490.103" x2="8512.86" y1="-46595" y2="-46620.5"><stop offset="0" stop-color="#98d6fa"></stop><stop offset="1" stop-color="#47b0f1"></stop></linearGradient><linearGradient gradientUnits="userSpaceOnUse" id="未命名的渐变_30-16" node-id="28" x1="9834.147" x2="9874.055" y1="-34236.848" y2="-34247.86"><stop offset="0" stop-color="#98d6fa"></stop><stop offset="1" stop-color="#47b0f1"></stop></linearGradient><linearGradient gradientUnits="userSpaceOnUse" id="未命名的渐变_30-17" node-id="29" x1="12840.5" x2="12892.351" y1="-41019.44" y2="-41030.883"><stop offset="0" stop-color="#98d6fa"></stop><stop offset="1" stop-color="#47b0f1"></stop></linearGradient><linearGradient gradientUnits="userSpaceOnUse" id="未命名的渐变_30-18" node-id="30" x1="7918.4404" x2="7950.7397" y1="-25205.85" y2="-25212.6"><stop offset="0" stop-color="#98d6fa"></stop><stop offset="1" stop-color="#47b0f1"></stop></linearGradient><linearGradient gradientUnits="userSpaceOnUse" id="未命名的渐变_30-19" node-id="31" x1="5390.2993" x2="5397.6216" y1="-23923.713" y2="-23901.695"><stop offset="0" stop-color="#98d6fa"></stop><stop offset="1" stop-color="#47b0f1"></stop></linearGradient><linearGradient gradientUnits="userSpaceOnUse" id="未命名的渐变_30-20" node-id="32" x1="4695.197" x2="4696.3413" y1="-52124.133" y2="-52073.83"><stop offset="0" stop-color="#98d6fa"></stop><stop offset="1" stop-color="#47b0f1"></stop></linearGradient><linearGradient gradientUnits="userSpaceOnUse" id="未命名的渐变_30-21" node-id="33" x1="3528.9136" x2="3529.2627" y1="-56993.176" y2="-56938.168"><stop offset="0" stop-color="#98d6fa"></stop><stop offset="1" stop-color="#47b0f1"></stop></linearGradient><linearGradient gradientUnits="userSpaceOnUse" id="未命名的渐变_30-22" node-id="34" x1="5117.431" x2="5118.923" y1="-49340.363" y2="-49292.75"><stop offset="0" stop-color="#98d6fa"></stop><stop offset="1" stop-color="#47b0f1"></stop></linearGradient><linearGradient gradientUnits="userSpaceOnUse" id="未命名的渐变_30-23" node-id="35" x1="16906.4" x2="16996.8" y1="-15915.917" y2="-15915.917"><stop offset="0" stop-color="#98d6fa"></stop><stop offset="1" stop-color="#47b0f1"></stop></linearGradient><linearGradient gradientTransform="matrix(-269.22 47.47 -27.01 -153.15 83994.06 133295.27)" gradientUnits="userSpaceOnUse" id="未命名的渐变_30-24" node-id="36" x1="214.58" x2="215.22" y1="932.13" y2="932.2"><stop offset="0" stop-color="#98d6fa"></stop><stop offset="1" stop-color="#47b0f1"></stop></linearGradient><linearGradient gradientTransform="matrix(-50.26115000673979 -50.2611500067398 135.6937913096985 -135.69379130969847 -114497.85 137997.39)" gradientUnits="userSpaceOnUse" id="未命名的渐变_31" node-id="37" x1="217.29" x2="217.46" y1="931.06" y2="930.99"><stop offset="0.03" stop-color="#afdef9"></stop><stop offset="1" stop-color="#7cc9f9"></stop></linearGradient><linearGradient gradientTransform="matrix(-203.58 0.000000000000024931359537041818 -0.00000000000002655279189911291 -216.82 44752.42 202726.53)" gradientUnits="userSpaceOnUse" id="未命名的渐变_30-25" node-id="40" x1="215.14" x2="215.68" y1="931.63" y2="931.87"><stop offset="0" stop-color="#98d6fa"></stop><stop offset="1" stop-color="#47b0f1"></stop></linearGradient><linearGradient gradientTransform="matrix(-64.64 -31.53 95 -194.77 -73514.77 188972.42)" gradientUnits="userSpaceOnUse" id="未命名的渐变_31-2" node-id="41" x1="217.49" x2="217.63" y1="931.52" y2="931.46"><stop offset="0.03" stop-color="#afdef9"></stop><stop offset="1" stop-color="#7cc9f9"></stop></linearGradient><linearGradient gradientTransform="matrix(-110.66 0.000000000000013551941479364611 -0.0000000000000297515693384858 -242.94 24742.61 227069.33)" gradientUnits="userSpaceOnUse" id="未命名的渐变_30-26" node-id="42" x1="216.3" x2="216.51" y1="931.36" y2="931.93"><stop offset="0" stop-color="#98d6fa"></stop><stop offset="1" stop-color="#47b0f1"></stop></linearGradient><linearGradient gradientTransform="matrix(-71.08 0.000000000000008704789448339387 -0.00000000000002350097207563771 -191.9 16251.62 179548.1)" gradientUnits="userSpaceOnUse" id="未命名的渐变_31-3" node-id="43" x1="217.28" x2="217.45" y1="931.99" y2="931.92"><stop offset="0.03" stop-color="#afdef9"></stop><stop offset="1" stop-color="#7cc9f9"></stop></linearGradient><linearGradient gradientTransform="matrix(-249.25 35.03 -15.45 -109.92 68593.58 95797.85)" gradientUnits="userSpaceOnUse" id="未命名的渐变_32" node-id="44" x1="214.79" x2="215.79" y1="932.46" y2="932.46"><stop offset="0" stop-color="#f5dda7"></stop><stop offset="1" stop-color="#fa9a41"></stop></linearGradient><linearGradient gradientTransform="matrix(-142.38 0.000000000000017436521126260013 -0.000000000000013539695011373137 -110.56 31223.68 103857.23)" gradientUnits="userSpaceOnUse" id="未命名的渐变_34" node-id="47" x1="216.37" x2="215.5" y1="932.2" y2="932.2"><stop offset="0" stop-color="#1d181c"></stop><stop offset="0.3" stop-color="#2c2422"></stop><stop offset="0.5" stop-color="#42352c"></stop><stop offset="0.7" stop-color="#57352c"></stop><stop offset="1" stop-color="#923629"></stop></linearGradient><linearGradient gradientTransform="matrix(-187.29 0.000000000000022936409901230778 -0.000000000000009413859945045705 -76.87 40905.58 72517.44)" gradientUnits="userSpaceOnUse" id="未命名的渐变_34-2" node-id="53" x1="216.01" x2="215.14" y1="932.56" y2="932.56"><stop offset="0" stop-color="#1d181c"></stop><stop offset="0.3" stop-color="#2c2422"></stop><stop offset="0.5" stop-color="#42352c"></stop><stop offset="0.7" stop-color="#57352c"></stop><stop offset="1" stop-color="#923629"></stop></linearGradient><linearGradient gradientTransform="matrix(-120.55 0.000000000000014763117163721343 -0.000000000000016825422373485486 -137.39 26622.77 128809.09)" gradientUnits="userSpaceOnUse" id="未命名的渐变_36" node-id="54" x1="216.78" x2="215.78" y1="932.04" y2="932.04"><stop offset="0" stop-color="#ffb859"></stop><stop offset="1" stop-color="#f97b61"></stop></linearGradient><linearGradient gradientTransform="matrix(-144.73 0.00000000000001772431312405964 -0.000000000000014938241655999413 -121.98 31735.42 114466.32)" gradientUnits="userSpaceOnUse" id="未命名的渐变_36-2" node-id="57" x1="216.48" x2="215.48" y1="932.13" y2="932.13"><stop offset="0" stop-color="#ffb859"></stop><stop offset="1" stop-color="#f97b61"></stop></linearGradient></defs><g node-id="115"><g node-id="116"><path d="M 0.00 0.00 L 1024.00 0.00 L 1024.00 1024.00 L 0.00 1024.00 Z" fill="#ffffff" fill-opacity="0" fill-rule="nonzero" group-id="1,2" id="矩形" node-id="61" stroke="none" target-height="1024" target-width="1024" target-x="0" target-y="0"></path><g node-id="117"><g node-id="123"><path d="M 76.80 581.77 C 69.12 548.67 19.18 333.15 160.40 303.51 C 301.62 273.87 385.05 308.39 447.10 248.05 C 509.15 187.71 524.62 197.61 575.59 201.60 C 626.56 205.59 685.63 162.00 705.47 149.00 C 725.31 136.00 904.53 51.69 950.35 303.51 C 957.59 412.38 963.61 530.51 912.91 575.24 C 862.21 619.97 913.84 660.15 950.35 664.62 C 986.86 669.09 933.28 745.53 849.00 778.90 C 792.88 804.06 430.19 876.18 213.00 802.00 C 108.11 757.12 84.47 614.86 76.80 581.77 Z" fill="#47b0f1" fill-opacity="0.05" fill-rule="nonzero" group-id="1,2,3,9" id="路径-58" node-id="63" stroke-linecap="butt" stroke-opacity="0.05" stroke-width="1" target-height="709.50366" target-width="899.9458" target-x="62.03787" target-y="125.072845"></path></g><g node-id="124"><path d="M 158.00 329.00 L 158.00 329.15 C 161.49 329.87 164.00 332.94 164.00 336.50 L 164.00 337.50 C 164.00 341.64 160.64 345.00 156.50 345.00 L 77.50 345.00 C 73.36 345.00 70.00 341.64 70.00 337.50 L 70.00 336.50 C 70.00 332.36 73.36 329.00 77.50 329.00 L 109.00 329.00 C 112.77 329.00 115.87 326.01 116.00 322.24 L 116.00 322.00 C 116.00 318.23 113.01 315.13 109.24 315.00 L 106.00 315.00 L 106.00 314.85 C 102.51 314.14 100.00 311.06 100.00 307.50 L 100.00 306.50 C 100.00 302.36 103.36 299.00 107.50 299.00 L 186.50 299.00 C 190.64 299.00 194.00 302.36 194.00 306.50 L 194.00 307.50 C 194.00 311.64 190.64 315.00 186.50 315.00 L 155.00 315.00 C 151.23 315.00 148.13 317.99 148.00 321.76 L 148.00 322.00 C 148.00 325.77 150.99 328.87 154.76 329.00 L 158.00 329.00 Z" fill="url(#未命名的渐变_30)" fill-opacity="0.1" fill-rule="nonzero" group-id="1,2,3,10" id="形状结合" node-id="64" stroke-linecap="butt" stroke-opacity="0.1" stroke-width="1" target-height="46" target-width="124" target-x="70" target-y="299"></path></g><g node-id="125"><path d="M 858.00 159.00 L 858.00 159.15 C 861.49 159.87 864.00 162.94 864.00 166.50 L 864.00 167.50 C 864.00 171.64 860.64 175.00 856.50 175.00 L 777.50 175.00 C 773.36 175.00 770.00 171.64 770.00 167.50 L 770.00 166.50 C 770.00 162.36 773.36 159.00 777.50 159.00 L 809.00 159.00 C 812.77 159.00 815.87 156.01 816.00 152.24 L 816.00 152.00 C 816.00 148.23 813.01 145.13 809.24 145.00 L 806.00 145.00 L 806.00 144.85 C 802.51 144.14 800.00 141.06 800.00 137.50 L 800.00 136.50 C 800.00 132.36 803.36 129.00 807.50 129.00 L 886.50 129.00 C 890.64 129.00 894.00 132.36 894.00 136.50 L 894.00 137.50 C 894.00 141.64 890.64 145.00 886.50 145.00 L 855.00 145.00 C 851.23 145.00 848.13 147.99 848.00 151.76 L 848.00 152.00 C 848.00 155.77 850.99 158.87 854.76 159.00 L 858.00 159.00 Z" fill="url(#未命名的渐变_30-2)" fill-opacity="0.1" fill-rule="nonzero" group-id="1,2,3,11" id="形状结合-2" node-id="65" stroke-linecap="butt" stroke-opacity="0.1" stroke-width="1" target-height="46" target-width="124" target-x="770" target-y="129"></path></g><path d="M 514.52 712.00 C 645.62 712.00 763.78 722.79 846.30 740.00 C 927.06 740.65 992.00 765.00 992.00 795.00 C 992.00 819.23 949.55 839.80 890.61 847.13 C 877.61 850.88 863.20 854.43 847.45 857.75 C 847.82 859.81 848.00 861.90 848.00 864.00 C 848.00 915.91 735.18 958.00 596.00 958.00 C 471.35 958.00 367.83 924.24 347.59 879.89 C 180.20 867.13 62.00 835.72 62.00 799.00 C 62.00 751.00 264.37 712.00 514.52 712.00 Z" fill="url(#未命名的渐变_3)" fill-rule="nonzero" group-id="1,2,3" id="形状结合-3" node-id="66" stroke="none" target-height="246" target-width="930" target-x="62" target-y="712"></path><path d="M 686.61 226.65 L 686.61 226.55 C 681.28 211.55 663.91 204.44 649.17 206.62 C 660.10 199.83 678.17 198.02 686.61 208.44 L 686.61 208.53 C 695.07 198.20 713.20 199.92 724.04 206.71 C 709.32 204.63 691.95 211.71 686.61 226.64 Z" fill="url(#未命名的渐变_30-3)" fill-rule="nonzero" group-id="1,2,3,12" id="路径" node-id="68" stroke="none" target-height="25.573761" target-width="74.869995" target-x="649.17" target-y="201.07623"></path><path d="M 770.00 214.11 L 770.00 214.00 C 766.30 203.58 754.27 198.69 744.06 200.19 C 751.63 195.48 764.13 194.19 770.00 201.45 L 770.00 201.51 C 775.87 194.35 788.44 195.51 796.00 200.25 C 785.79 198.81 773.76 203.71 770.00 214.07 Z" fill="url(#未命名的渐变_30-4)" fill-rule="nonzero" group-id="1,2,3,12" id="路径-2" node-id="69" stroke="none" target-height="17.778763" target-width="51.940002" target-x="744.06" target-y="196.33124"></path><path d="M 735.24 179.63 L 735.24 179.57 C 731.54 169.14 719.51 164.25 709.24 165.75 C 716.82 161.04 729.32 159.75 735.24 167.01 L 735.24 167.07 C 741.11 159.92 753.67 161.07 761.24 165.82 C 751.02 164.37 739.00 169.27 735.24 179.63 Z" fill="url(#未命名的渐变_30-5)" fill-rule="nonzero" group-id="1,2,3,12" id="路径-3" node-id="70" stroke="none" target-height="17.738754" target-width="52" target-x="709.24" target-y="161.89125"></path><path d="M 840.72 220.07 L 840.72 220.07 C 838.16 212.84 829.82 209.44 822.72 210.49 C 827.97 207.23 836.63 206.35 840.72 211.36 L 840.72 211.36 C 844.80 206.36 853.50 207.23 858.72 210.49 C 851.63 209.49 843.29 212.89 840.72 220.07 Z" fill="url(#未命名的渐变_30-6)" fill-rule="nonzero" group-id="1,2,3,12" id="路径-4" node-id="71" stroke="none" target-height="12.214462" target-width="36" target-x="822.72" target-y="207.85555"></path></g><g node-id="118"><path d="M 237.36 747.09 L 237.36 673.39 L 261.86 673.39 L 261.86 635.39 L 237.36 635.39 L 237.36 452.68 L 197.00 452.68 L 197.00 635.38 L 140.71 635.38 C 136.21 635.38 132.54 634.29 129.71 632.11 C 125.98 629.02 124.12 625.41 124.12 621.30 C 124.29 618.26 124.63 615.23 125.12 612.23 L 125.12 612.23 L 149.43 452.68 L 109.45 452.68 L 82.45 625.93 C 82.07 628.49 81.87 631.07 81.87 633.65 C 81.87 642.14 83.54 649.02 86.87 654.29 C 94.97 667.02 105.84 673.39 119.48 673.39 L 197.00 673.39 L 197.00 747.09 Z" fill="url(#未命名的渐变_30-7)" fill-rule="nonzero" group-id="1,2,4" id="_4" node-id="73" stroke="none" target-height="294.41003" target-width="179.98999" target-x="81.87" target-y="452.68"></path><g node-id="127"><path d="M 442.33 465.31 L 452.25 468.26 L 461.68 471.60 L 470.63 475.31 L 479.13 479.40 L 487.50 483.99 L 495.26 488.81 L 502.44 493.88 L 509.07 499.18 L 515.45 504.95 L 521.13 510.82 L 526.14 516.79 L 530.52 522.85 L 533.73 528.04 L 536.45 533.20 L 538.69 538.34 L 540.48 543.47 L 541.84 548.62 L 542.76 553.92 L 543.17 559.15 L 543.08 564.34 L 542.50 569.51 L 541.40 574.68 L 539.76 579.71 L 537.69 584.48 L 535.17 589.02 L 532.20 593.34 L 528.75 597.47 L 525.00 601.25 L 520.88 604.80 L 516.37 608.13 L 511.44 611.24 L 506.06 614.12 L 499.23 617.19 L 491.91 619.84 L 484.07 622.09 L 475.65 623.90 L 467.26 625.17 L 458.51 625.97 L 449.37 626.27 L 439.83 626.07 L 430.43 625.35 L 420.82 624.09 L 410.99 622.26 L 400.92 619.86 L 391.00 616.91 L 381.57 613.57 L 372.62 609.86 L 364.12 605.78 L 355.75 601.19 L 347.99 596.36 L 340.81 591.29 L 334.18 586.00 L 327.80 580.22 L 322.12 574.35 L 317.11 568.39 L 312.73 562.32 L 309.52 557.13 L 306.80 551.98 L 304.56 546.84 L 302.77 541.70 L 301.41 536.55 L 300.49 531.25 L 300.08 526.02 L 300.17 520.83 L 300.76 515.66 L 301.85 510.49 L 303.49 505.47 L 305.56 500.70 L 308.08 496.16 L 311.05 491.83 L 314.50 487.70 L 318.25 483.93 L 322.37 480.37 L 326.88 477.04 L 331.81 473.93 L 337.19 471.05 L 344.02 467.99 L 351.34 465.33 L 359.18 463.08 L 367.60 461.27 L 375.99 460.00 L 384.74 459.20 L 393.88 458.90 L 403.42 459.11 L 412.82 459.83 L 422.43 461.09 L 432.26 462.91 L 442.33 465.31 Z" fill="url(#未命名的渐变_30-8)" fill-rule="nonzero" group-id="1,2,4,13" id="椭圆形" node-id="75" stroke-linecap="butt" stroke-width="0.99999994" target-height="167.37402" target-width="243.09537" target-x="300.0776" target-y="458.89935"></path><path d="M 454.50 419.91 L 466.52 423.36 L 478.09 427.10 L 489.20 431.11 L 499.88 435.40 L 510.53 440.11 L 520.60 445.00 L 530.10 450.07 L 539.07 455.29 L 547.96 460.96 L 556.16 466.69 L 563.70 472.48 L 570.62 478.31 L 577.36 484.62 L 583.32 490.87 L 588.54 497.05 L 593.09 503.19 L 596.49 508.47 L 599.36 513.65 L 601.72 518.73 L 603.61 523.72 L 605.05 528.66 L 606.08 533.79 L 606.58 538.81 L 606.58 543.74 L 606.07 548.61 L 605.07 553.43 L 603.53 558.11 L 601.53 562.58 L 599.07 566.85 L 596.12 570.94 L 592.67 574.88 L 588.95 578.43 L 584.82 581.81 L 580.23 585.03 L 575.16 588.07 L 569.57 590.95 L 562.57 593.99 L 554.95 596.73 L 546.67 599.16 L 537.67 601.26 L 528.77 602.85 L 519.34 604.09 L 509.38 604.96 L 498.84 605.42 L 488.46 605.46 L 477.70 605.09 L 466.54 604.30 L 454.96 603.06 L 443.57 601.43 L 431.93 599.35 L 420.05 596.80 L 407.91 593.78 L 395.88 590.32 L 384.32 586.59 L 373.20 582.57 L 362.52 578.29 L 351.87 573.57 L 341.81 568.68 L 332.30 563.62 L 323.34 558.39 L 314.44 552.72 L 306.24 546.99 L 298.70 541.21 L 291.79 535.37 L 285.05 529.06 L 279.09 522.82 L 273.86 516.63 L 269.32 510.49 L 265.92 505.21 L 263.05 500.04 L 260.69 494.96 L 258.80 489.96 L 257.35 485.03 L 256.33 479.89 L 255.82 474.87 L 255.83 469.94 L 256.33 465.08 L 257.34 460.26 L 258.88 455.57 L 260.87 451.11 L 263.33 446.84 L 266.28 442.74 L 269.74 438.81 L 273.45 435.26 L 277.59 431.88 L 282.18 428.66 L 287.24 425.61 L 292.83 422.74 L 299.84 419.70 L 307.46 416.95 L 315.74 414.52 L 324.73 412.43 L 333.64 410.83 L 343.06 409.59 L 353.03 408.73 L 363.56 408.26 L 373.94 408.22 L 384.70 408.59 L 395.87 409.39 L 407.44 410.63 L 418.84 412.26 L 430.47 414.34 L 442.35 416.88 L 454.50 419.91 Z" fill="url(#未命名的渐变_30-9)" fill-rule="nonzero" group-id="1,2,4,13" id="椭圆形备份-7" node-id="76" stroke-linecap="butt" stroke-width="0.99999994" target-height="197.24008" target-width="350.75912" target-x="255.82303" target-y="408.2225"></path><path d="M 456.83 411.22 L 468.85 414.67 L 480.42 418.41 L 491.53 422.42 L 502.21 426.71 L 512.86 431.42 L 522.93 436.31 L 532.43 441.38 L 541.40 446.60 L 550.29 452.27 L 558.49 458.00 L 566.03 463.79 L 572.95 469.62 L 579.69 475.93 L 585.65 482.18 L 590.87 488.36 L 595.42 494.50 L 598.82 499.78 L 601.68 504.96 L 604.05 510.04 L 605.94 515.03 L 607.38 519.97 L 608.41 525.10 L 608.91 530.12 L 608.91 535.05 L 608.40 539.92 L 607.40 544.74 L 605.86 549.42 L 603.86 553.89 L 601.40 558.16 L 598.45 562.25 L 595.00 566.19 L 591.28 569.74 L 587.15 573.12 L 582.56 576.34 L 577.49 579.38 L 571.90 582.26 L 564.90 585.30 L 557.28 588.04 L 549.00 590.47 L 540.00 592.57 L 531.09 594.16 L 521.67 595.40 L 511.71 596.27 L 501.17 596.73 L 490.79 596.77 L 480.03 596.40 L 468.87 595.61 L 457.29 594.37 L 445.90 592.74 L 434.26 590.66 L 422.38 588.11 L 410.24 585.09 L 398.21 581.64 L 386.65 577.90 L 375.53 573.88 L 364.85 569.60 L 354.20 564.88 L 344.14 559.99 L 334.63 554.93 L 325.66 549.70 L 316.77 544.03 L 308.57 538.30 L 301.03 532.52 L 294.12 526.68 L 287.38 520.37 L 281.42 514.13 L 276.19 507.94 L 271.65 501.80 L 268.24 496.52 L 265.38 491.35 L 263.02 486.27 L 261.12 481.27 L 259.68 476.34 L 258.66 471.20 L 258.15 466.18 L 258.16 461.25 L 258.66 456.39 L 259.67 451.57 L 261.21 446.88 L 263.20 442.42 L 265.66 438.15 L 268.61 434.05 L 272.07 430.12 L 275.78 426.57 L 279.92 423.19 L 284.50 419.97 L 289.57 416.92 L 295.16 414.05 L 302.16 411.01 L 309.78 408.26 L 318.07 405.83 L 327.06 403.74 L 335.97 402.14 L 345.39 400.90 L 355.35 400.04 L 365.89 399.57 L 376.27 399.53 L 387.03 399.90 L 398.19 400.70 L 409.77 401.94 L 421.17 403.57 L 432.80 405.65 L 444.68 408.19 L 456.83 411.22 Z" fill="url(#未命名的渐变_30-10)" fill-rule="nonzero" group-id="1,2,4,13" id="椭圆形备份-8" node-id="77" stroke-linecap="butt" stroke-width="0.99999994" target-height="197.24002" target-width="350.7591" target-x="258.15216" target-y="399.53287"></path><path d="M 422.92 537.75 C 489.07 555.48 546.00 557.61 559.54 507.00 C 573.08 456.39 530.48 401.00 464.33 383.23 C 398.18 365.46 333.56 392.23 319.99 442.82 C 306.42 493.41 356.77 520.00 422.92 537.75 Z" fill="url(#未命名的渐变_12)" fill-rule="nonzero" group-id="1,2,4,13" id="椭圆形-2" node-id="78" stroke="none" target-height="171.4209" target-width="244.27527" target-x="317.7813" target-y="377.74017"></path><path d="M 473.65 348.43 L 473.65 348.43 C 476.31 349.15 477.89 351.89 477.18 354.55 L 462.69 408.65 C 462.35 409.93 461.51 411.02 460.36 411.69 C 459.21 412.35 457.84 412.53 456.56 412.18 L 456.56 412.18 C 453.90 411.46 452.32 408.72 453.03 406.06 L 467.52 352.00 C 467.86 350.71 468.69 349.61 469.84 348.94 C 470.99 348.27 472.36 348.09 473.65 348.43 Z" fill="url(#未命名的渐变_30-11)" fill-rule="nonzero" group-id="1,2,4,13" id="矩形-2" node-id="79" stroke="none" target-height="64.08905" target-width="24.48056" target-x="452.86472" target-y="348.26184"></path><path d="M 484.23 348.77 C 484.23 354.85 479.31 359.77 473.23 359.77 C 467.15 359.77 462.23 354.85 462.23 348.77 C 462.23 342.69 467.15 337.77 473.23 337.77 C 479.31 337.77 484.23 342.69 484.23 348.77 Z" fill="url(#未命名的渐变_30-12)" fill-rule="nonzero" group-id="1,2,4,13" id="椭圆形-3" node-id="80" stroke="none" target-height="22" target-width="22" target-x="462.23" target-y="337.77"></path></g><path d="M 597.86 684.28 L 636.48 684.28 C 639.34 693.38 645.25 697.93 654.22 697.93 L 717.80 697.93 C 730.67 697.93 737.11 693.12 737.11 683.50 L 737.11 618.75 C 737.11 607.31 730.93 601.59 718.58 601.59 L 636.28 601.59 L 636.28 563.17 L 716.43 563.17 C 730.09 563.17 736.92 558.30 736.91 548.55 L 736.91 496.48 C 736.91 483.74 730.54 477.37 717.80 477.37 L 655.39 477.37 C 646.16 477.37 640.31 482.70 637.84 493.37 L 598.84 493.37 C 598.58 490.38 598.45 487.78 598.45 485.57 C 598.45 472.96 603.85 461.64 614.64 451.63 C 623.74 443.18 635.70 438.96 650.52 438.96 L 723.65 438.96 C 741.07 438.96 754.53 443.51 764.02 452.61 C 773.12 461.45 777.67 473.02 777.67 487.32 L 777.67 554.00 C 777.67 562.97 774.81 572.27 769.09 581.88 C 774.94 591.88 777.86 600.59 777.86 608.02 L 777.86 688.17 C 777.86 701.82 773.44 712.94 764.60 721.52 C 754.33 731.40 743.28 736.34 731.45 736.34 L 653.25 736.34 C 630.76 736.34 614.70 728.15 605.08 711.77 C 600.92 704.88 598.51 695.71 597.86 684.28 Z" fill="url(#未命名的渐变_30-13)" fill-rule="nonzero" group-id="1,2,4" id="_3" node-id="81" stroke="none" target-height="297.38004" target-width="180" target-x="597.86" target-y="438.96"></path></g><g node-id="119"><path d="M 77.40 807.52 C 80.30 785.31 72.83 773.34 55.00 771.63 C 79.14 769.33 95.12 784.02 95.38 807.52 C 90.38 807.69 84.39 807.69 77.40 807.52 Z" fill="url(#未命名的渐变_30-14)" fill-rule="nonzero" group-id="1,2,5" id="路径-38" node-id="83" stroke="none" target-height="36.24121" target-width="40.379997" target-x="55" target-y="771.40857"></path><path d="M 89.12 807.65 C 93.83 785.22 88.04 768.67 71.73 758.00 C 92.55 764.57 107.51 774.44 112.37 807.65 C 104.63 808.12 96.86 808.12 89.12 807.65 Z" fill="url(#未命名的渐变_30-15)" fill-rule="nonzero" group-id="1,2,5" id="路径-39" node-id="84" stroke="none" target-height="49.965942" target-width="40.64" target-x="71.73" target-y="758"></path><path d="M 116.07 808.00 C 113.98 786.70 121.63 774.50 139.00 771.39 C 122.89 770.99 104.91 769.91 92.05 808.00 C 102.95 807.65 110.96 807.65 116.07 808.00 Z" fill="url(#未命名的渐变_30-16)" fill-rule="nonzero" group-id="1,2,5" id="路径-40" node-id="85" stroke="none" target-height="36.71045" target-width="46.949997" target-x="92.05" target-y="771.28955"></path><path d="M 66.41 822.00 C 83.26 822.00 96.00 822.41 96.00 806.61 C 96.00 790.81 82.34 778.00 65.50 778.00 C 48.66 778.00 35.00 790.81 35.00 806.61 C 35.00 822.41 49.57 822.00 66.41 822.00 Z" fill="url(#未命名的渐变_30-17)" fill-rule="nonzero" group-id="1,2,5" id="椭圆形-4" node-id="86" stroke="none" target-height="44" target-width="61" target-x="35" target-y="778"></path><path d="M 99.57 822.00 C 110.06 822.00 118.00 822.25 118.00 812.56 C 118.00 802.87 109.49 795.00 99.00 795.00 C 88.51 795.00 80.00 802.86 80.00 812.56 C 80.00 822.26 89.07 822.00 99.57 822.00 Z" fill="url(#未命名的渐变_30-18)" fill-rule="nonzero" group-id="1,2,5" id="椭圆形备份-6" node-id="87" stroke="none" target-height="27" target-width="38" target-x="80" target-y="795"></path></g><g node-id="120"><path d="M 212.91 777.63 C 211.23 769.99 206.33 764.66 198.20 761.63 C 188.92 758.63 183.83 755.10 189.64 752.53 C 194.54 752.14 205.00 748.32 212.91 771.14 C 213.45 773.27 213.45 775.50 212.91 777.63 Z" fill="url(#未命名的渐变_30-19)" fill-rule="nonzero" group-id="1,2,6" id="路径-43" node-id="89" stroke="none" target-height="25.567505" target-width="26.058807" target-x="187.21481" target-y="752.0625"></path><path d="M 213.32 778.84 C 208.43 760.60 202.88 747.27 196.66 738.84 C 192.10 733.11 192.42 724.90 196.66 723.04 C 201.00 722.60 209.00 721.85 215.00 753.29 C 215.39 755.45 217.51 768.11 215.00 776.29 C 214.71 777.29 214.13 778.18 213.32 778.84 Z" fill="url(#未命名的渐变_30-20)" fill-rule="nonzero" group-id="1,2,6" id="路径-44" node-id="90" stroke="none" target-height="55.90808" target-width="22.821686" target-x="193.38405" target-y="722.93195"></path><path d="M 214.45 774.72 C 216.66 766.56 216.37 755.89 213.60 742.72 C 209.36 729.98 202.13 714.31 215.32 713.95 C 220.67 714.68 227.13 720.29 224.69 748.24 C 223.20 759.52 220.61 766.24 217.90 774.67 C 216.82 775.22 215.55 775.24 214.45 774.72 Z" fill="url(#未命名的渐变_30-21)" fill-rule="nonzero" group-id="1,2,6" id="路径-45" node-id="91" stroke="none" target-height="61.110046" target-width="17.42012" target-x="207.79535" target-y="713.95"></path><path d="M 217.00 777.89 C 216.11 754.81 220.33 738.24 229.67 728.19 C 232.19 724.84 241.78 721.69 241.75 732.19 C 240.75 736.71 238.60 746.38 226.25 761.12 C 222.18 766.44 219.51 774.21 219.48 776.04 C 219.49 777.28 218.67 777.89 217.00 777.89 Z" fill="url(#未命名的渐变_30-22)" fill-rule="nonzero" group-id="1,2,6" id="路径-46" node-id="92" stroke="none" target-height="52.893738" target-width="24.84285" target-x="216.90715" target-y="724.9963"></path><path d="M 169.00 780.94 C 178.24 779.22 183.34 777.76 184.29 776.55 C 185.72 774.75 198.29 767.01 206.14 773.55 C 207.85 771.35 213.32 769.65 216.46 773.55 C 217.89 767.39 226.83 763.44 230.72 764.08 C 235.10 763.74 248.03 763.88 249.00 780.96 C 245.47 781.03 218.81 781.02 169.00 780.94 Z" fill="url(#未命名的渐变_30-23)" fill-rule="nonzero" group-id="1,2,6" id="路径-47" node-id="93" stroke="none" target-height="16.955383" target-width="80" target-x="169" target-y="764.00464"></path></g><g node-id="121"><path d="M 963.20 668.24 C 995.87 653.57 1010.53 660.79 1007.20 689.88 C 1005.31 698.91 1001.89 704.55 996.96 706.80 C 984.12 722.44 977.33 734.98 976.59 744.41 C 975.48 758.55 964.48 774.58 936.93 765.41 C 918.56 759.30 905.94 769.52 899.09 796.09 C 878.41 823.54 842.05 834.51 790.00 829.00 C 737.95 823.49 741.27 799.49 799.94 757.00 C 815.89 750.71 828.06 746.82 836.47 745.33 C 844.88 743.84 849.00 734.67 848.83 717.82 C 848.83 707.27 856.47 699.57 871.75 694.71 C 887.03 689.85 893.45 682.13 891.00 671.56 C 901.15 656.61 913.26 654.48 927.33 665.16 C 941.40 675.84 953.36 676.87 963.20 668.24 Z" fill="url(#未命名的渐变_30-24)" fill-rule="nonzero" group-id="1,2,7" id="路径-61" node-id="95" stroke="none" target-height="171.8363" target-width="254.32" target-x="753.3274" target-y="658.5422"></path><path d="M 964.74 683.35 L 916.46 715.57 C 918.92 702.66 921.86 692.19 925.28 684.17 C 930.35 672.30 914.69 703.96 914.48 716.89 L 874.24 743.75 L 874.35 743.60 C 873.24 726.31 873.68 714.24 875.69 707.39 C 873.00 710.99 870.14 736.77 871.69 745.39 L 834.69 770.10 L 835.03 769.68 C 835.03 769.68 833.13 755.41 834.81 748.21 C 833.14 750.21 832.03 765.21 832.51 771.55 L 802.00 792.00 L 805.87 795.87 L 837.41 773.54 C 845.93 778.54 857.62 779.33 863.27 778.81 C 852.83 777.85 845.20 775.45 840.38 771.61 C 839.61 772.24 838.77 772.77 837.88 773.21 L 926.70 710.32 C 926.50 710.54 926.32 710.76 926.14 711.00 C 939.30 712.86 951.11 712.07 961.58 708.62 C 960.74 706.95 946.83 713.46 928.46 709.07 Z M 923.40 760.21 C 912.86 760.51 899.14 754.42 882.23 741.94 C 881.54 742.73 880.80 743.46 880.01 744.15 C 896.00 756.77 913.13 761.74 923.40 760.21 Z" fill="url(#未命名的渐变_31)" fill-rule="nonzero" group-id="1,2,7" id="形状结合-4" node-id="96" stroke="none" target-height="114.29584" target-width="162.73999" target-x="802" target-y="681.57416"></path><path d="M 927.80 599.12 C 959.97 577.23 974.90 582.74 972.59 615.63 C 966.40 639.20 962.34 654.96 964.37 669.40 C 966.40 683.84 960.05 711.15 927.80 722.40 C 906.30 729.87 900.26 740.47 909.69 754.19 C 914.42 775.27 888.34 790.40 831.46 799.57 C 746.14 813.34 766.46 781.70 788.40 747.41 C 804.27 731.53 806.40 721.83 806.40 709.69 C 806.40 697.55 794.78 677.69 828.16 669.45 C 842.83 666.12 850.51 651.45 851.21 625.45 C 853.52 612.39 867.52 609.12 893.21 615.65 C 904.62 617.84 916.15 612.33 927.80 599.12 Z" fill="url(#未命名的渐变_30-25)" fill-rule="nonzero" group-id="1,2,7" id="路径-65" node-id="97" stroke="none" target-height="216.81354" target-width="203.54822" target-x="769.2722" target-y="586.01385"></path><path d="M 942.44 616.59 L 907.00 661.59 L 906.93 661.42 C 903.09 652.50 902.27 642.57 904.58 633.14 L 904.66 632.83 L 904.66 632.83 C 902.33 640.10 897.85 648.77 905.27 663.76 L 875.27 701.94 L 875.07 701.67 C 869.07 693.19 866.07 682.04 866.07 668.22 C 864.69 672.51 864.66 692.22 873.23 704.48 L 846.62 738.40 C 844.94 735.79 840.74 728.40 840.74 720.24 C 839.85 725.89 839.74 733.46 844.64 740.92 L 805.37 790.84 L 811.60 790.84 L 849.60 740.29 C 867.98 748.14 878.29 744.85 883.40 742.55 C 873.44 744.99 862.87 743.32 851.69 737.55 L 880.55 699.11 C 880.40 699.41 880.23 699.71 880.05 700.03 C 899.26 706.76 919.21 707.55 928.42 702.76 C 918.55 706.48 902.89 704.63 881.42 697.21 L 881.86 697.36 L 914.00 654.47 L 913.82 654.98 C 927.95 655.85 939.23 651.36 947.66 641.50 C 946.33 640.20 937.31 653.30 915.52 652.50 Z" fill="url(#未命名的渐变_31-2)" fill-rule="nonzero" group-id="1,2,7" id="形状结合-5" node-id="98" stroke="none" target-height="174.25" target-width="142.28998" target-x="805.37" target-y="616.59"></path><path d="M 818.17 600.59 C 805.75 583.33 794.63 585.08 784.82 605.85 C 780.06 623.79 787.58 635.20 763.00 643.35 C 746.62 648.79 744.14 660.17 755.56 677.50 C 760.34 688.40 756.82 695.37 744.99 698.41 C 733.16 701.45 734.58 713.52 749.25 734.63 C 754.34 746.20 754.34 753.94 749.25 757.83 C 741.63 763.67 726.97 781.18 744.99 815.22 C 763.01 849.26 805.45 822.82 811.81 806.82 C 818.17 790.82 805.45 768.77 811.81 757.82 C 818.17 746.87 855.27 743.11 845.36 710.30 C 837.11 696.88 825.63 693.00 837.16 670.14 C 848.69 647.28 851.62 656.47 837.16 633.95 C 830.85 627.49 824.52 616.37 818.17 600.59 Z" fill="url(#未命名的渐变_30-26)" fill-rule="nonzero" group-id="1,2,7" id="路径-96" node-id="99" stroke="none" target-height="242.81647" target-width="110.66162" target-x="736.3743" target-y="588.90485"></path><path d="M 801.27 630.35 L 789.92 687.26 C 782.52 676.40 777.19 666.92 773.92 658.83 C 769.11 646.83 780.43 680.31 789.42 689.60 L 780.00 737.05 L 780.00 736.86 C 766.99 725.42 758.78 716.57 755.35 710.31 C 755.99 714.76 772.19 735.01 779.44 740.01 L 770.74 783.66 L 770.69 783.12 C 770.69 783.12 759.24 774.38 755.35 768.12 C 755.60 770.73 765.35 782.07 770.22 786.25 L 763.04 822.25 L 768.51 822.25 L 775.00 784.16 C 784.59 781.69 793.39 773.96 797.00 769.59 C 788.94 776.30 781.85 780.00 775.73 780.70 C 775.63 781.68 775.41 782.65 775.09 783.59 L 793.42 676.32 C 793.42 676.61 793.47 676.91 793.51 677.20 C 804.13 669.20 811.92 660.28 816.88 650.45 C 815.11 649.87 809.88 664.30 793.79 674.18 Z M 826.39 713.92 C 819.15 721.59 805.15 726.99 784.39 730.11 C 784.46 731.16 784.46 732.20 784.39 733.25 C 804.57 730.88 820.21 722.27 826.39 713.92 Z" fill="url(#未命名的渐变_31-3)" fill-rule="nonzero" group-id="1,2,7" id="形状结合-6" node-id="100" stroke="none" target-height="191.90002" target-width="71.04004" target-x="755.35" target-y="630.35"></path></g><g node-id="122"><g node-id="128"><path d="M 419.38 841.50 C 441.72 848.50 432.82 852.68 425.38 856.79 C 411.74 864.33 417.87 870.93 424.81 877.00 C 435.08 886.00 511.74 907.63 594.81 889.22 C 672.32 872.06 660.64 841.22 640.72 827.22 C 624.72 815.98 554.72 790.48 474.78 795.99 C 426.66 799.29 406.00 807.55 401.99 813.92 C 395.42 824.47 394.51 833.71 419.38 841.50 Z" fill="url(#未命名的渐变_32)" fill-opacity="0.4" fill-rule="nonzero" group-id="1,2,8,14" id="路径-5" node-id="102" stroke-linecap="butt" stroke-opacity="0.4" stroke-width="1" target-height="101.19861" target-width="257.43634" target-x="398.03925" target-y="795.2333"></path></g><path d="M 523.00 685.94 C 516.55 682.94 510.31 676.13 509.35 671.15 C 508.39 666.17 499.84 642.41 480.02 646.92 C 460.20 651.43 456.53 673.18 469.51 687.21 C 482.49 701.24 489.78 708.95 494.34 706.78 C 498.90 704.61 504.12 709.00 507.20 711.78 C 510.28 714.56 521.76 693.26 521.76 693.26 L 525.07 689.16 Z" fill="#ebb0b0" fill-rule="nonzero" group-id="1,2,8" id="路径-6" node-id="103" stroke="none" target-height="65.64154" target-width="63.16629" target-x="461.90372" target-y="646.3729"></path><path d="M 451.00 648.24 C 436.64 660.52 448.00 672.40 456.90 676.84 C 465.80 681.28 464.43 678.74 472.58 678.59 C 472.58 678.59 472.58 676.53 480.68 685.59 L 484.06 684.64 C 485.28 684.24 482.25 682.80 482.91 680.55 C 483.57 678.30 490.63 678.28 491.60 684.01 C 492.57 689.74 491.76 688.46 491.76 688.46 C 491.76 688.46 498.68 690.39 500.49 688.09 C 502.30 685.79 514.68 676.39 512.64 671.99 C 510.60 667.59 511.72 660.18 503.88 649.92 C 496.04 639.66 477.10 637.23 468.64 639.77 C 460.18 642.31 454.59 645.18 451.00 648.24 Z" fill="#131322" fill-rule="nonzero" group-id="1,2,8" id="路径-7" node-id="104" stroke="none" target-height="50.37616" target-width="68.69299" target-x="444.15955" target-y="638.84155"></path><path d="M 415.89 827.05 C 418.82 832.05 421.45 833.78 421.33 837.16 C 421.21 840.54 415.96 846.86 411.72 847.27 C 406.36 847.79 397.04 848.10 394.42 848.27 C 391.80 848.44 373.76 848.93 370.42 844.27 C 367.08 839.61 373.79 833.37 384.93 831.12 C 396.07 828.87 412.33 826.96 412.33 826.96 Z" fill="#333333" fill-rule="nonzero" group-id="1,2,8" id="路径-8" node-id="105" stroke="none" target-height="21.406677" target-width="51.768127" target-x="369.56186" target-y="826.96"></path><path d="M 513.46 789.89 C 501.33 772.03 471.29 730.65 436.89 734.13 C 405.42 737.30 397.00 832.72 397.00 832.72 L 415.00 835.65 L 445.85 776.31 L 500.00 844.48 L 539.43 829.32 Z" fill="url(#未命名的渐变_34)" fill-rule="nonzero" group-id="1,2,8" id="Fill-1706" node-id="106" stroke="none" target-height="110.54138" target-width="142.43" target-x="397" target-y="733.9386"></path><path d="M 605.58 788.80 C 613.29 815.80 615.02 857.89 588.09 863.80 C 573.26 867.06 553.99 864.98 504.18 865.28 C 455.00 865.59 423.00 868.00 423.24 841.00 C 423.48 814.00 483.13 820.84 495.88 819.65 C 508.63 818.46 567.63 817.87 567.63 817.87 Z" fill="url(#未命名的渐变_34-2)" fill-rule="nonzero" group-id="1,2,8" id="Fill-1708" node-id="107" stroke="none" target-height="76.84296" target-width="187.29114" target-x="423.24" target-y="788.8"></path><path d="M 498.84 710.08 C 498.84 710.08 502.11 706.89 509.28 700.44 C 522.91 690.44 517.66 682.26 517.66 682.26 C 517.66 682.26 565.05 679.43 592.35 727.41 C 608.79 756.31 610.53 805.81 610.53 805.81 C 610.53 805.81 594.53 824.58 525.73 818.35 C 525.73 818.35 505.07 779.02 494.40 760.05 C 487.28 747.40 488.76 730.75 498.84 710.08 Z" fill="url(#未命名的渐变_36)" fill-rule="nonzero" group-id="1,2,8" id="Fill-1709" node-id="108" stroke="none" target-height="137.32434" target-width="120.551056" target-x="489.97897" target-y="682.26"></path><path d="M 375.82 756.52 L 408.59 768.45 L 407.40 771.73 L 374.63 759.80 L 375.82 756.52 Z" fill="#000000" fill-rule="evenodd" group-id="1,2,8" id="矩形-3" node-id="109" stroke="none" target-height="15.209961" target-width="33.95999" target-x="374.63" target-y="756.52"></path><path d="M 414.29 771.71 C 411.99 770.52 409.56 769.31 407.01 768.08 C 406.12 767.16 405.09 766.40 403.95 765.82 C 401.28 765.01 399.99 765.14 400.08 766.22 C 400.18 767.31 400.82 768.28 401.78 768.81 L 397.31 767.86 L 393.07 765.75 C 388.57 763.64 386.36 764.44 386.43 768.14 C 387.34 772.29 391.77 776.88 400.55 776.57 C 402.63 775.90 405.47 776.06 409.06 777.05 Z" fill="#efba9e" fill-rule="nonzero" group-id="1,2,8" id="路径-50备份" node-id="110" stroke="none" target-height="12.444763" target-width="27.860016" target-x="386.43" target-y="764.6052"></path><path d="M 410.27 768.73 L 484.00 796.59 L 503.54 719.31 C 509.39 705.82 519.66 700.16 534.34 702.31 C 544.77 707.09 549.56 717.04 548.76 727.83 C 547.96 738.62 532.53 783.89 516.85 804.03 C 504.98 817.69 497.85 827.15 480.73 822.78 C 471.91 819.76 446.37 807.03 404.12 784.59 Z" fill="url(#未命名的渐变_36-2)" fill-rule="nonzero" group-id="1,2,8" id="路径-3-2" node-id="111" stroke="none" target-height="121.987915" target-width="144.698" target-x="404.12" target-y="701.87494"></path></g></g></g></svg>