<?xml version="1.0" standalone="no"?><!DOCTYPE svg PUBLIC "-//W3C//DTD SVG 1.1//EN" "http://www.w3.org/Graphics/SVG/1.1/DTD/svg11.dtd"><svg height="770" legacy-metrics="false" node-id="1" sillyvg="true" template-height="770" template-width="1240" version="1.1" viewBox="0 0 1240 770" width="1240" xmlns="http://www.w3.org/2000/svg" xmlns:xlink="http://www.w3.org/1999/xlink"><defs node-id="216"></defs><g node-id="218"><g node-id="219"><g node-id="220"><g node-id="222"><path d="M 629.54 672.50 L 901.27 672.50 L 901.27 86.58 L 629.54 86.58 Z" fill="#d6eeff" fill-rule="evenodd" group-id="1,2,3,5" id="Fill-1" node-id="9" stroke-linecap="butt" stroke-width="1" target-height="585.92236" target-width="271.7279" target-x="629.54144" target-y="86.57914"></path><path d="M 661.84 672.50 L 878.02 672.50 L 878.02 112.43 L 661.84 112.43 Z" fill="#c3e4ff" fill-rule="evenodd" group-id="1,2,3,5" id="Fill-2" node-id="10" stroke-linecap="butt" stroke-width="1" target-height="560.07294" target-width="216.17639" target-x="661.8388" target-y="112.42861"></path><path d="M 690.26 222.14 L 849.59 222.14 L 849.59 140.86 L 690.26 140.86 Z" fill="#d6eeff" fill-rule="evenodd" group-id="1,2,3,5" id="Fill-3" node-id="11" stroke-linecap="butt" stroke-width="1" target-height="81.27359" target-width="159.33301" target-x="690.26013" target-y="140.86351"></path><path d="M 690.26 647.08 L 849.59 647.08 L 849.59 565.81 L 690.26 565.81 Z" fill="#d6eeff" fill-rule="evenodd" group-id="1,2,3,5" id="Fill-4" node-id="12" stroke-linecap="butt" stroke-width="1" target-height="81.27356" target-width="159.33301" target-x="690.26013" target-y="565.80975"></path><path d="M 690.26 547.02 L 755.50 547.02 L 755.50 245.57 L 690.26 245.57 Z" fill="#d6eeff" fill-rule="evenodd" group-id="1,2,3,5" id="Fill-5" node-id="13" stroke-linecap="butt" stroke-width="1" target-height="301.45227" target-width="65.24133" target-x="690.25946" target-y="245.56914"></path><path d="M 784.35 547.02 L 849.59 547.02 L 849.59 245.57 L 784.35 245.57 Z" fill="#d6eeff" fill-rule="evenodd" group-id="1,2,3,5" id="Fill-6" node-id="14" stroke-linecap="butt" stroke-width="1" target-height="301.45227" target-width="65.23993" target-x="784.3532" target-y="245.56914"></path><path d="M 677.20 369.44 L 706.41 369.44" fill="none" group-id="1,2,3,5" id="Stroke-7" node-id="15" stroke="#aad5ff" stroke-linecap="butt" stroke-width="6.3" target-height="0" target-width="29.213501" target-x="677.19525" target-y="369.44327"></path><path d="M 685.45 369.44 L 685.15 371.65 L 684.32 373.61 L 683.03 375.28 L 681.36 376.57 L 679.41 377.40 L 677.20 377.70 L 674.98 377.40 L 673.03 376.57 L 671.36 375.28 L 670.07 373.61 L 669.24 371.65 L 668.94 369.44 L 669.24 367.23 L 670.07 365.28 L 671.36 363.61 L 673.03 362.32 L 674.98 361.49 L 677.20 361.19 L 679.41 361.49 L 681.36 362.32 L 683.03 363.61 L 684.32 365.28 L 685.15 367.23 L 685.45 369.44" fill="#aad5ff" fill-rule="evenodd" group-id="1,2,3,5" id="Fill-8" node-id="16" stroke-linecap="butt" stroke-width="1" target-height="16.509552" target-width="16.501343" target-x="668.94434" target-y="361.1885"></path><path d="M 685.45 398.53 L 685.15 400.74 L 684.32 402.70 L 683.03 404.37 L 681.36 405.66 L 679.41 406.49 L 677.20 406.79 L 674.98 406.49 L 673.03 405.66 L 671.36 404.37 L 670.07 402.70 L 669.24 400.74 L 668.94 398.53 L 669.24 396.32 L 670.07 394.36 L 671.36 392.69 L 673.03 391.40 L 674.98 390.58 L 677.20 390.28 L 679.41 390.58 L 681.36 391.40 L 683.03 392.69 L 684.32 394.36 L 685.15 396.32 L 685.45 398.53" fill="#aad5ff" fill-rule="evenodd" group-id="1,2,3,5" id="Fill-10" node-id="17" stroke-linecap="butt" stroke-width="1" target-height="16.509552" target-width="16.501343" target-x="668.94434" target-y="390.27615"></path><path d="M 901.27 671.33 L 910.10 671.33 L 910.10 86.58 L 901.27 86.58 Z" fill="#aad5ff" fill-rule="evenodd" group-id="1,2,3,5" id="Fill-12" node-id="18" stroke-linecap="butt" stroke-width="1" target-height="584.749" target-width="8.827698" target-x="901.26935" target-y="86.57984"></path><path d="M 653.01 672.50 L 661.84 672.50 L 661.84 112.43 L 653.01 112.43 Z" fill="#aad5ff" fill-rule="evenodd" group-id="1,2,3,5" id="Fill-14" node-id="19" stroke-linecap="butt" stroke-width="1" target-height="560.07294" target-width="8.827637" target-x="653.01117" target-y="112.42861"></path><path d="M 976.41 675.51 L 1011.62 238.65" fill="none" group-id="1,2,3,5" id="Stroke-15" node-id="20" stroke="#c3e4ff" stroke-linecap="butt" stroke-width="12.6" target-height="436.85687" target-width="35.204224" target-x="976.4145" target-y="238.64966"></path><path d="M 1153.43 675.51 L 1118.23 238.65" fill="none" group-id="1,2,3,5" id="Stroke-16" node-id="21" stroke="#c3e4ff" stroke-linecap="butt" stroke-width="12.6" target-height="436.85687" target-width="35.204224" target-x="1118.2278" target-y="238.64966"></path><path d="M 988.60 257.19 L 1137.23 257.19" fill="none" group-id="1,2,3,5" id="Stroke-17" node-id="22" stroke="#c3e4ff" stroke-linecap="butt" stroke-width="12.6" target-height="0" target-width="148.62573" target-x="988.6045" target-y="257.1863"></path><path d="M 978.51 352.83 L 1147.32 352.83" fill="none" group-id="1,2,3,5" id="Stroke-18" node-id="23" stroke="#c3e4ff" stroke-linecap="butt" stroke-width="12.6" target-height="0" target-width="168.80652" target-x="978.5138" target-y="352.82947"></path><path d="M 970.55 467.43 L 1155.29 467.43" fill="none" group-id="1,2,3,5" id="Stroke-19" node-id="24" stroke="#c3e4ff" stroke-linecap="butt" stroke-width="12.6" target-height="0" target-width="184.74048" target-x="970.547" target-y="467.42902"></path><path d="M 956.98 570.83 L 1168.85 570.83" fill="none" group-id="1,2,3,5" id="Stroke-20" node-id="25" stroke="#c3e4ff" stroke-linecap="butt" stroke-width="12.6" target-height="0" target-width="211.8706" target-x="956.98206" target-y="570.82715"></path><path d="M 1095.03 430.86 L 1046.20 430.86 L 1044.63 430.54 L 1043.37 429.69 L 1042.51 428.43 L 1042.19 426.86 L 1042.19 350.03 L 1042.51 348.46 L 1043.37 347.20 L 1044.63 346.35 L 1046.20 346.03 L 1095.03 346.03 L 1096.60 346.35 L 1097.86 347.20 L 1098.72 348.46 L 1099.04 350.03 L 1099.04 426.86 L 1098.72 428.43 L 1097.86 429.69 L 1096.60 430.54 L 1095.03 430.86" fill="#c3e4ff" fill-rule="evenodd" group-id="1,2,3,5" id="Fill-21" node-id="26" stroke-linecap="butt" stroke-width="1" target-height="84.837036" target-width="56.843384" target-x="1042.1931" target-y="346.02557"></path><path d="M 1062.41 537.71 L 1013.58 537.71 L 1012.01 537.39 L 1010.75 536.54 L 1009.89 535.27 L 1009.57 533.70 L 1009.57 464.31 L 1009.89 462.74 L 1010.75 461.48 L 1012.01 460.63 L 1013.58 460.31 L 1062.41 460.31 L 1063.98 460.63 L 1065.24 461.48 L 1066.10 462.74 L 1066.42 464.31 L 1066.42 533.70 L 1066.10 535.27 L 1065.24 536.54 L 1063.98 537.39 L 1062.41 537.71" fill="#c3e4ff" fill-rule="evenodd" group-id="1,2,3,5" id="Fill-22" node-id="27" stroke-linecap="butt" stroke-width="1" target-height="77.40488" target-width="56.844055" target-x="1009.5723" target-y="460.30606"></path><path d="M 963.82 675.51 L 999.02 238.65" fill="none" group-id="1,2,3,5" id="Stroke-23" node-id="28" stroke="#d6eeff" stroke-linecap="butt" stroke-width="21" target-height="436.85687" target-width="35.204224" target-x="963.81854" target-y="238.64966"></path><path d="M 1140.84 675.51 L 1105.63 238.65" fill="none" group-id="1,2,3,5" id="Stroke-24" node-id="29" stroke="#d6eeff" stroke-linecap="butt" stroke-width="21" target-height="436.85687" target-width="35.204224" target-x="1105.6318" target-y="238.64966"></path><path d="M 978.11 257.19 L 1126.73 257.19" fill="none" group-id="1,2,3,5" id="Stroke-25" node-id="30" stroke="#d6eeff" stroke-linecap="butt" stroke-width="12.6" target-height="0" target-width="148.6258" target-x="978.10785" target-y="257.1863"></path><path d="M 968.02 352.83 L 1136.82 352.83" fill="none" group-id="1,2,3,5" id="Stroke-26" node-id="31" stroke="#d6eeff" stroke-linecap="butt" stroke-width="12.6" target-height="0" target-width="168.80652" target-x="968.0172" target-y="352.82947"></path><path d="M 960.05 467.43 L 1144.79 467.43" fill="none" group-id="1,2,3,5" id="Stroke-27" node-id="32" stroke="#d6eeff" stroke-linecap="butt" stroke-width="12.6" target-height="0" target-width="184.74036" target-x="960.0504" target-y="467.42902"></path><path d="M 946.49 570.83 L 1158.36 570.83" fill="none" group-id="1,2,3,5" id="Stroke-28" node-id="33" stroke="#d6eeff" stroke-linecap="butt" stroke-width="12.6" target-height="0" target-width="211.87067" target-x="946.4854" target-y="570.82715"></path><path d="M 1053.71 514.15 L 1005.48 514.15 L 1004.31 513.99 L 1003.31 513.57 L 1002.44 512.89 L 1001.76 512.02 L 1001.34 511.01 L 1001.18 509.84 L 1001.18 464.61 L 1001.34 463.44 L 1001.76 462.44 L 1002.44 461.57 L 1003.31 460.89 L 1004.31 460.47 L 1005.48 460.31 L 1058.02 460.31 L 1058.02 509.84 L 1057.85 511.01 L 1057.43 512.02 L 1056.76 512.89 L 1055.88 513.57 L 1054.88 513.99 L 1053.71 514.15" fill="#e8f6ff" fill-rule="evenodd" group-id="1,2,3,5" id="Fill-29" node-id="34" stroke-linecap="butt" stroke-width="1" target-height="53.8468" target-width="56.843323" target-x="1001.17523" target-y="460.3058"></path><path d="M 1001.18 504.97 L 1058.02 504.97 L 1058.02 490.71 L 1001.18 490.71 Z" fill="#d6eeff" fill-rule="evenodd" group-id="1,2,3,5" id="Fill-30" node-id="35" stroke-linecap="butt" stroke-width="1" target-height="14.257355" target-width="56.843384" target-x="1001.1754" target-y="490.71097"></path><path d="M 1062.22 460.31 L 1060.57 460.64 L 1059.25 461.54 L 1058.35 462.86 L 1058.02 464.51 L 1058.02 460.31 L 1062.22 460.31 Z" fill="#e8f6ff" fill-rule="evenodd" group-id="1,2,3,5" id="Fill-31" node-id="36" stroke-linecap="butt" stroke-width="1" target-height="4.2005615" target-width="4.1984863" target-x="1058.0168" target-y="460.30914"></path><path d="M 1086.33 405.04 L 1038.10 405.04 L 1036.93 404.88 L 1035.93 404.46 L 1035.06 403.78 L 1034.38 402.91 L 1033.96 401.90 L 1033.80 400.73 L 1033.80 350.33 L 1033.96 349.16 L 1034.38 348.16 L 1035.06 347.29 L 1035.93 346.61 L 1036.93 346.19 L 1038.10 346.03 L 1090.64 346.03 L 1090.64 400.73 L 1090.47 401.90 L 1090.05 402.91 L 1089.38 403.78 L 1088.50 404.46 L 1087.50 404.88 L 1086.33 405.04" fill="#e8f6ff" fill-rule="evenodd" group-id="1,2,3,5" id="Fill-32" node-id="37" stroke-linecap="butt" stroke-width="1" target-height="59.017" target-width="56.84265" target-x="1033.796" target-y="346.02563"></path><path d="M 1033.80 394.98 L 1090.64 394.98 L 1090.64 388.44 L 1033.80 388.44 Z" fill="#d6eeff" fill-rule="evenodd" group-id="1,2,3,5" id="Fill-33" node-id="38" stroke-linecap="butt" stroke-width="1" target-height="6.53183" target-width="56.84265" target-x="1033.7961" target-y="388.44446"></path><path d="M 1033.80 382.07 L 1090.64 382.07 L 1090.64 375.53 L 1033.80 375.53 Z" fill="#d6eeff" fill-rule="evenodd" group-id="1,2,3,5" id="Fill-34" node-id="39" stroke-linecap="butt" stroke-width="1" target-height="6.5325623" target-width="56.84265" target-x="1033.7961" target-y="375.53406"></path><path d="M 1094.84 346.03 L 1093.70 346.20 L 1092.73 346.65 L 1091.87 347.38 L 1091.21 348.30 L 1090.80 349.37 L 1090.64 350.63 L 1090.64 346.03 L 1094.84 346.03 Z" fill="#e8f6ff" fill-rule="evenodd" group-id="1,2,3,5" id="Fill-35" node-id="40" stroke-linecap="butt" stroke-width="1" target-height="4.6037903" target-width="4.1984863" target-x="1090.637" target-y="346.02957"></path><path d="M 411.62 123.66 L 445.03 123.66 L 436.04 153.27 L 420.62 153.27 Z" fill="#d6eeff" fill-rule="evenodd" group-id="1,2,3,5" id="Fill-36" node-id="41" stroke-linecap="butt" stroke-width="1" target-height="29.60756" target-width="33.410706" target-x="411.6238" target-y="123.662415"></path><path d="M 301.81 123.66 L 335.22 123.66 L 326.23 153.27 L 310.81 153.27 Z" fill="#d6eeff" fill-rule="evenodd" group-id="1,2,3,5" id="Fill-37" node-id="42" stroke-linecap="butt" stroke-width="1" target-height="29.60756" target-width="33.410706" target-x="301.8133" target-y="123.662415"></path><path d="M 301.81 104.33 L 335.22 104.33 L 326.23 133.94 L 310.81 133.94 Z" fill="#d6eeff" fill-rule="evenodd" group-id="1,2,3,5" id="Fill-38" node-id="43" stroke-linecap="butt" stroke-width="1" target-height="29.60756" target-width="33.410706" target-x="301.8133" target-y="104.329254"></path><path d="M 240.45 123.66 L 273.86 123.66 L 264.86 153.27 L 249.44 153.27 Z" fill="#d6eeff" fill-rule="evenodd" group-id="1,2,3,5" id="Fill-39" node-id="44" stroke-linecap="butt" stroke-width="1" target-height="29.60756" target-width="33.410736" target-x="240.4484" target-y="123.662415"></path><path d="M 193.84 123.66 L 227.25 123.66 L 218.25 153.27 L 202.83 153.27 Z" fill="#d6eeff" fill-rule="evenodd" group-id="1,2,3,5" id="Fill-40" node-id="45" stroke-linecap="butt" stroke-width="1" target-height="29.60756" target-width="33.41072" target-x="193.83754" target-y="123.662415"></path><path d="M 149.91 160.32 L 446.04 160.32 L 446.04 147.88 L 149.91 147.88 Z" fill="#d6eeff" fill-rule="evenodd" group-id="1,2,3,5" id="Fill-41" node-id="46" stroke-linecap="butt" stroke-width="1" target-height="12.444824" target-width="296.12906" target-x="149.90915" target-y="147.87633"></path><path d="M 446.04 160.32 L 494.75 160.32 L 494.75 147.88 L 446.04 147.88 Z" fill="#c3e4ff" fill-rule="evenodd" group-id="1,2,3,5" id="Fill-42" node-id="47" stroke-linecap="butt" stroke-width="1" target-height="12.444824" target-width="48.716187" target-x="446.0382" target-y="147.87633"></path><path d="M 222.08 160.32 L 245.21 196.62 L 245.21 160.32 Z" fill="#aad5ff" fill-rule="evenodd" group-id="1,2,3,5" id="Fill-43" node-id="48" stroke-linecap="butt" stroke-width="1" target-height="36.296936" target-width="23.125443" target-x="222.08441" target-y="160.32149"></path><path d="M 209.29 160.32 L 232.41 196.62 L 245.21 196.62 L 222.08 160.32 Z" fill="#c3e4ff" fill-rule="evenodd" group-id="1,2,3,5" id="Fill-44" node-id="49" stroke-linecap="butt" stroke-width="1" target-height="36.296936" target-width="35.922913" target-x="209.28688" target-y="160.32149"></path><path d="M 391.69 160.32 L 414.82 196.62 L 414.82 160.32 Z" fill="#aad5ff" fill-rule="evenodd" group-id="1,2,3,5" id="Fill-45" node-id="50" stroke-linecap="butt" stroke-width="1" target-height="36.296936" target-width="23.125458" target-x="391.6929" target-y="160.32149"></path><path d="M 378.90 160.32 L 402.02 196.62 L 414.82 196.62 L 391.69 160.32 Z" fill="#c3e4ff" fill-rule="evenodd" group-id="1,2,3,5" id="Fill-46" node-id="51" stroke-linecap="butt" stroke-width="1" target-height="36.296936" target-width="35.922913" target-x="378.89536" target-y="160.32149"></path><path d="M 278.73 20.77 L 277.94 25.06 L 276.68 29.09 L 274.95 32.90 L 272.78 36.48 L 270.23 39.73 L 267.31 42.68 L 264.05 45.26 L 260.53 47.43 L 256.69 49.20 L 252.68 50.50 L 248.46 51.29 L 244.01 51.58 L 239.55 51.29 L 235.34 50.50 L 231.32 49.20 L 227.49 47.43 L 223.96 45.26 L 220.71 42.68 L 217.78 39.73 L 215.24 36.48 L 213.07 32.90 L 211.34 29.09 L 210.08 25.06 L 209.29 20.77 L 278.73 20.77 Z" fill="#e8f6ff" fill-rule="evenodd" group-id="1,2,3,5" id="Fill-47" node-id="52" stroke-linecap="butt" stroke-width="1" target-height="30.80401" target-width="69.44348" target-x="209.28674" target-y="20.772955"></path><path d="M 278.73 1.70 L 277.94 5.99 L 276.68 10.02 L 274.95 13.83 L 272.78 17.41 L 270.23 20.66 L 267.31 23.61 L 264.05 26.19 L 260.53 28.36 L 256.69 30.13 L 252.68 31.42 L 248.46 32.22 L 244.01 32.50 L 239.55 32.22 L 235.34 31.42 L 231.32 30.13 L 227.49 28.36 L 223.96 26.19 L 220.71 23.61 L 217.78 20.66 L 215.24 17.41 L 213.07 13.83 L 211.34 10.02 L 210.08 5.99 L 209.29 1.70 L 278.73 1.70 Z" fill="#e8f6ff" fill-rule="evenodd" group-id="1,2,3,5" id="Fill-48" node-id="53" stroke-linecap="butt" stroke-width="1" target-height="30.804712" target-width="69.44348" target-x="209.28674" target-y="1.6989009"></path><path d="M 355.11 24.58 L 354.48 27.93 L 353.51 31.06 L 352.18 34.00 L 350.49 36.77 L 348.48 39.33 L 346.23 41.60 L 343.73 43.59 L 340.95 45.30 L 338.00 46.67 L 334.89 47.67 L 331.61 48.28 L 328.12 48.52 L 324.64 48.28 L 321.36 47.67 L 318.25 46.67 L 315.30 45.30 L 312.52 43.59 L 310.02 41.60 L 307.77 39.33 L 305.76 36.77 L 304.07 34.00 L 302.74 31.06 L 301.77 27.93 L 301.14 24.58 L 355.11 24.58 Z" fill="#e8f6ff" fill-rule="evenodd" group-id="1,2,3,5" id="Fill-49" node-id="54" stroke-linecap="butt" stroke-width="1" target-height="23.939615" target-width="53.967316" target-x="301.14154" target-y="24.57599"></path><path d="M 149.91 55.63 L 446.04 55.63 L 446.04 43.19 L 149.91 43.19 Z" fill="#d6eeff" fill-rule="evenodd" group-id="1,2,3,5" id="Fill-50" node-id="55" stroke-linecap="butt" stroke-width="1" target-height="12.44482" target-width="296.12906" target-x="149.90915" target-y="43.186092"></path><path d="M 446.04 55.63 L 494.75 55.63 L 494.75 43.19 L 446.04 43.19 Z" fill="#c3e4ff" fill-rule="evenodd" group-id="1,2,3,5" id="Fill-51" node-id="56" stroke-linecap="butt" stroke-width="1" target-height="12.44482" target-width="48.716187" target-x="446.0382" target-y="43.186092"></path><path d="M 222.08 55.63 L 245.21 91.93 L 245.21 55.63 Z" fill="#aad5ff" fill-rule="evenodd" group-id="1,2,3,5" id="Fill-52" node-id="57" stroke-linecap="butt" stroke-width="1" target-height="36.29692" target-width="23.125443" target-x="222.08441" target-y="55.631195"></path><path d="M 209.29 55.63 L 232.41 91.93 L 245.21 91.93 L 222.08 55.63 Z" fill="#c3e4ff" fill-rule="evenodd" group-id="1,2,3,5" id="Fill-53" node-id="58" stroke-linecap="butt" stroke-width="1" target-height="36.29692" target-width="35.922913" target-x="209.28688" target-y="55.631195"></path><path d="M 391.69 55.63 L 414.82 91.93 L 414.82 55.63 Z" fill="#aad5ff" fill-rule="evenodd" group-id="1,2,3,5" id="Fill-54" node-id="59" stroke-linecap="butt" stroke-width="1" target-height="36.29692" target-width="23.125458" target-x="391.6929" target-y="55.631195"></path><path d="M 378.90 55.63 L 402.02 91.93 L 414.82 91.93 L 391.69 55.63 Z" fill="#c3e4ff" fill-rule="evenodd" group-id="1,2,3,5" id="Fill-55" node-id="60" stroke-linecap="butt" stroke-width="1" target-height="36.29692" target-width="35.922913" target-x="378.89536" target-y="55.631195"></path><path d="M 422.05 211.33 L 461.15 211.33 L 450.62 245.98 L 432.58 245.98 Z" fill="#d6eeff" fill-rule="evenodd" group-id="1,2,3,5" id="Fill-56" node-id="61" stroke-linecap="butt" stroke-width="1" target-height="34.653122" target-width="39.104767" target-x="422.0473" target-y="211.32901"></path><path d="M 459.62 258.96 L 459.31 263.62 L 458.48 267.85 L 457.16 271.72 L 455.32 275.36 L 453.16 278.35 L 450.70 280.79 L 448.57 282.29 L 446.36 283.35 L 444.05 284.00 L 441.60 284.25 L 439.15 284.00 L 436.84 283.35 L 434.63 282.29 L 432.50 280.79 L 430.04 278.35 L 427.88 275.36 L 426.04 271.72 L 424.72 267.85 L 423.89 263.62 L 423.57 258.96 L 423.89 254.30 L 424.72 250.06 L 426.04 246.19 L 427.88 242.56 L 430.04 239.56 L 432.50 237.12 L 434.63 235.62 L 436.84 234.56 L 439.15 233.91 L 441.60 233.67 L 444.05 233.91 L 446.36 234.56 L 448.57 235.62 L 450.70 237.12 L 453.16 239.56 L 455.32 242.56 L 457.16 246.19 L 458.48 250.06 L 459.31 254.30 L 459.62 258.96" fill="#d6eeff" fill-rule="evenodd" group-id="1,2,3,5" id="Fill-57" node-id="62" stroke-linecap="butt" stroke-width="1" target-height="50.57599" target-width="36.050262" target-x="423.57434" target-y="233.66907"></path><path d="M 413.08 288.07 L 382.63 288.07 L 382.63 246.54 L 378.14 236.77 L 415.65 236.77 L 413.08 246.54 Z" fill="#d6eeff" fill-rule="evenodd" group-id="1,2,3,5" id="Fill-58" node-id="63" stroke-linecap="butt" stroke-width="1" target-height="51.301987" target-width="37.504425" target-x="378.14072" target-y="236.7711"></path><path d="M 129.58 645.28 L 425.83 645.28 L 425.83 281.96 L 129.58 281.96 Z" fill="#e1f4ff" fill-rule="evenodd" group-id="1,2,3,5" id="Fill-59" node-id="64" stroke-linecap="butt" stroke-width="1" target-height="363.3235" target-width="296.24664" target-x="129.58" target-y="281.9585"></path><path d="M 129.58 671.33 L 146.64 671.33 L 146.64 281.96 L 129.58 281.96 Z" fill="#e1f4ff" fill-rule="evenodd" group-id="1,2,3,5" id="Fill-60" node-id="65" stroke-linecap="butt" stroke-width="1" target-height="389.36966" target-width="17.056992" target-x="129.5793" target-y="281.9592"></path><path d="M 146.64 671.33 L 163.69 671.33 L 163.69 645.28 L 146.64 645.28 Z" fill="#aad5ff" fill-rule="evenodd" group-id="1,2,3,5" id="Fill-61" node-id="66" stroke-linecap="butt" stroke-width="1" target-height="26.046143" target-width="17.056992" target-x="146.6356" target-y="645.2827"></path><path d="M 250.47 671.33 L 267.53 671.33 L 267.53 645.28 L 250.47 645.28 Z" fill="#aad5ff" fill-rule="evenodd" group-id="1,2,3,5" id="Fill-62" node-id="67" stroke-linecap="butt" stroke-width="1" target-height="26.046143" target-width="17.05629" target-x="250.4723" target-y="645.2827"></path><path d="M 425.83 671.33 L 442.88 671.33 L 442.88 645.28 L 425.83 645.28 Z" fill="#aad5ff" fill-rule="evenodd" group-id="1,2,3,5" id="Fill-63" node-id="68" stroke-linecap="butt" stroke-width="1" target-height="26.046143" target-width="17.057007" target-x="425.82593" target-y="645.2827"></path><path d="M 495.55 671.33 L 512.61 671.33 L 512.61 645.28 L 495.55 645.28 Z" fill="#bbe1fd" fill-rule="evenodd" group-id="1,2,3,5" id="Fill-64" node-id="69" stroke-linecap="butt" stroke-width="1" target-height="26.046143" target-width="17.057007" target-x="495.54865" target-y="645.2827"></path><path d="M 408.77 671.33 L 425.83 671.33 L 425.83 281.96 L 408.77 281.96 Z" fill="#e1f4ff" fill-rule="evenodd" group-id="1,2,3,5" id="Fill-65" node-id="70" stroke-linecap="butt" stroke-width="1" target-height="389.36966" target-width="17.056976" target-x="408.76965" target-y="281.9592"></path><path d="M 512.61 671.69 L 529.66 671.69 L 529.66 645.28 L 512.61 645.28 Z" fill="#aad5ff" fill-rule="evenodd" group-id="1,2,3,5" id="Fill-66" node-id="71" stroke-linecap="butt" stroke-width="1" target-height="26.405334" target-width="17.056946" target-x="512.60565" target-y="645.282"></path><path d="M 233.42 671.33 L 250.47 671.33 L 250.47 645.28 L 233.42 645.28 Z" fill="#bbe1fd" fill-rule="evenodd" group-id="1,2,3,5" id="Fill-67" node-id="72" stroke-linecap="butt" stroke-width="1" target-height="26.046143" target-width="17.056992" target-x="233.41531" target-y="645.2827"></path><path d="M 146.64 627.70 L 408.77 627.70 L 408.77 532.46 L 146.64 532.46 Z" fill="#c3e4ff" fill-rule="evenodd" group-id="1,2,3,5" id="Fill-68" node-id="73" stroke-linecap="butt" stroke-width="1" target-height="95.2334" target-width="262.13336" target-x="146.63629" target-y="532.4623"></path><path d="M 146.64 627.70 L 227.73 627.70 L 227.73 532.46 L 146.64 532.46 Z" fill="#aad5ff" fill-rule="evenodd" group-id="1,2,3,5" id="Fill-69" node-id="74" stroke-linecap="butt" stroke-width="1" target-height="95.2334" target-width="81.094055" target-x="146.63629" target-y="532.4623"></path><path d="M 146.64 511.19 L 408.77 511.19 L 408.77 415.96 L 146.64 415.96 Z" fill="#c3e4ff" fill-rule="evenodd" group-id="1,2,3,5" id="Fill-70" node-id="75" stroke-linecap="butt" stroke-width="1" target-height="95.2334" target-width="262.13336" target-x="146.63629" target-y="415.95663"></path><path d="M 146.64 511.19 L 227.73 511.19 L 227.73 415.96 L 146.64 415.96 Z" fill="#aad5ff" fill-rule="evenodd" group-id="1,2,3,5" id="Fill-71" node-id="76" stroke-linecap="butt" stroke-width="1" target-height="95.2334" target-width="81.094055" target-x="146.63629" target-y="415.95663"></path><path d="M 146.64 394.68 L 408.77 394.68 L 408.77 299.45 L 146.64 299.45 Z" fill="#c3e4ff" fill-rule="evenodd" group-id="1,2,3,5" id="Fill-72" node-id="77" stroke-linecap="butt" stroke-width="1" target-height="95.2334" target-width="262.13336" target-x="146.63629" target-y="299.45096"></path><path d="M 146.64 394.68 L 227.73 394.68 L 227.73 299.45 L 146.64 299.45 Z" fill="#aad5ff" fill-rule="evenodd" group-id="1,2,3,5" id="Fill-73" node-id="78" stroke-linecap="butt" stroke-width="1" target-height="95.2334" target-width="81.094055" target-x="146.63629" target-y="299.45096"></path><path d="M 425.83 645.28 L 529.66 645.28 L 529.66 281.96 L 425.83 281.96 Z" fill="#aad5ff" fill-rule="evenodd" group-id="1,2,3,5" id="Fill-74" node-id="79" stroke-linecap="butt" stroke-width="1" target-height="363.3235" target-width="103.83597" target-x="425.82663" target-y="281.9585"></path><path d="M 419.65 281.96 L 127.49 281.96 L 125.48 281.77 L 123.65 281.27 L 121.95 280.46 L 120.41 279.37 L 119.10 278.06 L 118.01 276.52 L 117.20 274.82 L 116.70 272.99 L 116.52 270.99 L 419.65 270.99 L 419.65 281.96 Z" fill="#e1f4ff" fill-rule="evenodd" group-id="1,2,3,5" id="Fill-75" node-id="80" stroke-linecap="butt" stroke-width="1" target-height="10.973236" target-width="303.1296" target-x="116.51696" target-y="270.98532"></path><path d="M 533.10 281.96 L 419.65 281.96 L 419.65 270.99 L 544.07 270.99 L 543.88 272.99 L 543.38 274.82 L 542.57 276.52 L 541.48 278.06 L 540.18 279.37 L 538.64 280.46 L 536.94 281.27 L 535.10 281.77 L 533.10 281.96" fill="#aad5ff" fill-rule="evenodd" group-id="1,2,3,5" id="Fill-76" node-id="81" stroke-linecap="butt" stroke-width="1" target-height="10.973236" target-width="124.422" target-x="419.64685" target-y="270.98532"></path><path d="M 129.58 287.14 L 425.83 287.14 L 425.83 282.11 L 129.58 282.11 Z" fill="#c3e4ff" fill-rule="evenodd" group-id="1,2,3,5" id="Fill-77" node-id="82" stroke-linecap="butt" stroke-width="1" target-height="5.031555" target-width="296.24664" target-x="129.58" target-y="282.1069"></path><path d="M 183.50 627.70 L 197.58 627.70 L 197.58 573.88 L 183.50 573.88 Z" fill="#d6eeff" fill-rule="evenodd" group-id="1,2,3,5" id="Fill-78" node-id="83" stroke-linecap="butt" stroke-width="1" target-height="53.818787" target-width="14.082275" target-x="183.5011" target-y="573.8769"></path><path d="M 169.42 627.70 L 183.50 627.70 L 183.50 573.88 L 169.42 573.88 Z" fill="#c3e4ff" fill-rule="evenodd" group-id="1,2,3,5" id="Fill-79" node-id="84" stroke-linecap="butt" stroke-width="1" target-height="53.818787" target-width="14.082245" target-x="169.41885" target-y="573.8769"></path><path d="M 197.58 627.70 L 211.67 627.70 L 211.67 573.88 L 197.58 573.88 Z" fill="#c3e4ff" fill-rule="evenodd" group-id="1,2,3,5" id="Fill-80" node-id="85" stroke-linecap="butt" stroke-width="1" target-height="53.818787" target-width="14.082947" target-x="197.58337" target-y="573.8769"></path><path d="M 248.77 627.70 L 211.67 627.70 L 211.67 573.88 L 248.77 573.88 L 250.18 574.16 L 251.31 574.93 L 252.07 576.06 L 252.36 577.47 L 252.36 624.11 L 252.07 625.51 L 251.31 626.64 L 250.18 627.41 L 248.77 627.70" fill="#aad5ff" fill-rule="evenodd" group-id="1,2,3,5" id="Fill-81" node-id="86" stroke-linecap="butt" stroke-width="1" target-height="53.818848" target-width="40.691193" target-x="211.66568" target-y="573.8771"></path><path d="M 217.70 587.05 L 246.33 587.05 L 246.33 581.72 L 217.70 581.72 Z" fill="#c3e4ff" fill-rule="evenodd" group-id="1,2,3,5" id="Fill-82" node-id="87" stroke-linecap="butt" stroke-width="1" target-height="5.328369" target-width="28.631256" target-x="217.69559" target-y="581.7186"></path><path d="M 224.08 595.27 L 239.95 595.27 L 239.95 589.94 L 224.08 589.94 Z" fill="#c3e4ff" fill-rule="evenodd" group-id="1,2,3,5" id="Fill-83" node-id="88" stroke-linecap="butt" stroke-width="1" target-height="5.32843" target-width="15.872284" target-x="224.07541" target-y="589.93976"></path><path d="M 166.28 270.99 L 226.96 270.99 L 226.96 228.42 L 166.28 228.42 Z" fill="#e8f6ff" fill-rule="evenodd" group-id="1,2,3,5" id="Fill-84" node-id="89" stroke-linecap="butt" stroke-width="1" target-height="42.568344" target-width="60.678833" target-x="166.27686" target-y="228.41692"></path><path d="M 226.96 270.99 L 271.69 270.99 L 271.69 228.42 L 226.96 228.42 Z" fill="#c3e4ff" fill-rule="evenodd" group-id="1,2,3,5" id="Fill-85" node-id="90" stroke-linecap="butt" stroke-width="1" target-height="42.568344" target-width="44.73166" target-x="226.95639" target-y="228.41692"></path><path d="M 215.04 249.70 L 178.75 249.70 L 179.01 247.87 L 179.66 246.30 L 180.72 244.93 L 182.09 243.87 L 183.66 243.21 L 185.49 242.95 L 208.30 242.95 L 210.13 243.21 L 211.70 243.87 L 213.07 244.93 L 214.13 246.30 L 214.78 247.87 L 215.04 249.70" fill="#c3e4ff" fill-rule="evenodd" group-id="1,2,3,5" id="Fill-86" node-id="91" stroke-linecap="butt" stroke-width="1" target-height="6.7474823" target-width="36.294495" target-x="178.7488" target-y="242.95354"></path><path d="M 242.07 270.99 L 302.75 270.99 L 302.75 228.42 L 242.07 228.42 Z" fill="#e8f6ff" fill-rule="evenodd" group-id="1,2,3,5" id="Fill-87" node-id="92" stroke-linecap="butt" stroke-width="1" target-height="42.568344" target-width="60.678802" target-x="242.06802" target-y="228.41692"></path><path d="M 302.75 270.99 L 347.48 270.99 L 347.48 228.42 L 302.75 228.42 Z" fill="#c3e4ff" fill-rule="evenodd" group-id="1,2,3,5" id="Fill-88" node-id="93" stroke-linecap="butt" stroke-width="1" target-height="42.568344" target-width="44.73169" target-x="302.74683" target-y="228.41692"></path><path d="M 290.83 249.70 L 254.54 249.70 L 254.80 247.87 L 255.45 246.30 L 256.52 244.93 L 257.88 243.87 L 259.45 243.21 L 261.28 242.95 L 284.09 242.95 L 285.92 243.21 L 287.49 243.87 L 288.86 244.93 L 289.92 246.30 L 290.57 247.87 L 290.83 249.70" fill="#c3e4ff" fill-rule="evenodd" group-id="1,2,3,5" id="Fill-89" node-id="94" stroke-linecap="butt" stroke-width="1" target-height="6.7474823" target-width="36.294495" target-x="254.53967" target-y="242.95354"></path><path d="M 240.54 371.84 L 239.69 376.37 L 238.32 380.61 L 236.42 384.61 L 234.03 388.34 L 231.23 391.69 L 228.02 394.69 L 183.63 394.69 L 180.42 391.69 L 177.62 388.34 L 175.23 384.61 L 173.33 380.61 L 171.95 376.37 L 171.10 371.84 L 240.54 371.84 Z" fill="#d6eeff" fill-rule="evenodd" group-id="1,2,3,5" id="Fill-90" node-id="95" stroke-linecap="butt" stroke-width="1" target-height="22.850952" target-width="69.4456" target-x="171.0988" target-y="371.83514"></path><path d="M 240.54 352.76 L 239.76 357.05 L 238.50 361.08 L 236.76 364.89 L 234.59 368.47 L 232.05 371.72 L 229.12 374.67 L 225.87 377.25 L 222.34 379.42 L 218.51 381.19 L 214.49 382.48 L 210.28 383.28 L 205.82 383.56 L 201.37 383.28 L 197.15 382.48 L 193.14 381.19 L 189.31 379.42 L 185.78 377.25 L 182.52 374.67 L 179.60 371.72 L 177.05 368.47 L 174.88 364.89 L 173.15 361.08 L 171.89 357.05 L 171.10 352.76 L 240.54 352.76 Z" fill="#d6eeff" fill-rule="evenodd" group-id="1,2,3,5" id="Fill-91" node-id="96" stroke-linecap="butt" stroke-width="1" target-height="30.804718" target-width="69.44351" target-x="171.10089" target-y="352.7587"></path><path d="M 335.93 371.84 L 335.08 376.37 L 333.70 380.61 L 331.80 384.61 L 329.41 388.34 L 326.62 391.69 L 323.40 394.69 L 279.02 394.69 L 275.80 391.69 L 273.01 388.34 L 270.62 384.61 L 268.72 380.61 L 267.34 376.37 L 266.48 371.84 L 335.93 371.84 Z" fill="#d6eeff" fill-rule="evenodd" group-id="1,2,3,5" id="Fill-92" node-id="97" stroke-linecap="butt" stroke-width="1" target-height="22.850952" target-width="69.44562" target-x="266.48334" target-y="371.83514"></path><path d="M 335.93 352.76 L 335.14 357.05 L 333.88 361.08 L 332.15 364.89 L 329.97 368.47 L 327.43 371.72 L 324.50 374.67 L 321.25 377.25 L 317.72 379.42 L 313.89 381.19 L 309.88 382.48 L 305.66 383.28 L 301.21 383.56 L 296.75 383.28 L 292.54 382.48 L 288.52 381.19 L 284.69 379.42 L 281.16 377.25 L 277.91 374.67 L 274.98 371.72 L 272.44 368.47 L 270.27 364.89 L 268.53 361.08 L 267.27 357.05 L 266.49 352.76 L 335.93 352.76 Z" fill="#d6eeff" fill-rule="evenodd" group-id="1,2,3,5" id="Fill-93" node-id="98" stroke-linecap="butt" stroke-width="1" target-height="30.804718" target-width="69.44351" target-x="266.48544" target-y="352.7587"></path><path d="M 202.13 475.74 L 201.86 485.78 L 201.11 494.94 L 199.86 503.72 L 198.29 511.19 L 173.13 511.19 L 171.56 503.72 L 170.32 494.94 L 169.56 485.78 L 169.29 475.74" fill="#e8f6ff" fill-rule="evenodd" group-id="1,2,3,5" id="Fill-94" node-id="99" stroke-linecap="butt" stroke-width="1" target-height="35.445618" target-width="32.832718" target-x="169.2938" target-y="475.7447"></path><path d="M 200.88 481.68 L 202.73 482.23 L 204.37 483.04 L 205.82 484.12 L 207.06 485.43 L 208.05 486.91 L 208.79 488.56 L 209.24 490.31 L 209.37 492.13 L 209.17 494.05 L 208.62 495.90 L 207.81 497.54 L 206.73 498.99 L 205.42 500.24 L 203.95 501.22 L 202.29 501.96 L 200.54 502.41 L 198.72 502.54 L 196.80 502.34" fill="none" group-id="1,2,3,5" id="Stroke-95" node-id="100" stroke="#e8f6ff" stroke-linecap="butt" stroke-width="5.6" target-height="20.860107" target-width="12.562302" target-x="196.80417" target-y="481.68042"></path><path d="M 252.51 475.74 L 252.24 485.78 L 251.49 494.94 L 250.25 503.72 L 248.67 511.19 L 223.52 511.19 L 221.94 503.72 L 220.70 494.94 L 219.95 485.78 L 219.68 475.74" fill="#e8f6ff" fill-rule="evenodd" group-id="1,2,3,5" id="Fill-96" node-id="101" stroke-linecap="butt" stroke-width="1" target-height="35.445618" target-width="32.832703" target-x="219.67755" target-y="475.7447"></path><path d="M 245.81 481.68 L 247.66 482.23 L 249.30 483.04 L 250.75 484.12 L 251.99 485.43 L 252.98 486.91 L 253.72 488.56 L 254.17 490.31 L 254.30 492.13 L 254.10 494.05 L 253.55 495.90 L 252.74 497.54 L 251.66 498.99 L 250.35 500.24 L 248.88 501.22 L 247.23 501.96 L 245.48 502.41 L 243.65 502.54 L 241.74 502.34" fill="none" group-id="1,2,3,5" id="Stroke-97" node-id="102" stroke="#e8f6ff" stroke-linecap="butt" stroke-width="5.6" target-height="20.860107" target-width="12.562317" target-x="241.73526" target-y="481.68042"></path><path d="M 357.21 475.74 L 356.94 485.78 L 356.19 494.94 L 354.95 503.72 L 353.37 511.19 L 328.22 511.19 L 326.64 503.72 L 325.40 494.94 L 324.65 485.78 L 324.38 475.74" fill="#e8f6ff" fill-rule="evenodd" group-id="1,2,3,5" id="Fill-98" node-id="103" stroke-linecap="butt" stroke-width="1" target-height="35.445618" target-width="32.832733" target-x="324.37784" target-y="475.7447"></path><path d="M 326.58 481.68 L 324.73 482.23 L 323.10 483.04 L 321.65 484.12 L 320.40 485.43 L 319.42 486.91 L 318.68 488.56 L 318.23 490.31 L 318.10 492.13 L 318.30 494.05 L 318.84 495.90 L 319.66 497.54 L 320.73 498.99 L 322.05 500.24 L 323.52 501.22 L 325.17 501.96 L 326.92 502.41 L 328.74 502.54 L 330.66 502.34" fill="none" group-id="1,2,3,5" id="Stroke-99" node-id="104" stroke="#e8f6ff" stroke-linecap="butt" stroke-width="5.6" target-height="20.860107" target-width="12.563019" target-x="318.09872" target-y="481.68042"></path></g><g node-id="223"><path d="M 1232.57 677.11 L 7.00 677.11" fill="#e8f6ff" fill-rule="evenodd" group-id="1,2,3,6" id="Fill-100" node-id="106" stroke-linecap="butt" stroke-width="1" target-height="0" target-width="1225.5735" target-x="6.998023" target-y="677.1104"></path><path d="M 1232.57 677.11 L 7.00 677.11" fill="none" group-id="1,2,3,6" id="Stroke-101" node-id="107" stroke="#d6eeff" stroke-linecap="round" stroke-width="14" target-height="0" target-width="1225.5735" target-x="6.998023" target-y="677.1104"></path></g></g><g node-id="221"><path d="M 1131.06 765.93 L 1130.08 766.09 L 1121.12 766.44 L 1092.59 766.91 L 1047.45 767.34 L 987.67 767.72 L 915.22 768.03 L 832.06 768.26 L 740.17 768.41 L 641.50 768.46 L 542.84 768.41 L 450.94 768.26 L 367.78 768.03 L 295.33 767.72 L 235.55 767.34 L 190.41 766.92 L 161.89 766.44 L 152.92 766.09 L 151.94 765.93 L 152.92 765.77 L 161.89 765.42 L 190.41 764.94 L 235.55 764.51 L 295.33 764.14 L 367.78 763.83 L 450.94 763.60 L 542.84 763.45 L 641.50 763.40 L 740.17 763.45 L 832.06 763.60 L 915.22 763.83 L 987.67 764.14 L 1047.45 764.51 L 1092.59 764.94 L 1121.12 765.42 L 1130.08 765.77 L 1131.06 765.93" fill="#afb4c8" fill-rule="evenodd" group-id="1,2,4" id="Fill-104" node-id="109" stroke-linecap="butt" stroke-width="1" target-height="5.0616455" target-width="979.12555" target-x="151.93904" target-y="763.3989"></path><path d="M 248.92 548.14 L 965.92 548.14 L 965.92 524.30 L 248.92 524.30 Z" fill="#687378" fill-rule="evenodd" group-id="1,2,4" id="Fill-106" node-id="110" stroke-linecap="butt" stroke-width="1" target-height="23.839478" target-width="716.99994" target-x="248.9181" target-y="524.29785"></path><path d="M 965.92 548.14 L 1057.64 548.14 L 1057.64 524.30 L 965.92 524.30 Z" fill="#272636" fill-rule="evenodd" group-id="1,2,4" id="Fill-108" node-id="111" stroke-linecap="butt" stroke-width="1" target-height="23.839478" target-width="91.72357" target-x="965.918" target-y="524.29785"></path><path d="M 1040.88 765.24 L 1053.95 765.24 L 993.25 548.14 L 980.17 548.14 Z" fill="#272636" fill-rule="evenodd" group-id="1,2,4" id="Fill-109" node-id="112" stroke-linecap="butt" stroke-width="1" target-height="217.10034" target-width="73.78143" target-x="980.1702" target-y="548.1368"></path><path d="M 956.93 765.24 L 970.00 765.24 L 909.30 548.14 L 896.22 548.14 Z" fill="#687378" fill-rule="evenodd" group-id="1,2,4" id="Fill-110" node-id="113" stroke-linecap="butt" stroke-width="1" target-height="217.10034" target-width="73.78143" target-x="896.22125" target-y="548.1368"></path><path d="M 255.75 765.24 L 242.67 765.24 L 303.38 548.14 L 316.46 548.14 Z" fill="#687378" fill-rule="evenodd" group-id="1,2,4" id="Fill-111" node-id="114" stroke-linecap="butt" stroke-width="1" target-height="217.10034" target-width="73.7814" target-x="242.6738" target-y="548.1368"></path><path d="M 339.70 765.24 L 326.62 765.24 L 387.33 548.14 L 400.40 548.14 Z" fill="#272636" fill-rule="evenodd" group-id="1,2,4" id="Fill-112" node-id="115" stroke-linecap="butt" stroke-width="1" target-height="217.10034" target-width="73.78137" target-x="326.6228" target-y="548.1368"></path><path d="M 396.19 480.56 L 396.19 480.56 L 392.44 480.21 L 388.99 479.26 L 385.78 477.73 L 382.88 475.67 L 380.42 473.20 L 378.36 470.30 L 376.82 467.09 L 375.88 463.64 L 375.52 459.88 L 375.52 213.24 L 375.88 209.48 L 376.82 206.03 L 378.36 202.83 L 380.42 199.92 L 382.88 197.46 L 385.78 195.40 L 388.99 193.86 L 392.44 192.92 L 396.19 192.56 L 399.95 192.92 L 403.40 193.86 L 406.61 195.40 L 409.51 197.46 L 411.97 199.92 L 414.03 202.83 L 415.57 206.03 L 416.51 209.48 L 416.86 213.24 L 416.86 459.88 L 416.51 463.64 L 415.57 467.09 L 414.03 470.30 L 411.97 473.20 L 409.51 475.67 L 406.61 477.73 L 403.40 479.26 L 399.95 480.21 L 396.19 480.56" fill="#00a164" fill-rule="evenodd" group-id="1,2,4" id="Fill-113" node-id="116" stroke-linecap="butt" stroke-width="1" target-height="287.99997" target-width="41.341248" target-x="375.52295" target-y="192.56259"></path><path d="M 305.13 335.26 L 305.13 335.26 L 301.91 334.96 L 298.95 334.15 L 296.21 332.83 L 293.72 331.07 L 291.61 328.95 L 289.84 326.47 L 288.53 323.72 L 287.72 320.76 L 287.42 317.54 L 287.42 226.94 L 287.72 223.72 L 288.53 220.76 L 289.84 218.02 L 291.61 215.53 L 293.72 213.42 L 296.21 211.65 L 298.95 210.33 L 301.91 209.52 L 305.13 209.22 L 308.35 209.52 L 311.31 210.33 L 314.05 211.65 L 316.54 213.42 L 318.65 215.53 L 320.42 218.02 L 321.73 220.76 L 322.54 223.72 L 322.85 226.94 L 322.85 317.54 L 322.54 320.76 L 321.73 323.72 L 320.42 326.47 L 318.65 328.95 L 316.54 331.07 L 314.05 332.83 L 311.31 334.15 L 308.35 334.96 L 305.13 335.26" fill="#00a164" fill-rule="evenodd" group-id="1,2,4" id="Fill-114" node-id="117" stroke-linecap="butt" stroke-width="1" target-height="126.040924" target-width="35.429565" target-x="287.41696" target-y="209.22098"></path><path d="M 408.52 317.54 L 408.52 317.54 L 408.22 320.76 L 407.41 323.72 L 406.09 326.47 L 404.33 328.95 L 402.21 331.07 L 399.73 332.83 L 396.98 334.15 L 394.02 334.96 L 390.80 335.26 L 305.13 335.26 L 301.91 334.96 L 298.95 334.15 L 296.21 332.83 L 293.72 331.07 L 291.61 328.95 L 289.84 326.47 L 288.53 323.72 L 287.72 320.76 L 287.42 317.54 L 287.72 314.32 L 288.53 311.36 L 289.84 308.61 L 291.61 306.12 L 293.72 304.01 L 296.21 302.25 L 298.95 300.93 L 301.91 300.12 L 305.13 299.82 L 390.80 299.82 L 394.02 300.12 L 396.98 300.93 L 399.73 302.25 L 402.21 304.01 L 404.33 306.12 L 406.09 308.61 L 407.41 311.36 L 408.22 314.32 L 408.52 317.54" fill="#00a164" fill-rule="evenodd" group-id="1,2,4" id="Fill-115" node-id="118" stroke-linecap="butt" stroke-width="1" target-height="35.445618" target-width="121.102234" target-x="287.4167" target-y="299.81635"></path><path d="M 448.88 447.51 L 448.88 494.19 L 448.59 498.31 L 447.80 502.19 L 446.51 505.88 L 444.74 509.37 L 442.59 512.56 L 440.04 515.45 L 437.14 518.01 L 433.96 520.16 L 430.47 521.92 L 426.78 523.22 L 422.90 524.01 L 418.78 524.30 L 371.58 524.30 L 367.46 524.01 L 363.58 523.22 L 359.89 521.92 L 356.40 520.16 L 353.22 518.01 L 350.32 515.45 L 347.77 512.56 L 345.62 509.37 L 343.85 505.88 L 342.56 502.19 L 341.77 498.31 L 341.48 494.19 L 341.48 447.51 L 448.88 447.51 Z" fill="#285fd7" fill-rule="evenodd" group-id="1,2,4" id="Fill-116" node-id="119" stroke-linecap="butt" stroke-width="1" target-height="76.79303" target-width="107.40134" target-x="341.47998" target-y="447.50818"></path><path d="M 408.63 284.51 L 424.51 272.48" fill="none" group-id="1,2,4" id="Stroke-117" node-id="120" stroke="#23426f" stroke-linecap="butt" stroke-width="3.5" target-height="12.030334" target-width="15.879272" target-x="408.62787" target-y="272.48004"></path><path d="M 299.12 342.58 L 315.00 330.55" fill="none" group-id="1,2,4" id="Stroke-118" node-id="121" stroke="#23426f" stroke-linecap="butt" stroke-width="3.5" target-height="12.029663" target-width="15.879272" target-x="299.12418" target-y="330.5476"></path><path d="M 409.81 384.32 L 425.69 372.29" fill="none" group-id="1,2,4" id="Stroke-119" node-id="122" stroke="#23426f" stroke-linecap="butt" stroke-width="3.5" target-height="12.030334" target-width="15.879974" target-x="409.80978" target-y="372.28644"></path><path d="M 392.46 432.08 L 408.34 420.05" fill="none" group-id="1,2,4" id="Stroke-120" node-id="123" stroke="#23426f" stroke-linecap="butt" stroke-width="3.5" target-height="12.0303955" target-width="15.880005" target-x="392.4579" target-y="420.04852"></path><path d="M 384.52 237.69 L 372.81 223.45" fill="none" group-id="1,2,4" id="Stroke-121" node-id="124" stroke="#23426f" stroke-linecap="butt" stroke-width="3.5" target-height="14.237061" target-width="11.712128" target-x="372.8125" target-y="223.45068"></path><path d="M 351.50 305.51 L 339.79 291.28" fill="none" group-id="1,2,4" id="Stroke-122" node-id="125" stroke="#23426f" stroke-linecap="butt" stroke-width="3.5" target-height="14.237732" target-width="11.712128" target-x="339.78854" target-y="291.27502"></path><path d="M 381.38 414.62 L 369.67 400.38" fill="none" group-id="1,2,4" id="Stroke-123" node-id="126" stroke="#23426f" stroke-linecap="butt" stroke-width="3.5" target-height="14.237061" target-width="11.712128" target-x="369.6673" target-y="400.38403"></path><path d="M 406.53 210.66 L 419.69 197.96" fill="none" group-id="1,2,4" id="Stroke-124" node-id="127" stroke="#23426f" stroke-linecap="butt" stroke-width="3.5" target-height="12.696854" target-width="13.160675" target-x="406.52887" target-y="197.96008"></path><path d="M 315.04 269.60 L 328.20 256.90" fill="none" group-id="1,2,4" id="Stroke-125" node-id="128" stroke="#23426f" stroke-linecap="butt" stroke-width="3.5" target-height="12.696838" target-width="13.161346" target-x="315.03894" target-y="256.90173"></path><path d="M 393.82 283.74 L 379.15 274.69" fill="none" group-id="1,2,4" id="Stroke-126" node-id="129" stroke="#23426f" stroke-linecap="butt" stroke-width="3.5" target-height="9.045868" target-width="14.671478" target-x="379.1535" target-y="274.68994"></path><path d="M 383.16 354.21 L 365.23 347.07" fill="none" group-id="1,2,4" id="Stroke-127" node-id="130" stroke="#23426f" stroke-linecap="butt" stroke-width="3.5" target-height="7.1458435" target-width="17.928223" target-x="365.23038" target-y="347.06808"></path><path d="M 296.38 245.48 L 279.28 233.49" fill="none" group-id="1,2,4" id="Stroke-128" node-id="131" stroke="#23426f" stroke-linecap="butt" stroke-width="3.5" target-height="11.989075" target-width="17.10318" target-x="279.27795" target-y="233.49054"></path><path d="M 399.23 251.74 L 412.00 241.38" fill="none" group-id="1,2,4" id="Stroke-129" node-id="132" stroke="#ffffff" stroke-linecap="butt" stroke-width="3.5" target-height="10.356445" target-width="12.770203" target-x="399.23016" target-y="241.38022"></path><path d="M 309.42 298.39 L 297.15 284.54" fill="none" group-id="1,2,4" id="Stroke-130" node-id="133" stroke="#ffffff" stroke-linecap="butt" stroke-width="3.5" target-height="13.850616" target-width="12.273346" target-x="297.14822" target-y="284.54337"></path><path d="M 395.18 336.56 L 405.62 320.95" fill="none" group-id="1,2,4" id="Stroke-131" node-id="134" stroke="#ffffff" stroke-linecap="butt" stroke-width="3.5" target-height="15.614136" target-width="10.435059" target-x="395.18042" target-y="320.94846"></path><path d="M 448.88 488.17 L 422.03 474.16 L 395.18 488.17 L 368.33 474.16 L 341.48 488.17" fill="none" group-id="1,2,4" id="Stroke-132" node-id="135" stroke="#aad5ff" stroke-linecap="butt" stroke-width="3.5" target-height="14.010925" target-width="107.40134" target-x="341.47998" target-y="474.15588"></path><path d="M 372.27 495.31 L 372.10 496.50 L 371.68 497.52 L 370.99 498.40 L 370.10 499.09 L 369.08 499.52 L 367.89 499.69 L 366.70 499.52 L 365.68 499.09 L 364.80 498.40 L 364.11 497.52 L 363.68 496.50 L 363.51 495.31 L 363.68 494.12 L 364.11 493.10 L 364.80 492.21 L 365.68 491.52 L 366.70 491.10 L 367.89 490.93 L 369.08 491.10 L 370.10 491.52 L 370.99 492.21 L 371.68 493.10 L 372.10 494.12 L 372.27 495.31" fill="#aad5ff" fill-rule="evenodd" group-id="1,2,4" id="Fill-133" node-id="136" stroke-linecap="butt" stroke-width="1" target-height="8.7595825" target-width="8.756287" target-x="363.51343" target-y="490.92706"></path><path d="M 425.62 495.31 L 425.45 496.50 L 425.03 497.52 L 424.34 498.40 L 423.45 499.09 L 422.43 499.52 L 421.24 499.69 L 420.05 499.52 L 419.03 499.09 L 418.15 498.40 L 417.46 497.52 L 417.03 496.50 L 416.86 495.31 L 417.03 494.12 L 417.46 493.10 L 418.15 492.21 L 419.03 491.52 L 420.05 491.10 L 421.24 490.93 L 422.43 491.10 L 423.45 491.52 L 424.34 492.21 L 425.03 493.10 L 425.45 494.12 L 425.62 495.31" fill="#aad5ff" fill-rule="evenodd" group-id="1,2,4" id="Fill-134" node-id="137" stroke-linecap="butt" stroke-width="1" target-height="8.7595825" target-width="8.756287" target-x="416.8637" target-y="490.92706"></path><path d="M 399.56 469.89 L 399.39 471.08 L 398.96 472.10 L 398.28 472.99 L 397.39 473.67 L 396.37 474.10 L 395.18 474.27 L 393.99 474.10 L 392.97 473.67 L 392.08 472.99 L 391.40 472.10 L 390.97 471.08 L 390.80 469.89 L 390.97 468.70 L 391.40 467.68 L 392.08 466.79 L 392.97 466.10 L 393.99 465.68 L 395.18 465.51 L 396.37 465.68 L 397.39 466.10 L 398.28 466.79 L 398.96 467.68 L 399.39 468.70 L 399.56 469.89" fill="#aad5ff" fill-rule="evenodd" group-id="1,2,4" id="Fill-135" node-id="138" stroke-linecap="butt" stroke-width="1" target-height="8.7595215" target-width="8.756287" target-x="390.80225" target-y="465.50848"></path><path d="M 448.88 465.51 L 448.88 474.27 L 447.69 474.10 L 446.67 473.67 L 445.79 472.98 L 445.10 472.10 L 444.67 471.08 L 444.50 469.89 L 444.67 468.70 L 445.10 467.68 L 445.79 466.79 L 446.67 466.10 L 447.69 465.68 L 448.88 465.51" fill="#aad5ff" fill-rule="evenodd" group-id="1,2,4" id="Fill-136" node-id="139" stroke-linecap="butt" stroke-width="1" target-height="8.758118" target-width="4.3805847" target-x="444.50073" target-y="465.50757"></path><path d="M 345.86 469.89 L 345.69 471.08 L 345.27 472.10 L 344.58 472.98 L 343.69 473.67 L 342.67 474.10 L 341.48 474.27 L 341.48 465.51 L 342.67 465.68 L 343.69 466.10 L 344.58 466.79 L 345.27 467.68 L 345.69 468.70 L 345.86 469.89" fill="#aad5ff" fill-rule="evenodd" group-id="1,2,4" id="Fill-137" node-id="140" stroke-linecap="butt" stroke-width="1" target-height="8.758179" target-width="4.3805847" target-x="341.47983" target-y="465.5074"></path><path d="M 907.77 480.56 L 907.77 480.56 L 904.01 480.21 L 900.56 479.26 L 897.36 477.73 L 894.45 475.67 L 891.99 473.20 L 889.93 470.30 L 888.39 467.09 L 887.45 463.64 L 887.10 459.88 L 887.10 213.24 L 887.45 209.48 L 888.39 206.03 L 889.93 202.83 L 891.99 199.92 L 894.45 197.46 L 897.36 195.40 L 900.56 193.86 L 904.01 192.92 L 907.77 192.56 L 911.52 192.92 L 914.98 193.86 L 918.18 195.40 L 921.08 197.46 L 923.54 199.92 L 925.60 202.83 L 927.14 206.03 L 928.08 209.48 L 928.44 213.24 L 928.44 459.88 L 928.08 463.64 L 927.14 467.09 L 925.60 470.30 L 923.54 473.20 L 921.08 475.67 L 918.18 477.73 L 914.98 479.26 L 911.52 480.21 L 907.77 480.56" fill="#00a164" fill-rule="evenodd" group-id="1,2,4" id="Fill-138" node-id="141" stroke-linecap="butt" stroke-width="1" target-height="287.99997" target-width="41.339844" target-x="887.0969" target-y="192.56259"></path><path d="M 816.70 349.26 L 816.70 349.26 L 813.48 348.96 L 810.53 348.15 L 807.78 346.83 L 805.29 345.07 L 803.18 342.96 L 801.42 340.47 L 800.10 337.72 L 799.29 334.76 L 798.99 331.54 L 798.99 240.95 L 799.29 237.72 L 800.10 234.76 L 801.42 232.02 L 803.18 229.53 L 805.29 227.42 L 807.78 225.65 L 810.53 224.34 L 813.48 223.53 L 816.70 223.22 L 819.93 223.53 L 822.88 224.34 L 825.63 225.65 L 828.12 227.42 L 830.23 229.53 L 831.99 232.02 L 833.31 234.76 L 834.12 237.72 L 834.42 240.95 L 834.42 331.54 L 834.12 334.76 L 833.31 337.72 L 831.99 340.47 L 830.23 342.96 L 828.12 345.07 L 825.63 346.84 L 822.88 348.15 L 819.93 348.96 L 816.70 349.26" fill="#00a164" fill-rule="evenodd" group-id="1,2,4" id="Fill-139" node-id="142" stroke-linecap="butt" stroke-width="1" target-height="126.040924" target-width="35.428833" target-x="798.9906" target-y="223.22281"></path><path d="M 920.09 331.54 L 920.09 331.54 L 919.79 334.76 L 918.98 337.72 L 917.66 340.47 L 915.90 342.96 L 913.79 345.07 L 911.30 346.84 L 908.55 348.15 L 905.60 348.96 L 902.38 349.26 L 816.70 349.26 L 813.48 348.96 L 810.53 348.15 L 807.78 346.84 L 805.29 345.07 L 803.18 342.96 L 801.42 340.47 L 800.10 337.72 L 799.29 334.76 L 798.99 331.54 L 799.29 328.32 L 800.10 325.36 L 801.42 322.61 L 803.18 320.13 L 805.29 318.01 L 807.78 316.25 L 810.53 314.93 L 813.48 314.12 L 816.70 313.82 L 902.38 313.82 L 905.60 314.12 L 908.55 314.93 L 911.30 316.25 L 913.79 318.01 L 915.90 320.13 L 917.66 322.61 L 918.98 325.36 L 919.79 328.32 L 920.09 331.54" fill="#00a164" fill-rule="evenodd" group-id="1,2,4" id="Fill-140" node-id="143" stroke-linecap="butt" stroke-width="1" target-height="35.445618" target-width="121.102234" target-x="798.9899" target-y="313.81818"></path><path d="M 930.36 524.30 L 883.15 524.30 L 879.03 524.01 L 875.15 523.22 L 871.46 521.92 L 867.97 520.16 L 864.79 518.01 L 861.89 515.45 L 859.34 512.55 L 857.19 509.37 L 855.43 505.88 L 854.13 502.19 L 853.34 498.31 L 853.05 494.19 L 853.05 447.51 L 960.46 447.51 L 960.46 494.19 L 960.17 498.31 L 959.37 502.19 L 958.08 505.88 L 956.32 509.37 L 954.17 512.55 L 951.61 515.45 L 948.72 518.01 L 945.54 520.16 L 942.04 521.92 L 938.36 523.22 L 934.48 524.01 L 930.36 524.30" fill="#285fd7" fill-rule="evenodd" group-id="1,2,4" id="Fill-141" node-id="144" stroke-linecap="butt" stroke-width="1" target-height="76.787415" target-width="107.40277" target-x="853.0523" target-y="447.51038"></path><path d="M 897.11 283.31 L 881.83 271.28" fill="none" group-id="1,2,4" id="Stroke-142" node-id="145" stroke="#23426f" stroke-linecap="butt" stroke-width="3.5" target-height="12.030365" target-width="15.281006" target-x="881.826" target-y="271.2788"></path><path d="M 862.63 317.48 L 847.35 305.45" fill="none" group-id="1,2,4" id="Stroke-143" node-id="146" stroke="#23426f" stroke-linecap="butt" stroke-width="3.5" target-height="12.030334" target-width="15.280273" target-x="847.35394" target-y="305.4544"></path><path d="M 878.60 416.72 L 893.88 428.75" fill="none" group-id="1,2,4" id="Stroke-144" node-id="147" stroke="#23426f" stroke-linecap="butt" stroke-width="3.5" target-height="12.030334" target-width="15.281006" target-x="878.5964" target-y="416.71582"></path><path d="M 876.41 362.74 L 891.69 374.76" fill="none" group-id="1,2,4" id="Stroke-145" node-id="148" stroke="#23426f" stroke-linecap="butt" stroke-width="3.5" target-height="12.029663" target-width="15.281006" target-x="876.40546" target-y="362.73535"></path><path d="M 920.30 236.49 L 931.57 222.25" fill="none" group-id="1,2,4" id="Stroke-146" node-id="149" stroke="#23426f" stroke-linecap="butt" stroke-width="3.5" target-height="14.237045" target-width="11.269836" target-x="920.30066" target-y="222.24905"></path><path d="M 832.14 356.38 L 843.41 342.14" fill="none" group-id="1,2,4" id="Stroke-147" node-id="150" stroke="#23426f" stroke-linecap="butt" stroke-width="3.5" target-height="14.237732" target-width="11.269165" target-x="832.13727" target-y="342.14478"></path><path d="M 936.91 334.98 L 924.01 352.66" fill="none" group-id="1,2,4" id="Stroke-148" node-id="151" stroke="#23426f" stroke-linecap="butt" stroke-width="3.5" target-height="17.677307" target-width="12.90033" target-x="924.0056" target-y="334.98227"></path><path d="M 899.13 209.46 L 886.46 196.76" fill="none" group-id="1,2,4" id="Stroke-149" node-id="152" stroke="#23426f" stroke-linecap="butt" stroke-width="3.5" target-height="12.696854" target-width="12.66449" target-x="886.4618" target-y="196.75887"></path><path d="M 803.14 269.70 L 790.48 257.00" fill="none" group-id="1,2,4" id="Stroke-150" node-id="153" stroke="#23426f" stroke-linecap="butt" stroke-width="3.5" target-height="12.696838" target-width="12.664551" target-x="790.4786" target-y="257.0016"></path><path d="M 911.35 282.53 L 925.47 273.49" fill="none" group-id="1,2,4" id="Stroke-151" node-id="154" stroke="#23426f" stroke-linecap="butt" stroke-width="3.5" target-height="9.045898" target-width="14.117981" target-x="911.35114" target-y="273.48834"></path><path d="M 936.76 401.84 L 920.12 416.32" fill="none" group-id="1,2,4" id="Stroke-152" node-id="155" stroke="#23426f" stroke-linecap="butt" stroke-width="3.5" target-height="14.476501" target-width="16.640625" target-x="920.117" target-y="401.83887"></path><path d="M 827.64 254.57 L 844.10 242.58" fill="none" group-id="1,2,4" id="Stroke-153" node-id="156" stroke="#23426f" stroke-linecap="butt" stroke-width="3.5" target-height="11.989059" target-width="16.45868" target-x="827.63934" target-y="242.57983"></path><path d="M 906.15 250.54 L 893.86 240.18" fill="none" group-id="1,2,4" id="Stroke-154" node-id="157" stroke="#ffffff" stroke-linecap="butt" stroke-width="3.5" target-height="10.357147" target-width="12.288757" target-x="893.86127" target-y="240.17831"></path><path d="M 808.55 298.49 L 820.36 284.64" fill="none" group-id="1,2,4" id="Stroke-155" node-id="158" stroke="#ffffff" stroke-linecap="butt" stroke-width="3.5" target-height="13.850586" target-width="11.810059" target-x="808.5486" target-y="284.64313"></path><path d="M 901.86 398.36 L 913.67 384.51" fill="none" group-id="1,2,4" id="Stroke-156" node-id="159" stroke="#ffffff" stroke-linecap="butt" stroke-width="3.5" target-height="13.850586" target-width="11.810059" target-x="901.8619" target-y="384.51044"></path><path d="M 910.05 335.36 L 900.01 319.75" fill="none" group-id="1,2,4" id="Stroke-157" node-id="160" stroke="#ffffff" stroke-linecap="butt" stroke-width="3.5" target-height="15.614136" target-width="10.041077" target-x="900.00555" target-y="319.7469"></path><path d="M 879.90 489.19 L 898.31 489.19 L 898.31 470.77 L 879.90 470.77 Z" fill="#aad5ff" fill-rule="evenodd" group-id="1,2,4" id="Fill-158" node-id="161" stroke-linecap="butt" stroke-width="1" target-height="18.416626" target-width="18.408264" target-x="879.90247" target-y="470.77167"></path><path d="M 952.68 489.19 L 960.45 489.19 L 960.45 470.77 L 952.68 470.77 Z" fill="#aad5ff" fill-rule="evenodd" group-id="1,2,4" id="Fill-159" node-id="162" stroke-linecap="butt" stroke-width="1" target-height="18.416626" target-width="7.7724" target-x="952.6825" target-y="470.77167"></path><path d="M 925.50 493.00 L 912.48 479.98 L 925.50 466.96 L 938.51 479.98 Z" fill="#aad5ff" fill-rule="evenodd" group-id="1,2,4" id="Fill-160" node-id="163" stroke-linecap="butt" stroke-width="1" target-height="26.0448" target-width="26.033752" target-x="912.4798" target-y="466.9571"></path><path d="M 853.05 466.96 L 866.07 479.98 L 853.05 493.00" fill="#aad5ff" fill-rule="evenodd" group-id="1,2,4" id="Fill-161" node-id="164" stroke-linecap="butt" stroke-width="1" target-height="26.0448" target-width="13.017212" target-x="853.0526" target-y="466.95728"></path><path d="M 561.76 725.44 L 561.56 744.59 L 563.57 745.02 L 565.65 745.62 L 568.61 746.71 L 571.69 748.16 L 575.17 750.26 L 577.39 751.90 L 579.59 753.89 L 581.77 756.24 L 583.67 758.79 L 585.39 761.77 L 586.91 765.24 L 536.44 765.24 L 540.10 743.73 L 542.26 725.07 L 561.76 725.44 Z" fill="#0b096f" fill-rule="evenodd" group-id="1,2,4" id="Fill-162" node-id="165" stroke-linecap="butt" stroke-width="1" target-height="40.164246" target-width="50.46698" target-x="536.43823" target-y="725.0732"></path><path d="M 542.64 720.39 L 540.10 743.73 L 561.56 744.59 L 561.67 726.14 Z" fill="#ef3c86" fill-rule="evenodd" group-id="1,2,4" id="Fill-163" node-id="166" stroke-linecap="butt" stroke-width="1" target-height="24.190247" target-width="21.57544" target-x="540.096" target-y="720.395"></path><path d="M 651.73 729.18 L 649.72 744.23 L 652.55 744.91 L 659.92 746.87 L 670.15 749.99 L 675.76 751.94 L 681.54 754.16 L 687.20 756.62 L 692.42 759.24 L 697.25 762.17 L 701.10 765.13 L 627.66 765.24 L 634.10 722.15 L 651.73 729.18 Z" fill="#0b096f" fill-rule="evenodd" group-id="1,2,4" id="Fill-164" node-id="167" stroke-linecap="butt" stroke-width="1" target-height="43.082886" target-width="73.43921" target-x="627.65784" target-y="722.15424"></path><path d="M 633.69 725.43 L 630.82 743.63 L 649.72 744.23 L 651.42 731.74 Z" fill="#ef3c86" fill-rule="evenodd" group-id="1,2,4" id="Fill-165" node-id="168" stroke-linecap="butt" stroke-width="1" target-height="18.800293" target-width="20.599915" target-x="630.81915" target-y="725.4256"></path><path d="M 515.50 222.57 L 515.79 228.18 L 516.60 233.54 L 517.91 238.67 L 519.71 243.61 L 522.01 248.37 L 524.69 252.81 L 527.77 256.95 L 531.27 260.81 L 535.11 264.31 L 539.24 267.41 L 543.67 270.10 L 548.42 272.41 L 553.35 274.24 L 558.48 275.56 L 563.83 276.38 L 569.44 276.69 L 575.05 276.40 L 580.40 275.59 L 585.54 274.29 L 590.47 272.48 L 595.24 270.18 L 599.67 267.50 L 603.81 264.41 L 607.66 260.92 L 611.17 257.07 L 614.26 252.95 L 616.96 248.51 L 619.26 243.76 L 621.09 238.82 L 622.41 233.69 L 623.23 228.34 L 623.54 222.73 L 623.25 217.12 L 622.44 211.76 L 621.14 206.62 L 619.33 201.68 L 617.03 196.92 L 614.35 192.48 L 611.27 188.34 L 607.78 184.49 L 603.93 180.98 L 599.81 177.89 L 595.38 175.19 L 590.62 172.88 L 585.69 171.06 L 580.56 169.73 L 575.21 168.91 L 569.60 168.60 L 563.99 168.89 L 558.64 169.70 L 553.51 171.01 L 548.57 172.82 L 543.81 175.11 L 539.37 177.80 L 535.23 180.88 L 531.38 184.38 L 527.88 188.22 L 524.78 192.35 L 522.08 196.78 L 519.78 201.54 L 517.95 206.47 L 516.63 211.60 L 515.81 216.96 L 515.50 222.57" fill="#25003f" fill-rule="evenodd" group-id="1,2,4" id="Fill-166" node-id="169" stroke-linecap="butt" stroke-width="1" target-height="108.08858" target-width="108.040405" target-x="515.50085" target-y="168.60289"></path><path d="M 658.27 729.91 L 624.88 729.81 L 658.15 562.91 L 577.63 452.78 L 579.25 456.59 L 583.44 466.91 L 589.21 482.12 L 592.34 490.91 L 595.59 500.58 L 598.69 510.48 L 601.59 520.63 L 604.15 530.83 L 606.22 540.66 L 607.31 547.22 L 608.06 553.33 L 608.49 559.01 L 608.55 564.72 L 608.18 569.71 L 607.42 574.06 L 604.70 585.41 L 600.45 603.11 L 595.17 625.11 L 589.34 649.35 L 583.47 673.78 L 578.05 696.35 L 573.56 715.02 L 570.50 727.72 L 569.38 732.41 L 535.74 732.41 L 555.03 563.07 L 553.63 559.57 L 549.89 550.09 L 544.46 536.21 L 538.01 519.48 L 531.23 501.47 L 524.77 483.74 L 519.30 467.85 L 517.07 460.82 L 515.50 455.37 L 513.77 447.95 L 512.57 441.23 L 511.85 435.15 L 511.35 426.26 L 511.45 419.25 L 511.96 412.91 L 512.53 408.84 L 513.29 405.10 L 611.04 405.10 L 614.04 407.95 L 621.91 415.98 L 626.95 421.47 L 632.95 428.38 L 639.02 435.82 L 645.48 444.36 L 651.72 453.36 L 657.80 463.12 L 667.56 479.30 L 675.94 492.58 L 690.58 515.19 L 696.60 524.94 L 701.25 533.32 L 703.90 538.90 L 705.96 544.24 L 707.47 549.35 L 708.47 554.57 L 708.91 560.00 L 708.78 565.66 L 707.95 572.54 L 706.27 581.56 L 704.07 591.11 L 701.21 602.11 L 698.01 613.44 L 694.37 625.57 L 686.50 650.20 L 678.36 674.25 L 670.71 695.99 L 664.30 713.68 L 659.90 725.56 L 658.27 729.91" fill="#272636" fill-rule="evenodd" group-id="1,2,4" id="Fill-167" node-id="170" stroke-linecap="butt" stroke-width="1" target-height="327.3059" target-width="197.56519" target-x="511.34595" target-y="405.10248"></path><path d="M 633.40 159.73 L 633.12 163.71 L 632.35 167.46 L 631.11 171.02 L 629.41 174.38 L 627.34 177.45 L 624.88 180.23 L 622.09 182.68 L 619.02 184.75 L 615.65 186.44 L 612.09 187.67 L 608.34 188.43 L 604.36 188.70 L 600.37 188.42 L 596.62 187.65 L 593.07 186.40 L 589.71 184.70 L 586.65 182.63 L 583.86 180.17 L 581.41 177.38 L 579.35 174.31 L 577.66 170.94 L 576.42 167.38 L 575.67 163.63 L 575.40 159.64 L 575.68 155.65 L 576.45 151.90 L 577.69 148.35 L 579.39 144.98 L 581.46 141.92 L 583.92 139.13 L 586.71 136.68 L 589.78 134.62 L 593.15 132.93 L 596.71 131.69 L 600.46 130.94 L 604.44 130.67 L 608.43 130.95 L 612.18 131.72 L 615.73 132.96 L 619.09 134.66 L 622.15 136.74 L 624.94 139.20 L 627.39 141.99 L 629.45 145.06 L 631.14 148.43 L 632.38 151.99 L 633.13 155.74 L 633.40 159.73" fill="#25003f" fill-rule="evenodd" group-id="1,2,4" id="Fill-168" node-id="171" stroke-linecap="butt" stroke-width="1" target-height="58.03203" target-width="58.005066" target-x="575.397" target-y="130.66693"></path><path d="M 623.54 226.51 L 623.43 297.64 L 515.39 297.48 L 515.50 226.35 Z" fill="#25003f" fill-rule="evenodd" group-id="1,2,4" id="Fill-169" node-id="172" stroke-linecap="butt" stroke-width="1" target-height="71.29169" target-width="108.145935" target-x="515.3895" target-y="226.34674"></path><path d="M 646.28 353.03 L 611.02 374.14 L 606.20 343.19 L 607.27 343.22 L 609.66 343.60 L 610.98 344.05 L 612.17 344.73 L 613.08 345.70 L 613.58 347.04 L 613.61 348.02 L 613.35 349.29 L 612.68 350.93 L 608.76 358.91 L 607.38 362.26 L 606.45 365.21 L 605.88 368.17 L 605.68 371.33 L 605.83 374.65 L 606.37 378.78 L 608.46 389.09 L 609.23 393.05 L 610.17 398.44 L 610.97 403.20 L 611.31 405.25 L 513.56 405.25 L 514.13 402.39 L 514.92 399.25 L 516.45 394.20 L 518.44 388.58 L 521.45 381.22 L 525.09 373.43 L 530.05 364.03 L 532.43 359.80 L 535.50 354.35 L 538.15 349.65 L 539.28 347.65 L 507.65 349.01 L 507.89 345.62 L 508.92 336.81 L 509.85 331.16 L 511.23 324.57 L 512.99 317.85 L 515.29 310.91 L 517.12 306.36 L 519.22 302.00 L 521.59 297.84 L 524.30 293.90 L 527.31 290.42 L 530.62 287.35 L 533.77 284.96 L 536.75 283.03 L 539.58 281.49 L 542.54 280.21 L 545.64 279.18 L 548.90 278.41 L 554.02 277.65 L 560.20 277.22 L 575.11 277.03 L 582.77 277.11 L 588.30 277.31 L 593.24 277.78 L 596.92 278.49 L 600.25 279.61 L 603.29 281.18 L 606.23 283.18 L 609.73 285.98 L 612.96 288.99 L 616.19 292.58 L 619.44 296.80 L 623.92 303.51 L 628.17 310.86 L 632.09 318.42 L 635.57 325.83 L 638.74 333.11 L 641.29 339.39 L 644.97 349.23 L 646.28 353.03" fill="#ffc100" fill-rule="evenodd" group-id="1,2,4" id="Fill-170" node-id="173" stroke-linecap="butt" stroke-width="1" target-height="128.21118" target-width="138.626" target-x="507.65488" target-y="277.0346"></path><path d="M 585.30 309.77 L 580.22 309.49 L 575.75 308.73 L 571.83 307.52 L 568.37 305.90 L 565.32 303.88 L 562.64 301.44 L 560.30 298.56 L 558.29 295.18 L 556.61 291.23 L 554.29 284.27 L 552.63 278.89 L 551.99 276.69 L 551.48 274.88 L 553.36 274.91 L 554.48 274.92 L 557.34 274.93 L 562.24 274.89 L 567.25 274.72 L 568.18 274.69 L 571.58 274.99 L 574.87 275.73 L 577.96 276.75 L 580.28 277.69 L 582.68 278.84 L 584.47 280.02 L 586.15 281.32 L 588.46 283.45 L 590.76 286.00 L 593.27 289.43 L 594.91 292.34 L 595.99 295.05 L 596.59 297.59 L 596.73 300.17 L 596.38 302.48 L 595.55 304.58 L 594.49 306.12 L 593.17 307.40 L 591.56 308.42 L 589.78 309.14 L 587.74 309.60 L 585.38 309.77 L 585.30 309.77 Z" fill="#ff77ca" fill-rule="evenodd" group-id="1,2,4" id="Fill-171" node-id="174" stroke-linecap="butt" stroke-width="1" target-height="35.07251" target-width="45.254333" target-x="551.4765" target-y="274.69348"></path><path d="M 568.18 273.29 L 568.18 273.29 L 567.17 273.32 L 562.21 273.49 L 557.35 273.53 L 554.51 273.52 L 553.38 273.51 L 549.62 273.45 L 550.64 277.07 L 551.29 279.28 L 552.96 284.69 L 555.29 291.70 L 556.87 295.45 L 558.75 298.74 L 560.95 301.60 L 563.45 304.08 L 566.28 306.21 L 569.35 307.92 L 572.73 309.29 L 576.49 310.30 L 580.66 310.94 L 585.30 311.17 L 585.38 311.17 L 588.00 310.98 L 590.29 310.46 L 592.28 309.63 L 594.09 308.46 L 595.57 307.01 L 596.78 305.24 L 597.71 302.90 L 598.12 300.35 L 597.99 297.53 L 597.36 294.75 L 596.20 291.81 L 594.44 288.67 L 591.83 285.10 L 589.42 282.44 L 587.00 280.22 L 585.24 278.85 L 583.36 277.62 L 581.84 276.87 L 578.30 275.39 L 576.06 274.63 L 573.50 273.94 L 570.85 273.47 L 568.18 273.29 M 568.18 276.09 L 570.63 276.26 L 573.07 276.72 L 575.44 277.37 L 577.52 278.08 L 580.76 279.45 L 582.01 280.08 L 583.60 281.12 L 585.19 282.35 L 587.42 284.40 L 589.65 286.86 L 592.09 290.19 L 593.94 293.59 L 594.97 296.58 L 595.33 299.23 L 595.20 301.25 L 594.74 302.99 L 593.96 304.50 L 592.85 305.81 L 591.50 306.85 L 589.85 307.64 L 587.83 308.15 L 585.37 308.37 L 585.30 308.37 L 581.36 308.20 L 577.34 307.63 L 573.40 306.58 L 569.60 304.95 L 567.23 303.52 L 564.99 301.74 L 562.87 299.57 L 561.04 297.16 L 559.39 294.24 L 557.93 290.77 L 555.61 283.79 L 553.96 278.44 L 553.34 276.31 L 554.47 276.32 L 557.35 276.33 L 562.32 276.29 L 567.33 276.12 L 568.18 276.09" fill="#924e08" fill-rule="evenodd" group-id="1,2,4" id="Fill-172" node-id="175" stroke-linecap="butt" stroke-width="1" target-height="37.872864" target-width="48.505554" target-x="549.6162" target-y="273.29352"></path><path d="M 582.19 249.53 L 581.04 252.00 L 580.49 254.58 L 580.43 257.21 L 580.75 259.72 L 581.37 262.10 L 582.13 264.04 L 583.04 266.40 L 584.53 270.41 L 586.02 274.27 L 586.92 276.19 L 587.02 276.50 L 586.79 276.97 L 585.90 277.79 L 584.26 278.91 L 581.76 280.37 L 575.96 283.37 L 569.99 286.21 L 565.33 288.34 L 563.44 289.17 L 561.75 268.12 L 557.97 268.25 L 554.10 268.20 L 550.27 267.89 L 546.75 267.30 L 543.48 266.31 L 540.86 264.97 L 538.65 263.21 L 536.63 261.08 L 534.81 258.55 L 532.53 254.39 L 530.64 249.74 L 529.15 244.90 L 528.02 240.07 L 527.17 235.29 L 526.61 231.05 L 526.06 224.20 L 526.03 221.04 L 537.96 207.68 L 539.85 206.85 L 544.47 204.98 L 550.21 203.06 L 553.10 202.36 L 555.48 202.04 L 557.00 202.08 L 558.02 202.39 L 558.69 202.90 L 559.98 204.79 L 561.71 207.76 L 565.57 214.84 L 570.00 222.62 L 572.38 226.37 L 574.71 229.60 L 577.20 232.40 L 579.44 234.23 L 581.05 235.03 L 582.51 235.27 L 583.91 235.02 L 583.86 233.61 L 583.96 232.23 L 584.31 230.52 L 585.00 228.88 L 586.17 227.43 L 587.19 226.72 L 588.54 226.24 L 590.35 226.03 L 592.16 226.22 L 593.58 226.65 L 594.68 227.29 L 596.02 228.62 L 596.86 230.13 L 597.33 231.74 L 597.45 233.12 L 597.20 235.21 L 596.59 236.98 L 595.62 238.49 L 593.69 240.47 L 591.30 242.23 L 586.24 245.52 L 583.96 247.38 L 582.19 249.53" fill="#ff77ca" fill-rule="evenodd" group-id="1,2,4" id="Fill-173" node-id="176" stroke-linecap="butt" stroke-width="1" target-height="87.12842" target-width="71.429504" target-x="526.0254" target-y="202.04199"></path><path d="M 537.38 234.87 L 535.68 248.83 L 541.64 247.05 Z" fill="#285fd7" fill-rule="evenodd" group-id="1,2,4" id="Fill-174" node-id="177" stroke-linecap="butt" stroke-width="1" target-height="13.965424" target-width="5.962097" target-x="535.6784" target-y="234.8675"></path><path d="M 542.54 232.53 L 543.15 234.33 L 544.08 235.62 L 544.88 236.25 L 545.69 236.54 L 546.54 236.55 L 547.32 236.22 L 547.96 235.64 L 548.48 234.76 L 548.87 233.20 L 548.77 231.31 L 548.16 229.51 L 547.24 228.21 L 546.43 227.59 L 545.63 227.30 L 544.78 227.29 L 543.99 227.62 L 543.35 228.20 L 542.83 229.08 L 542.45 230.63 L 542.54 232.53" fill="#0b096f" fill-rule="evenodd" group-id="1,2,4" id="Fill-175" node-id="178" stroke-linecap="butt" stroke-width="1" target-height="9.255203" target-width="6.4173584" target-x="542.44946" target-y="227.29152"></path><path d="M 528.57 236.73 L 529.18 238.53 L 530.10 239.82 L 530.91 240.44 L 531.72 240.74 L 532.56 240.74 L 533.35 240.42 L 533.99 239.84 L 534.51 238.95 L 534.89 237.40 L 534.80 235.50 L 534.19 233.70 L 533.26 232.41 L 532.46 231.79 L 531.65 231.49 L 530.80 231.49 L 530.02 231.81 L 529.38 232.39 L 528.86 233.28 L 528.48 234.83 L 528.57 236.73" fill="#0b096f" fill-rule="evenodd" group-id="1,2,4" id="Fill-176" node-id="179" stroke-linecap="butt" stroke-width="1" target-height="9.254501" target-width="6.4171143" target-x="528.47577" target-y="231.48766"></path><path d="M 545.65 203.95 L 545.16 207.51 L 544.32 210.86 L 543.14 214.03 L 542.58 215.20 L 540.42 218.92 L 537.82 222.23 L 535.11 224.86 L 532.14 227.07 L 528.89 228.89 L 525.44 230.26 L 521.82 231.13 L 518.01 231.51 L 516.84 231.51 L 517.72 220.61 L 517.72 220.61 L 517.80 219.60 L 518.42 214.55 L 519.41 209.73 L 520.76 205.11 L 522.47 200.68 L 524.54 196.37 L 526.89 192.33 L 529.52 188.54 L 532.45 184.98 L 534.80 182.50 L 537.29 180.19 L 539.61 182.89 L 541.61 185.90 L 543.25 189.14 L 544.50 192.62 L 545.34 196.23 L 545.72 199.99 L 545.65 203.95" fill="#25003f" fill-rule="evenodd" group-id="1,2,4" id="Fill-177" node-id="180" stroke-linecap="butt" stroke-width="1" target-height="51.325775" target-width="28.88684" target-x="516.8364" target-y="180.18777"></path><path d="M 583.95 206.90 L 583.68 209.46 L 582.96 211.87 L 581.75 214.18 L 580.17 216.26 L 578.21 218.16 L 575.84 219.88 L 573.26 221.29 L 570.39 222.43 L 567.21 223.29 L 564.87 223.68 L 560.93 223.93 L 556.70 223.63 L 552.85 222.84 L 549.33 221.58 L 546.03 219.84 L 543.31 217.80 L 541.09 215.45 L 539.73 213.44 L 538.77 211.35 L 538.18 209.16 L 537.96 206.83 L 538.25 204.17 L 539.10 201.55 L 540.46 199.11 L 542.36 196.81 L 544.62 194.84 L 547.27 193.14 L 550.37 191.70 L 553.63 190.67 L 557.15 190.03 L 560.98 189.80 L 565.17 190.09 L 568.99 190.87 L 572.48 192.10 L 575.76 193.82 L 578.48 195.83 L 580.71 198.14 L 582.08 200.12 L 583.06 202.17 L 583.68 204.34 L 583.94 206.63 L 583.95 206.90" fill="#25003f" fill-rule="evenodd" group-id="1,2,4" id="Fill-178" node-id="181" stroke-linecap="butt" stroke-width="1" target-height="34.132324" target-width="45.99054" target-x="537.9598" target-y="189.79712"></path><path d="M 543.07 251.72 L 544.11 251.81 L 545.13 251.73 L 546.45 251.37 L 547.70 250.67 L 548.95 249.37 L 549.58 248.29 L 550.10 246.78 L 550.47 244.73" fill="none" group-id="1,2,4" id="Stroke-179" node-id="182" stroke="#0c245f" stroke-linecap="butt" stroke-width="2.1" target-height="7.070984" target-width="7.392456" target-x="543.0741" target-y="244.73492"></path><path d="M 561.75 268.12 L 563.27 268.13 L 566.93 267.98 L 571.34 267.43 L 573.45 266.90 L 575.11 266.21 L 562.24 274.29 L 561.75 268.12 Z" fill="#ef3c86" fill-rule="evenodd" group-id="1,2,4" id="Fill-180" node-id="183" stroke-linecap="butt" stroke-width="1" target-height="8.081177" target-width="13.363586" target-x="561.74554" target-y="266.2107"></path><path d="M 550.03 276.56 L 551.72 276.54 L 556.25 276.69 L 560.20 276.93 L 562.02 277.02 L 562.46 277.03 L 561.84 269.35 L 547.60 271.23 L 550.03 276.56 Z" fill="#25003f" fill-rule="evenodd" group-id="1,2,4" id="Fill-181" node-id="184" stroke-linecap="butt" stroke-width="1" target-height="7.6877136" target-width="14.866699" target-x="547.59814" target-y="269.34677"></path><path d="M 623.56 738.70 L 660.59 738.65 L 660.58 729.21 L 623.54 729.26 Z" fill="#272636" fill-rule="evenodd" group-id="1,2,4" id="Fill-182" node-id="185" stroke-linecap="butt" stroke-width="1" target-height="9.491821" target-width="37.048157" target-x="623.544" target-y="729.20953"></path><path d="M 532.79 738.70 L 571.13 738.65 L 571.78 729.21 L 533.43 729.26 Z" fill="#272636" fill-rule="evenodd" group-id="1,2,4" id="Fill-183" node-id="186" stroke-linecap="butt" stroke-width="1" target-height="9.494629" target-width="38.988647" target-x="532.7876" target-y="729.20807"></path><path d="M 602.44 319.44 L 580.34 319.41 L 580.44 255.22 L 623.49 255.29 L 623.43 298.50 L 623.21 301.41 L 622.66 304.12 L 621.77 306.67 L 620.55 309.08 L 618.46 312.02 L 615.96 314.51 L 613.02 316.59 L 610.61 317.81 L 608.05 318.69 L 605.34 319.24 L 602.44 319.44" fill="#25003f" fill-rule="evenodd" group-id="1,2,4" id="Fill-184" node-id="187" stroke-linecap="butt" stroke-width="1" target-height="64.21869" target-width="43.152283" target-x="580.33954" target-y="255.22214"></path><path d="M 607.65 358.87 L 608.72 356.79 L 609.72 354.58 L 610.96 351.36 L 612.04 347.84 L 612.92 343.78 L 613.35 339.58 L 613.17 335.26" fill="none" group-id="1,2,4" id="Stroke-185" node-id="188" stroke="#ff9a0f" stroke-linecap="butt" stroke-width="2.1" target-height="23.61267" target-width="5.694214" target-x="607.65247" target-y="335.26154"></path><path d="M 589.24 455.22 L 599.48 443.32 L 549.47 394.59 L 551.50 348.70 L 516.03 351.70 L 516.25 354.82 L 516.93 362.84 L 518.09 373.74 L 519.73 385.54 L 520.77 391.27 L 521.89 396.21 L 523.25 400.72 L 524.58 403.75 L 526.23 406.33 L 528.48 409.22 L 531.41 412.45 L 536.20 417.09 L 541.92 422.08 L 547.97 426.95 L 554.37 431.81 L 567.04 440.81 L 578.23 448.27 L 586.20 453.35 L 589.24 455.22" fill="#ff77ca" fill-rule="evenodd" group-id="1,2,4" id="Fill-186" node-id="189" stroke-linecap="butt" stroke-width="1" target-height="106.520935" target-width="83.457214" target-x="516.02576" target-y="348.70233"></path><path d="M 515.67 348.70 L 551.79 347.09 L 551.39 351.25 L 516.74 360.80 Z" fill="#da327c" fill-rule="evenodd" group-id="1,2,4" id="Fill-187" node-id="190" stroke-linecap="butt" stroke-width="1" target-height="13.714783" target-width="36.12024" target-x="515.6742" target-y="347.08517"></path><path d="M 744.79 298.39 L 744.45 307.87 L 743.50 317.01 L 741.96 325.84 L 739.84 334.39 L 737.11 342.83 L 733.91 350.84 L 730.22 358.44 L 726.06 365.66 L 721.36 372.59 L 716.30 379.00 L 710.86 384.90 L 705.05 390.31 L 700.07 394.32 L 694.93 397.93 L 689.61 401.16 L 684.10 404.00 L 678.40 406.48 L 672.55 408.54 L 666.57 410.14 L 660.45 411.31 L 654.17 412.02 L 647.72 412.28 L 641.26 412.02 L 634.99 411.31 L 628.87 410.14 L 622.89 408.54 L 617.04 406.48 L 611.33 404.00 L 605.83 401.16 L 600.51 397.93 L 595.37 394.32 L 590.39 390.31 L 584.57 384.90 L 579.14 379.00 L 574.07 372.59 L 569.38 365.66 L 565.21 358.44 L 561.53 350.84 L 558.32 342.83 L 555.60 334.39 L 553.48 325.84 L 551.94 317.01 L 550.99 307.87 L 550.65 298.39 L 550.99 288.92 L 551.94 279.77 L 553.48 270.94 L 555.60 262.40 L 558.32 253.95 L 561.53 245.95 L 565.21 238.35 L 569.38 231.13 L 574.07 224.19 L 579.14 217.79 L 584.57 211.89 L 590.39 206.48 L 595.37 202.47 L 600.51 198.85 L 605.83 195.63 L 611.33 192.78 L 617.04 190.31 L 622.89 188.25 L 628.87 186.64 L 634.99 185.48 L 641.26 184.77 L 647.72 184.50 L 654.17 184.77 L 660.45 185.48 L 666.57 186.64 L 672.55 188.25 L 678.40 190.31 L 684.10 192.78 L 689.61 195.63 L 694.93 198.85 L 700.07 202.47 L 705.05 206.48 L 710.86 211.89 L 716.30 217.79 L 721.36 224.19 L 726.06 231.13 L 730.22 238.35 L 733.91 245.95 L 737.11 253.95 L 739.84 262.40 L 741.96 270.94 L 743.50 279.77 L 744.45 288.92 L 744.79 298.39" fill="#00a164" fill-rule="evenodd" group-id="1,2,4" id="Fill-188" node-id="191" stroke-linecap="butt" stroke-width="1" target-height="227.77884" target-width="194.14258" target-x="550.6466" target-y="184.50455"></path><path d="M 668.75 468.92 L 625.43 468.92 L 621.32 468.63 L 617.43 467.84 L 613.75 466.55 L 610.26 464.78 L 607.07 462.63 L 604.18 460.08 L 601.62 457.18 L 599.47 454.00 L 597.71 450.50 L 596.42 446.82 L 595.62 442.93 L 595.34 438.81 L 595.34 394.92 L 698.84 394.92 L 698.84 438.81 L 698.56 442.93 L 697.76 446.82 L 696.47 450.50 L 694.71 454.00 L 692.56 457.18 L 690.00 460.08 L 687.10 462.63 L 683.92 464.78 L 680.43 466.55 L 676.75 467.84 L 672.86 468.63 L 668.75 468.92" fill="#285fd7" fill-rule="evenodd" group-id="1,2,4" id="Fill-189" node-id="192" stroke-linecap="butt" stroke-width="1" target-height="74.00244" target-width="103.50714" target-x="595.33624" target-y="394.9204"></path><path d="M 593.49 439.47 L 609.51 440.71 L 611.65 441.32 L 616.52 443.02 L 619.69 444.30 L 621.19 444.79 L 623.06 445.22 L 625.17 445.53 L 628.30 445.77 L 629.76 446.06 L 630.49 446.50 L 630.78 447.06 L 630.68 448.12 L 629.90 449.37 L 628.71 450.42 L 627.30 451.15 L 626.01 451.31 L 623.96 451.15 L 619.44 450.44 L 617.17 450.19 L 615.43 450.21 L 614.43 450.46 L 613.87 450.92 L 613.62 451.63 L 613.80 453.57 L 614.70 456.34 L 616.20 459.12 L 618.53 462.07 L 620.40 463.81 L 622.67 465.37 L 625.37 466.75 L 625.72 467.09 L 625.91 467.89 L 625.76 468.82 L 625.09 470.03 L 623.96 471.13 L 621.85 472.32 L 619.23 473.19 L 615.14 473.88 L 612.09 473.91 L 608.62 473.42 L 605.20 472.51 L 602.15 471.29 L 600.26 470.25 L 598.91 469.21 L 597.99 468.18 L 596.92 466.65 L 594.38 462.99 L 591.36 458.60 L 588.87 454.86 L 588.45 453.88 L 588.36 452.92 L 588.59 451.93 L 589.29 450.44 L 590.38 448.68 L 591.51 446.83 L 592.57 444.67 L 593.28 442.31 L 593.49 439.47" fill="#ff77ca" fill-rule="evenodd" group-id="1,2,4" id="Fill-190" node-id="193" stroke-linecap="butt" stroke-width="1" target-height="34.435486" target-width="42.428894" target-x="588.35596" target-y="439.47052"></path><path d="M 643.95 192.75 L 647.28 170.94" fill="none" group-id="1,2,4" id="Stroke-191" node-id="194" stroke="#23426f" stroke-linecap="butt" stroke-width="3.5" target-height="21.812729" target-width="3.324646" target-x="643.95264" target-y="170.9416"></path><path d="M 669.24 307.56 L 692.51 298.18" fill="none" group-id="1,2,4" id="Stroke-192" node-id="195" stroke="#23426f" stroke-linecap="butt" stroke-width="3.5" target-height="9.381226" target-width="23.273132" target-x="669.2374" target-y="298.17987"></path><path d="M 626.90 258.91 L 643.74 242.25" fill="none" group-id="1,2,4" id="Stroke-193" node-id="196" stroke="#23426f" stroke-linecap="butt" stroke-width="3.5" target-height="16.66217" target-width="16.83728" target-x="626.8977" target-y="242.2508"></path><path d="M 569.74 320.50 L 545.99 325.53" fill="none" group-id="1,2,4" id="Stroke-194" node-id="197" stroke="#23426f" stroke-linecap="butt" stroke-width="3.5" target-height="5.0343323" target-width="23.747498" target-x="545.98975" target-y="320.5005"></path><path d="M 607.65 276.09 L 586.78 259.14" fill="none" group-id="1,2,4" id="Stroke-195" node-id="198" stroke="#23426f" stroke-linecap="butt" stroke-width="3.5" target-height="16.955536" target-width="20.874939" target-x="586.7775" target-y="259.13837"></path><path d="M 729.00 254.82 L 743.25 236.37" fill="none" group-id="1,2,4" id="Stroke-196" node-id="199" stroke="#23426f" stroke-linecap="butt" stroke-width="3.5" target-height="18.450897" target-width="14.248108" target-x="728.9985" target-y="236.37332"></path><path d="M 719.28 351.99 L 743.51 360.33" fill="none" group-id="1,2,4" id="Stroke-197" node-id="200" stroke="#23426f" stroke-linecap="butt" stroke-width="3.5" target-height="8.342285" target-width="24.237366" target-x="719.2761" target-y="351.98712"></path><path d="M 603.21 211.60 L 583.31 189.66" fill="none" group-id="1,2,4" id="Stroke-198" node-id="201" stroke="#ffffff" stroke-linecap="butt" stroke-width="3.5" target-height="21.941559" target-width="19.901611" target-x="583.30554" target-y="189.65643"></path><path d="M 677.80 254.45 L 694.26 237.09" fill="none" group-id="1,2,4" id="Stroke-199" node-id="202" stroke="#ffffff" stroke-linecap="butt" stroke-width="3.5" target-height="17.354553" target-width="16.46637" target-x="677.79535" target-y="237.09329"></path><path d="M 681.39 360.33 L 657.47 360.33" fill="none" group-id="1,2,4" id="Stroke-200" node-id="203" stroke="#ffffff" stroke-linecap="butt" stroke-width="3.5" target-height="0" target-width="23.917542" target-x="657.473" target-y="360.32916"></path><path d="M 541.54 276.59 L 565.14 284.54" fill="none" group-id="1,2,4" id="Stroke-201" node-id="204" stroke="#ffffff" stroke-linecap="butt" stroke-width="3.5" target-height="7.955139" target-width="23.600586" target-x="541.5365" target-y="276.58585"></path><path d="M 614.12 330.27 L 612.61 352.01" fill="none" group-id="1,2,4" id="Stroke-202" node-id="205" stroke="#ffffff" stroke-linecap="butt" stroke-width="3.5" target-height="21.742737" target-width="1.5023804" target-x="612.6148" target-y="330.26794"></path><path d="M 589.46 371.00 L 571.75 383.70" fill="none" group-id="1,2,4" id="Stroke-203" node-id="206" stroke="#ffffff" stroke-linecap="butt" stroke-width="3.5" target-height="12.696869" target-width="17.705688" target-x="571.7521" target-y="370.99866"></path><path d="M 595.34 411.26 L 698.84 411.26" fill="none" group-id="1,2,4" id="Stroke-204" node-id="207" stroke="#aad5ff" stroke-linecap="butt" stroke-width="6.3" target-height="0" target-width="103.50708" target-x="595.3361" target-y="411.26007"></path><path d="M 595.34 429.84 L 698.84 429.84" fill="none" group-id="1,2,4" id="Stroke-205" node-id="208" stroke="#aad5ff" stroke-linecap="butt" stroke-width="6.3" target-height="0" target-width="103.50708" target-x="595.3361" target-y="429.83954"></path><path d="M 677.99 428.36 L 678.13 429.85 L 678.66 431.46 L 679.66 433.24 L 681.60 435.74 L 684.15 438.31 L 686.97 440.71 L 689.87 442.86 L 692.79 444.78 L 695.21 446.17 L 697.44 447.21 L 698.55 447.51 L 699.50 447.36 L 700.45 446.83 L 701.44 445.81 L 702.63 443.85 L 703.72 441.01 L 704.47 437.86 L 704.91 434.14 L 704.94 430.39 L 704.60 427.17 L 703.88 424.21 L 702.95 422.12 L 702.09 420.98 L 701.22 420.33 L 700.30 420.07 L 696.86 420.13 L 691.28 420.72 L 688.19 421.30 L 685.18 422.11 L 682.38 423.22 L 680.21 424.57 L 679.05 425.70 L 678.33 426.95 L 677.99 428.36" fill="#ff77ca" fill-rule="evenodd" group-id="1,2,4" id="Fill-206" node-id="209" stroke-linecap="butt" stroke-width="1" target-height="27.43518" target-width="26.947815" target-x="677.9948" target-y="420.07135"></path><path d="M 782.99 524.30 L 754.81 524.30 L 752.90 524.12 L 751.16 523.64 L 749.54 522.87 L 748.07 521.83 L 746.83 520.59 L 745.79 519.12 L 745.02 517.50 L 744.54 515.76 L 744.37 513.85 L 744.37 463.52 L 793.44 463.52 L 793.44 513.85 L 793.26 515.76 L 792.78 517.50 L 792.01 519.12 L 790.97 520.59 L 789.73 521.83 L 788.26 522.87 L 786.65 523.64 L 784.90 524.12 L 782.99 524.30" fill="#f38c01" fill-rule="evenodd" group-id="1,2,4" id="Fill-207" node-id="210" stroke-linecap="butt" stroke-width="1" target-height="60.779846" target-width="49.06958" target-x="744.367" target-y="463.51794"></path><path d="M 745.65 507.18 L 742.95 506.92 L 740.47 506.25 L 738.18 505.15 L 736.10 503.68 L 734.34 501.92 L 732.87 499.84 L 731.77 497.54 L 731.10 495.06 L 730.85 492.36 L 731.10 489.66 L 731.77 487.18 L 732.87 484.88 L 734.34 482.80 L 736.10 481.04 L 738.18 479.57 L 740.47 478.47 L 742.95 477.80 L 745.65 477.54" fill="none" group-id="1,2,4" id="Stroke-208" node-id="211" stroke="#f38c01" stroke-linecap="butt" stroke-width="4.9" target-height="29.631348" target-width="14.809326" target-x="730.8457" target-y="477.5443"></path><path d="M 830.20 477.60 L 828.19 479.30 L 826.09 480.58 L 823.87 481.48 L 821.54 482.01 L 819.27 482.14 L 817.03 481.89 L 814.89 481.25 L 812.93 480.21 L 811.13 478.75 L 809.68 476.95 L 808.64 475.00 L 807.99 472.85 L 807.74 470.61 L 807.88 468.34 L 808.41 466.01 L 809.31 463.79 L 810.59 461.69 L 812.29 459.68" fill="#f38c01" fill-rule="evenodd" group-id="1,2,4" id="Fill-209" node-id="212" stroke-linecap="butt" stroke-width="1" target-height="22.465271" target-width="22.454956" target-x="807.7422" target-y="459.67926"></path><path d="M 820.00 477.51 L 786.56 510.97 L 778.93 503.33 L 812.37 469.88 Z" fill="#f38c01" fill-rule="evenodd" group-id="1,2,4" id="Fill-210" node-id="213" stroke-linecap="butt" stroke-width="1" target-height="41.091125" target-width="41.07251" target-x="778.9308" target-y="469.87787"></path><path d="M 779.60 496.74 L 780.30 497.71 L 780.70 498.73 L 780.83 499.85 L 780.68 500.96 L 780.25 501.98 L 779.53 502.94 L 778.57 503.66 L 777.55 504.08 L 776.44 504.23 L 775.33 504.11 L 774.30 503.71 L 773.33 503.01 L 773.14 504.19 L 772.70 505.20 L 772.00 506.07 L 771.11 506.75 L 770.09 507.17 L 768.90 507.34 L 767.72 507.17 L 766.69 506.75 L 765.80 506.07 L 765.10 505.20 L 764.66 504.19 L 764.47 503.01 L 763.50 503.71 L 762.47 504.11 L 761.36 504.23 L 760.25 504.08 L 759.23 503.66 L 758.27 502.94 L 757.55 501.98 L 757.12 500.96 L 756.97 499.85 L 757.10 498.73 L 757.50 497.71 L 758.20 496.74 L 757.02 496.55 L 756.01 496.10 L 755.13 495.41 L 754.45 494.51 L 754.04 493.49 L 753.87 492.30 L 754.04 491.11 L 754.45 490.09 L 755.13 489.20 L 756.01 488.50 L 757.02 488.06 L 758.20 487.87 L 757.50 486.90 L 757.10 485.87 L 756.97 484.76 L 757.12 483.65 L 757.55 482.63 L 758.27 481.67 L 759.23 480.94 L 760.25 480.52 L 761.36 480.37 L 762.47 480.50 L 763.50 480.90 L 764.47 481.59 L 764.66 480.42 L 765.10 479.41 L 765.80 478.53 L 766.69 477.85 L 767.72 477.43 L 768.90 477.27 L 770.09 477.43 L 771.11 477.85 L 772.00 478.53 L 772.70 479.41 L 773.14 480.42 L 773.33 481.59 L 774.30 480.90 L 775.33 480.50 L 776.44 480.37 L 777.55 480.52 L 778.57 480.94 L 779.53 481.67 L 780.25 482.63 L 780.68 483.65 L 780.83 484.76 L 780.70 485.87 L 780.30 486.90 L 779.60 487.87 L 780.78 488.06 L 781.79 488.50 L 782.67 489.20 L 783.35 490.09 L 783.77 491.11 L 783.93 492.30 L 783.77 493.49 L 783.35 494.51 L 782.67 495.41 L 781.79 496.11 L 780.78 496.55 L 779.60 496.74" fill="#ffc100" fill-rule="evenodd" group-id="1,2,4" id="Fill-211" node-id="214" stroke-linecap="butt" stroke-width="1" target-height="30.071716" target-width="30.062988" target-x="753.8702" target-y="477.26587"></path></g></g></g></svg>