<?xml version="1.0" standalone="no"?><!DOCTYPE svg PUBLIC "-//W3C//DTD SVG 1.1//EN" "http://www.w3.org/Graphics/SVG/1.1/DTD/svg11.dtd"><svg height="800" legacy-metrics="false" node-id="1" sillyvg="true" template-height="800" template-width="800" version="1.1" viewBox="0 0 800 800" width="800" xmlns="http://www.w3.org/2000/svg" xmlns:xlink="http://www.w3.org/1999/xlink"><defs node-id="190"><linearGradient gradientUnits="userSpaceOnUse" id="SVGID_1_" node-id="14" x1="401.7123" x2="401.7123" y1="157.5658" y2="713.0574"><stop offset="0.00000009590021" stop-color="#f4f2fb"></stop><stop offset="1" stop-color="#e1eef5"></stop></linearGradient><linearGradient gradientUnits="userSpaceOnUse" id="SVGID_2_" node-id="19" x1="116.7941" x2="116.7941" y1="537.952" y2="400.7775"><stop offset="0.2267" stop-color="#b7ace0"></stop><stop offset="0.7893" stop-color="#e8e7fa"></stop></linearGradient><linearGradient gradientUnits="userSpaceOnUse" id="SVGID_3_" node-id="24" x1="116.796" x2="116.796" y1="416.0092" y2="567.1425"><stop offset="0" stop-color="#ecf1fb"></stop><stop offset="0.818" stop-color="#afb0e7"></stop></linearGradient><linearGradient gradientUnits="userSpaceOnUse" id="SVGID_4_" node-id="29" x1="617.9229" x2="617.9229" y1="446.4301" y2="358.1056"><stop offset="0.2267" stop-color="#ccd4f4"></stop><stop offset="0.7893" stop-color="#ecf1fb"></stop></linearGradient><linearGradient gradientUnits="userSpaceOnUse" id="SVGID_5_" node-id="34" x1="617.9241" x2="617.9241" y1="367.9131" y2="465.2254"><stop offset="0" stop-color="#ecf1fb"></stop><stop offset="1" stop-color="#a6a8e2"></stop></linearGradient><linearGradient gradientUnits="userSpaceOnUse" id="SVGID_6_" node-id="38" x1="463.841" x2="429.0868" y1="83.8235" y2="144.0197"><stop offset="0" stop-color="#ffdb80"></stop><stop offset="1" stop-color="#ffbb24"></stop></linearGradient><linearGradient gradientUnits="userSpaceOnUse" id="SVGID_7_" node-id="42" x1="421.5038" x2="421.5038" y1="114.2897" y2="171.7437"><stop offset="0" stop-color="#f9fafe"></stop><stop offset="1" stop-color="#e5edf7"></stop></linearGradient><linearGradient gradientUnits="userSpaceOnUse" id="SVGID_8_" node-id="47" x1="688.5253" x2="688.5253" y1="535.6702" y2="507.842"><stop offset="0.2267" stop-color="#afb0e7"></stop><stop offset="1" stop-color="#ecf1fb"></stop></linearGradient><linearGradient gradientUnits="userSpaceOnUse" id="SVGID_9_" node-id="51" x1="688.5743" x2="688.5743" y1="511.3557" y2="556.1516"><stop offset="0.00000009590021" stop-color="#dde1f6"></stop><stop offset="0.818" stop-color="#a6a8e2"></stop></linearGradient><linearGradient gradientTransform="matrix(0.9572 0.2893 -0.2893 0.9572 261.1283 -748.8867)" gradientUnits="userSpaceOnUse" id="SVGID_10_" node-id="56" x1="489.0597" x2="514.9477" y1="847.7445" y2="802.9051"><stop offset="0.15" stop-color="#acc5ea"></stop><stop offset="1" stop-color="#e9e3f8"></stop></linearGradient><linearGradient gradientTransform="matrix(0.9572 0.2893 -0.2893 0.9572 261.1283 -748.8867)" gradientUnits="userSpaceOnUse" id="SVGID_11_" node-id="60" x1="561.3652" x2="430.9503" y1="854.0781" y2="929.3731"><stop offset="0.2267" stop-color="#ccd4f4"></stop><stop offset="0.7893" stop-color="#ecf1fb"></stop></linearGradient><linearGradient gradientTransform="matrix(0.9572 0.2893 -0.2893 0.9572 261.1283 -748.8867)" gradientUnits="userSpaceOnUse" id="SVGID_12_" node-id="65" x1="649.2112" x2="359.9711" y1="942.2253" y2="942.2253"><stop offset="0.1157" stop-color="#ced3f4"></stop><stop offset="0.8472" stop-color="#c6d5f4"></stop></linearGradient><linearGradient gradientTransform="matrix(0.9572 0.2893 -0.2893 0.9572 261.1283 -748.8867)" gradientUnits="userSpaceOnUse" id="SVGID_13_" node-id="69" x1="513.6176" x2="513.6176" y1="957.7954" y2="1256.2766"><stop offset="0" stop-color="#cdd4f5"></stop><stop offset="1" stop-color="#e8eff8"></stop></linearGradient><linearGradient gradientTransform="matrix(0.9572 0.2893 -0.2893 0.9572 261.1283 -748.8867)" gradientUnits="userSpaceOnUse" id="SVGID_14_" node-id="74" x1="381.2797" x2="413.0005" y1="944.5257" y2="944.5257"><stop offset="0" stop-color="#c8cbf2"></stop><stop offset="1" stop-color="#afb0e7"></stop></linearGradient><linearGradient gradientTransform="matrix(0.9572 0.2893 -0.2893 0.9572 261.1283 -748.8867)" gradientUnits="userSpaceOnUse" id="SVGID_15_" node-id="79" x1="413.4847" x2="445.2055" y1="913.5314" y2="913.5314"><stop offset="0" stop-color="#c8cbf2"></stop><stop offset="1" stop-color="#afb0e7"></stop></linearGradient><linearGradient gradientTransform="matrix(0.9572 0.2893 -0.2893 0.9572 261.1283 -748.8867)" gradientUnits="userSpaceOnUse" id="SVGID_16_" node-id="84" x1="486.4909" x2="518.2117" y1="899.5476" y2="899.5476"><stop offset="0" stop-color="#c8cbf2"></stop><stop offset="1" stop-color="#afb0e7"></stop></linearGradient><linearGradient gradientTransform="matrix(0.9572 0.2893 -0.2893 0.9572 261.1283 -748.8867)" gradientUnits="userSpaceOnUse" id="SVGID_17_" node-id="89" x1="560.5767" x2="592.2974" y1="910.4289" y2="910.4289"><stop offset="0" stop-color="#c8cbf2"></stop><stop offset="1" stop-color="#afb0e7"></stop></linearGradient><linearGradient gradientTransform="matrix(0.9572 0.2893 -0.2893 0.9572 261.1283 -748.8867)" gradientUnits="userSpaceOnUse" id="SVGID_18_" node-id="94" x1="600.3487" x2="632.0695" y1="941.842" y2="941.842"><stop offset="0" stop-color="#c8cbf2"></stop><stop offset="1" stop-color="#afb0e7"></stop></linearGradient><linearGradient gradientUnits="userSpaceOnUse" id="SVGID_19_" node-id="98" x1="411.8721" x2="411.8721" y1="628.2567" y2="555.7888"><stop offset="0" stop-color="#bac4e5"></stop><stop offset="1" stop-color="#eef3fc"></stop></linearGradient><linearGradient gradientTransform="matrix(0.9572 0.2893 -0.2893 0.9572 261.1283 -748.8867)" gradientUnits="userSpaceOnUse" id="SVGID_20_" node-id="103" x1="432.7365" x2="580.1588" y1="945.2523" y2="945.2523"><stop offset="0.15" stop-color="#b1c0dd"></stop><stop offset="1" stop-color="#afb0e7"></stop></linearGradient><linearGradient gradientUnits="userSpaceOnUse" id="SVGID_21_" node-id="107" x1="318.8426" x2="318.8426" y1="594.7899" y2="480.354"><stop offset="0" stop-color="#c8cbf2"></stop><stop offset="1" stop-color="#afb0e7"></stop></linearGradient><linearGradient gradientUnits="userSpaceOnUse" id="SVGID_22_" node-id="111" x1="452.5236" x2="367.0856" y1="562.921" y2="513.5934"><stop offset="0" stop-color="#c8cbf2"></stop><stop offset="1" stop-color="#afb0e7"></stop></linearGradient><linearGradient gradientUnits="userSpaceOnUse" id="SVGID_23_" node-id="115" x1="379.6273" x2="434.5904" y1="587.6622" y2="492.4632"><stop offset="0" stop-color="#ebf2fa"></stop><stop offset="0.5247" stop-color="#fdfeff"></stop></linearGradient><linearGradient gradientUnits="userSpaceOnUse" id="SVGID_24_" node-id="119" x1="541.9481" x2="456.5101" y1="562.921" y2="513.5934"><stop offset="0" stop-color="#c8cbf2"></stop><stop offset="1" stop-color="#afb0e7"></stop></linearGradient><linearGradient gradientUnits="userSpaceOnUse" id="SVGID_25_" node-id="123" x1="469.0518" x2="524.0149" y1="587.6622" y2="492.4632"><stop offset="0" stop-color="#ebf2fa"></stop><stop offset="0.5247" stop-color="#fdfeff"></stop></linearGradient><linearGradient gradientUnits="userSpaceOnUse" id="SVGID_26_" node-id="127" x1="316.1971" x2="316.1971" y1="592.8884" y2="483.6613"><stop offset="0" stop-color="#ebf2fa"></stop><stop offset="0.5247" stop-color="#fdfeff"></stop></linearGradient><linearGradient gradientTransform="matrix(-0.631 0.7758 0.7758 0.631 7231.8071 -6026.8926)" gradientUnits="userSpaceOnUse" id="SVGID_27_" node-id="132" x1="9355.582" x2="9355.582" y1="-1067.8076" y2="-1081.7777"><stop offset="0" stop-color="#ffdb80"></stop><stop offset="1" stop-color="#ffbb24"></stop></linearGradient><linearGradient gradientUnits="userSpaceOnUse" id="SVGID_28_" node-id="137" x1="510.0695" x2="510.0695" y1="370.0332" y2="394.638"><stop offset="0" stop-color="#f4ae98"></stop><stop offset="1" stop-color="#fad1bb"></stop></linearGradient><linearGradient gradientUnits="userSpaceOnUse" id="SVGID_29_" node-id="141" x1="522.8209" x2="493.1332" y1="366.2193" y2="366.2193"><stop offset="0" stop-color="#f4b9a4"></stop><stop offset="0.652" stop-color="#fad1bb"></stop></linearGradient><linearGradient gradientUnits="userSpaceOnUse" id="SVGID_30_" node-id="145" x1="489.0476" x2="523.515" y1="354.8755" y2="354.8755"><stop offset="0" stop-color="#4f5c7c"></stop><stop offset="1" stop-color="#274168"></stop></linearGradient><linearGradient gradientUnits="userSpaceOnUse" id="SVGID_31_" node-id="149" x1="487.8346" x2="487.8346" y1="455.4022" y2="547.4741"><stop offset="0" stop-color="#18264b"></stop><stop offset="0.652" stop-color="#2d3c65"></stop></linearGradient><linearGradient gradientUnits="userSpaceOnUse" id="SVGID_32_" node-id="153" x1="523.9837" x2="523.9837" y1="446.1697" y2="596.419"><stop offset="0" stop-color="#18264b"></stop><stop offset="0.652" stop-color="#2d3c65"></stop></linearGradient><linearGradient gradientUnits="userSpaceOnUse" id="SVGID_33_" node-id="157" x1="509.23" x2="509.23" y1="479.6533" y2="382.9967"><stop offset="0" stop-color="#c3d5fd"></stop><stop offset="1" stop-color="#1a90fc"></stop></linearGradient><linearGradient gradientUnits="userSpaceOnUse" id="SVGID_34_" node-id="161" x1="593.0042" x2="593.0042" y1="408.6583" y2="390.6396"><stop offset="0" stop-color="#f4ae98"></stop><stop offset="1" stop-color="#fad1bb"></stop></linearGradient><linearGradient gradientUnits="userSpaceOnUse" id="SVGID_35_" node-id="165" x1="-12969.822" x2="-12969.822" y1="409.18" y2="391.1613"><stop offset="0" stop-color="#f4ae98"></stop><stop offset="1" stop-color="#fad1bb"></stop></linearGradient><linearGradient gradientUnits="userSpaceOnUse" id="SVGID_36_" node-id="169" x1="458.7644" x2="458.7644" y1="436.0175" y2="389.362"><stop offset="0" stop-color="#c3d5fd"></stop><stop offset="1" stop-color="#1a90fc"></stop></linearGradient><linearGradient gradientUnits="userSpaceOnUse" id="SVGID_37_" node-id="173" x1="-13114.687" x2="-13114.687" y1="435.1638" y2="388.5083"><stop offset="0" stop-color="#c3d5fd"></stop><stop offset="1" stop-color="#1a90fc"></stop></linearGradient><linearGradient gradientUnits="userSpaceOnUse" id="SVGID_38_" node-id="177" x1="523.9543" x2="523.9543" y1="615.4296" y2="592.4435"><stop offset="0" stop-color="#ffdb80"></stop><stop offset="1" stop-color="#ffbb24"></stop></linearGradient></defs><g node-id="518"><path d="M 484.97 198.92 C 446.60 229.21 364.23 232.73 303.80 196.70 C 243.37 160.67 131.80 165.32 101.58 231.57 C 71.36 297.82 138.77 362.90 114.36 410.55 C 89.95 458.20 8.60 525.60 64.39 606.95 C 120.18 688.30 190.99 667.57 233.61 659.40 C 317.78 643.27 423.40 775.07 542.23 675.53 C 610.70 618.18 712.67 717.62 752.40 594.17 C 785.18 492.31 666.73 454.67 702.43 386.14 C 740.39 313.26 733.10 226.90 691.97 185.08 C 653.66 146.12 551.21 146.62 484.97 198.92 Z" fill="url(#SVGID_1_)" fill-rule="nonzero" group-id="1" node-id="424" stroke="none" target-height="555.4756" target-width="712.9567" target-x="45.22875" target-y="157.59561"></path><path d="M 117.58 401.02 C 117.58 401.02 117.36 400.45 117.06 401.06 C 114.36 406.55 89.91 466.02 87.97 511.92 C 87.97 511.92 83.89 538.29 118.08 537.94 C 146.62 537.65 145.86 513.34 145.76 505.15 C 145.37 471.93 117.58 401.02 117.58 401.02 Z" fill="url(#SVGID_2_)" fill-rule="nonzero" group-id="1" node-id="426" stroke="none" target-height="137.15842" target-width="57.93393" target-x="87.826065" target-y="400.7816"></path><path d="M 116.80 567.14 C 116.25 567.14 115.80 566.69 115.80 566.14 L 115.80 417.01 C 115.80 416.46 116.25 416.01 116.80 416.01 C 117.35 416.01 117.80 416.46 117.80 417.01 L 117.80 566.14 C 117.80 566.69 117.35 567.14 116.80 567.14 Z" fill="url(#SVGID_3_)" fill-rule="nonzero" group-id="1" node-id="428" stroke="none" target-height="151.13" target-width="2" target-x="115.8" target-y="416.01"></path><path d="M 618.43 358.26 C 618.43 358.26 618.29 357.89 618.10 358.29 C 616.36 361.82 600.62 400.12 599.37 429.67 C 599.37 429.67 596.74 446.65 618.76 446.43 C 637.14 446.25 636.65 430.59 636.58 425.32 C 636.32 403.92 618.43 358.26 618.43 358.26 Z" fill="url(#SVGID_4_)" fill-rule="nonzero" group-id="1" node-id="430" stroke="none" target-height="88.30499" target-width="37.307373" target-x="599.27264" target-y="358.125"></path><path d="M 617.92 465.23 C 617.56 465.23 617.28 464.94 617.28 464.59 L 617.28 368.57 C 617.28 368.21 617.57 367.93 617.92 367.93 C 618.27 367.93 618.56 368.22 618.56 368.57 L 618.56 464.59 C 618.57 464.94 618.28 465.23 617.92 465.23 Z" fill="url(#SVGID_5_)" fill-rule="nonzero" group-id="1" node-id="432" stroke="none" target-height="97.30002" target-width="1.2799683" target-x="617.28" target-y="367.93"></path><path d="M 481.21 113.92 C 481.21 133.11 465.65 148.67 446.46 148.67 C 427.27 148.67 411.71 133.11 411.71 113.92 C 411.71 94.73 427.27 79.17 446.46 79.17 C 465.65 79.17 481.21 94.73 481.21 113.92 Z" fill="url(#SVGID_6_)" fill-rule="nonzero" group-id="1" node-id="434" stroke="none" target-height="69.5" target-width="69.5" target-x="411.71" target-y="79.17"></path><path d="M 466.24 132.87 L 431.67 132.87 C 429.44 122.26 420.02 114.29 408.74 114.29 C 397.46 114.29 388.05 122.26 385.81 132.87 L 376.76 132.87 C 366.03 132.87 357.32 141.57 357.32 152.31 L 357.32 152.31 C 357.32 163.04 366.02 171.75 376.76 171.75 L 466.23 171.75 C 476.96 171.75 485.67 163.05 485.67 152.31 L 485.67 152.31 C 485.68 141.57 476.97 132.87 466.24 132.87 Z" fill="url(#SVGID_7_)" fill-rule="nonzero" group-id="1" node-id="436" stroke="none" target-height="57.46" target-width="128.35" target-x="357.32" target-y="114.29"></path><path d="M 702.44 521.76 C 702.44 529.44 696.21 535.67 688.53 535.67 C 680.85 535.67 674.62 529.44 674.62 521.76 C 674.62 514.08 680.85 507.85 688.53 507.85 C 696.21 507.85 702.44 514.08 702.44 521.76 Z" fill="url(#SVGID_8_)" fill-rule="nonzero" group-id="1" node-id="438" stroke="none" target-height="27.819977" target-width="27.820007" target-x="674.62" target-y="507.85"></path><path d="M 688.57 556.15 C 688.33 556.15 688.14 555.96 688.14 555.72 L 688.14 511.78 C 688.14 511.54 688.33 511.35 688.57 511.35 C 688.81 511.35 689.00 511.54 689.00 511.78 L 689.00 555.72 C 689.00 555.96 688.81 556.15 688.57 556.15 Z" fill="url(#SVGID_9_)" fill-rule="nonzero" group-id="1" node-id="440" stroke="none" target-height="44.80002" target-width="0.85998535" target-x="688.14" target-y="511.35"></path><path d="M 519.99 175.48 C 521.90 169.14 518.32 162.45 511.98 160.54 C 505.64 158.63 498.95 162.21 497.04 168.55 C 495.53 173.54 497.45 178.75 501.42 181.67 L 492.06 212.63 L 499.71 214.94 L 509.07 183.98 C 514.00 183.74 518.48 180.47 519.99 175.48 Z" fill="url(#SVGID_10_)" fill-rule="nonzero" group-id="1" node-id="442" stroke="none" target-height="54.89264" target-width="28.422607" target-x="492.06" target-y="160.04736"></path><path d="M 397.56 234.47 C 397.56 234.47 435.87 179.27 500.37 198.76 C 564.87 218.25 561.00 282.53 560.29 286.12 C 523.26 274.92 397.56 234.47 397.56 234.47 Z" fill="url(#SVGID_11_)" fill-rule="nonzero" group-id="1" node-id="444" stroke="none" target-height="91.51869" target-width="163.01917" target-x="397.56" target-y="194.6013"></path><path d="M 493.30 227.21 L 505.98 231.35 L 518.00 235.86 L 529.37 240.73 L 540.53 246.12 L 550.85 251.72 L 560.39 257.52 L 567.41 262.24 L 573.87 266.98 L 579.80 271.74 L 585.22 276.52 L 590.51 281.67 L 595.17 286.75 L 599.23 291.75 L 602.75 296.69 L 605.97 301.99 L 608.52 307.12 L 610.46 312.12 L 611.84 317.00 L 612.68 322.06 L 612.87 326.95 L 612.43 331.72 L 611.37 336.40 L 609.66 340.89 L 607.38 345.10 L 604.52 349.07 L 601.02 352.81 L 597.17 356.12 L 592.78 359.20 L 587.81 362.06 L 582.20 364.69 L 576.53 366.85 L 570.38 368.77 L 563.69 370.41 L 556.43 371.78 L 549.27 372.75 L 541.70 373.43 L 533.69 373.80 L 525.23 373.84 L 514.08 373.39 L 502.38 372.33 L 490.11 370.64 L 477.94 368.39 L 465.44 365.49 L 452.59 361.92 L 439.91 357.78 L 427.89 353.26 L 416.51 348.39 L 405.36 343.01 L 395.04 337.41 L 385.50 331.61 L 378.48 326.89 L 372.02 322.15 L 366.09 317.39 L 360.66 312.61 L 355.38 307.45 L 350.72 302.38 L 346.66 297.37 L 343.14 292.43 L 339.92 287.14 L 337.37 282.01 L 335.42 277.01 L 334.05 272.13 L 333.21 267.07 L 333.02 262.18 L 333.45 257.41 L 334.51 252.73 L 336.23 248.24 L 338.50 244.03 L 341.37 240.06 L 344.87 236.31 L 348.72 233.01 L 353.11 229.93 L 358.08 227.07 L 363.69 224.44 L 369.35 222.28 L 375.51 220.36 L 382.20 218.71 L 389.45 217.35 L 396.62 216.37 L 404.19 215.69 L 412.20 215.32 L 420.65 215.29 L 431.81 215.74 L 443.50 216.80 L 455.77 218.49 L 467.95 220.74 L 480.45 223.63 L 493.30 227.21 Z" fill="#afb0e7" fill-rule="nonzero" group-id="1" node-id="446" stroke-linecap="butt" stroke-width="0.99996316" target-height="158.55707" target-width="279.85455" target-x="333.0166" target-y="215.28546"></path><path d="M 610.02 340.85 C 599.36 376.12 528.74 385.98 452.29 362.87 C 375.84 339.76 322.49 292.45 333.15 257.18 C 343.81 221.91 414.43 212.05 490.88 235.16 C 567.33 258.27 620.68 305.59 610.02 340.85 Z" fill="url(#SVGID_12_)" fill-rule="nonzero" group-id="1" node-id="448" stroke="none" target-height="152.59087" target-width="279.5785" target-x="331.79578" target-y="222.71959"></path><path d="M 389.78 290.56 L 544.36 338.31 L 604.23 649.16 C 604.23 649.16 334.24 608.11 184.51 522.32 C 313.04 378.69 389.78 290.56 389.78 290.56 Z" fill="url(#SVGID_13_)" fill-rule="nonzero" group-id="1" node-id="450" stroke="none" target-height="358.59998" target-width="419.71997" target-x="184.51" target-y="290.56"></path><path d="M 477.23 280.39 L 485.74 283.21 L 493.71 286.30 L 501.16 289.64 L 508.42 293.39 L 514.98 297.25 L 520.87 301.22 L 526.50 305.58 L 531.27 309.89 L 535.27 314.14 L 538.03 317.63 L 540.25 321.00 L 541.98 324.26 L 543.26 327.43 L 544.15 330.78 L 544.51 333.98 L 544.37 337.07 L 543.74 340.09 L 542.59 342.95 L 541.00 345.60 L 538.92 348.06 L 536.33 350.36 L 533.50 352.29 L 530.26 354.05 L 526.55 355.62 L 522.32 356.99 L 516.63 358.32 L 510.27 359.27 L 503.17 359.78 L 496.07 359.82 L 488.47 359.41 L 480.35 358.50 L 472.29 357.16 L 463.95 355.32 L 455.30 352.95 L 446.79 350.13 L 438.82 347.05 L 431.37 343.70 L 424.11 339.95 L 417.55 336.09 L 411.66 332.12 L 406.03 327.76 L 401.26 323.46 L 397.26 319.20 L 394.50 315.71 L 392.28 312.34 L 390.55 309.08 L 389.27 305.92 L 388.38 302.56 L 388.02 299.36 L 388.16 296.27 L 388.79 293.26 L 389.94 290.39 L 391.53 287.74 L 393.61 285.28 L 396.20 282.98 L 399.03 281.05 L 402.27 279.30 L 405.98 277.72 L 410.21 276.35 L 415.90 275.02 L 422.26 274.08 L 429.36 273.56 L 436.46 273.52 L 444.06 273.94 L 452.18 274.84 L 460.24 276.18 L 468.58 278.02 L 477.23 280.39 Z" fill="#f2f7fc" fill-rule="nonzero" group-id="1" node-id="452" stroke-linecap="butt" stroke-width="0.99996316" target-height="86.29822" target-width="156.48642" target-x="388.02182" target-y="273.52252"></path><path d="M 383.25 274.73 C 385.36 267.75 380.27 260.04 371.89 257.51 C 363.51 254.98 355.00 258.58 352.89 265.55 C 350.78 272.53 355.87 280.24 364.25 282.77 C 372.63 285.31 381.14 281.70 383.25 274.73 Z" fill="url(#SVGID_14_)" fill-rule="nonzero" group-id="1" node-id="454" stroke="none" target-height="26.888733" target-width="31.23526" target-x="352.45236" target-y="256.69766"></path><path d="M 371.88 257.54 L 374.57 258.55 L 376.92 259.77 L 378.97 261.21 L 380.80 262.91 L 382.20 264.67 L 383.21 266.50 L 383.84 268.47 L 383.99 270.38 L 383.68 272.29 L 382.88 274.06 L 381.70 275.57 L 380.08 276.85 L 378.23 277.82 L 376.09 278.51 L 373.62 278.92 L 371.12 278.98 L 368.48 278.69 L 365.68 278.04 L 362.98 277.03 L 360.63 275.81 L 358.58 274.37 L 356.75 272.67 L 355.35 270.91 L 354.34 269.07 L 353.71 267.11 L 353.56 265.20 L 353.87 263.29 L 354.67 261.52 L 355.86 260.01 L 357.47 258.73 L 359.33 257.76 L 361.46 257.07 L 363.93 256.66 L 366.43 256.60 L 369.07 256.89 L 371.88 257.54 Z" fill="#f2f7fc" fill-rule="nonzero" group-id="1" node-id="456" stroke-linecap="butt" stroke-width="0.99996316" target-height="22.374268" target-width="30.428802" target-x="353.56223" target-y="256.60263"></path><path d="M 423.04 254.37 C 425.15 247.39 420.06 239.68 411.68 237.15 C 403.30 234.62 394.79 238.22 392.68 245.19 C 390.57 252.17 395.66 259.88 404.04 262.41 C 412.43 264.95 420.93 261.35 423.04 254.37 Z" fill="url(#SVGID_15_)" fill-rule="nonzero" group-id="1" node-id="458" stroke="none" target-height="26.889877" target-width="31.235321" target-x="392.2423" target-y="236.33766"></path><path d="M 411.68 237.18 L 414.37 238.19 L 416.73 239.42 L 418.77 240.85 L 420.60 242.56 L 422.00 244.32 L 423.01 246.15 L 423.64 248.11 L 423.79 250.03 L 423.48 251.94 L 422.68 253.70 L 421.50 255.21 L 419.88 256.50 L 418.03 257.46 L 415.89 258.16 L 413.42 258.56 L 410.92 258.62 L 408.28 258.34 L 405.48 257.68 L 402.78 256.68 L 400.43 255.45 L 398.38 254.01 L 396.55 252.31 L 395.15 250.55 L 394.14 248.72 L 393.51 246.75 L 393.36 244.84 L 393.67 242.93 L 394.47 241.17 L 395.66 239.66 L 397.27 238.37 L 399.13 237.40 L 401.27 236.71 L 403.73 236.31 L 406.23 236.25 L 408.87 236.53 L 411.68 237.18 Z" fill="#f2f7fc" fill-rule="nonzero" group-id="1" node-id="460" stroke-linecap="butt" stroke-width="0.99996316" target-height="22.374207" target-width="30.428772" target-x="393.36307" target-y="236.24585"></path><path d="M 496.97 262.11 C 499.08 255.13 493.99 247.42 485.61 244.89 C 477.23 242.36 468.72 245.96 466.61 252.93 C 464.50 259.90 469.59 267.62 477.97 270.15 C 486.36 272.69 494.86 269.08 496.97 262.11 Z" fill="url(#SVGID_16_)" fill-rule="nonzero" group-id="1" node-id="462" stroke="none" target-height="26.888702" target-width="31.23523" target-x="466.17242" target-y="244.07767"></path><path d="M 485.61 244.92 L 488.30 245.93 L 490.65 247.15 L 492.70 248.59 L 494.53 250.29 L 495.93 252.05 L 496.94 253.88 L 497.57 255.85 L 497.72 257.76 L 497.41 259.67 L 496.61 261.44 L 495.43 262.94 L 493.81 264.23 L 491.96 265.20 L 489.82 265.89 L 487.35 266.29 L 484.85 266.36 L 482.21 266.07 L 479.41 265.42 L 476.71 264.41 L 474.36 263.18 L 472.31 261.75 L 470.48 260.05 L 469.08 258.29 L 468.07 256.45 L 467.44 254.49 L 467.29 252.57 L 467.60 250.66 L 468.40 248.90 L 469.59 247.39 L 471.20 246.11 L 473.06 245.14 L 475.19 244.45 L 477.66 244.04 L 480.16 243.98 L 482.80 244.26 L 485.61 244.92 Z" fill="#f2f7fc" fill-rule="nonzero" group-id="1" node-id="464" stroke-linecap="butt" stroke-width="0.99996316" target-height="22.374268" target-width="30.428772" target-x="467.29227" target-y="243.9815"></path><path d="M 564.74 293.95 C 566.85 286.97 561.76 279.26 553.38 276.73 C 545.00 274.20 536.49 277.80 534.38 284.77 C 532.27 291.74 537.36 299.46 545.74 301.99 C 554.13 304.53 562.63 300.93 564.74 293.95 Z" fill="url(#SVGID_17_)" fill-rule="nonzero" group-id="1" node-id="466" stroke="none" target-height="26.889862" target-width="31.23523" target-x="533.9424" target-y="275.91766"></path><path d="M 553.38 276.77 L 556.07 277.78 L 558.43 279.01 L 560.48 280.44 L 562.31 282.14 L 563.70 283.90 L 564.71 285.74 L 565.34 287.70 L 565.49 289.62 L 565.18 291.53 L 564.38 293.29 L 563.20 294.80 L 561.59 296.08 L 559.73 297.05 L 557.59 297.74 L 555.13 298.15 L 552.62 298.21 L 549.99 297.93 L 547.18 297.27 L 544.49 296.26 L 542.13 295.04 L 540.08 293.60 L 538.25 291.90 L 536.86 290.14 L 535.85 288.31 L 535.22 286.34 L 535.07 284.43 L 535.38 282.52 L 536.18 280.75 L 537.36 279.25 L 538.98 277.96 L 540.83 276.99 L 542.97 276.30 L 545.43 275.90 L 547.94 275.83 L 550.58 276.12 L 553.38 276.77 Z" fill="#f2f7fc" fill-rule="nonzero" group-id="1" node-id="468" stroke-linecap="butt" stroke-width="0.99996316" target-height="22.374176" target-width="30.42871" target-x="535.06604" target-y="275.83426"></path><path d="M 593.73 335.53 C 595.84 328.55 590.75 320.84 582.37 318.31 C 573.99 315.78 565.48 319.38 563.37 326.35 C 561.26 333.33 566.35 341.04 574.73 343.57 C 583.11 346.11 591.62 342.51 593.73 335.53 Z" fill="url(#SVGID_18_)" fill-rule="nonzero" group-id="1" node-id="470" stroke="none" target-height="26.889893" target-width="31.23523" target-x="562.9324" target-y="317.49765"></path><path d="M 559.26 592.02 C 559.26 612.03 493.27 628.25 411.87 628.25 C 330.47 628.25 264.48 612.03 264.48 592.02 C 264.48 572.01 330.47 555.79 411.87 555.79 C 493.27 555.79 559.26 572.01 559.26 592.02 Z" fill="url(#SVGID_19_)" fill-rule="nonzero" group-id="1" node-id="472" stroke="none" target-height="72.46002" target-width="294.78" target-x="264.48" target-y="555.79"></path><path d="M 582.36 318.35 L 585.05 319.36 L 587.41 320.59 L 589.46 322.02 L 591.29 323.72 L 592.68 325.48 L 593.69 327.32 L 594.32 329.28 L 594.47 331.20 L 594.16 333.11 L 593.36 334.87 L 592.18 336.38 L 590.56 337.67 L 588.71 338.63 L 586.57 339.32 L 584.10 339.73 L 581.60 339.79 L 578.96 339.51 L 576.16 338.85 L 573.46 337.84 L 571.11 336.62 L 569.06 335.18 L 567.23 333.48 L 565.84 331.72 L 564.83 329.89 L 564.19 327.92 L 564.04 326.01 L 564.35 324.10 L 565.15 322.33 L 566.34 320.83 L 567.95 319.54 L 569.81 318.57 L 571.95 317.88 L 574.41 317.48 L 576.91 317.41 L 579.55 317.70 L 582.36 318.35 Z" fill="#f2f7fc" fill-rule="nonzero" group-id="1" node-id="474" stroke-linecap="butt" stroke-width="0.99996316" target-height="22.374268" target-width="30.428772" target-x="564.04346" target-y="317.41486"></path><path d="M 542.53 325.48 C 535.47 308.50 510.22 290.33 477.22 280.36 C 447.30 271.32 418.95 271.42 402.52 279.14 C 407.05 290.30 421.10 310.45 464.54 323.58 C 502.89 335.17 528.45 330.71 542.53 325.48 Z" fill="url(#SVGID_20_)" fill-rule="nonzero" group-id="1" node-id="476" stroke="none" target-height="57.37549" target-width="140.01004" target-x="402.52" target-y="273.462"></path><path d="M 325.33 512.81 C 321.10 512.41 318.71 512.25 313.80 512.93 L 314.37 502.60 L 348.52 504.18 L 353.18 501.72 L 353.18 480.36 L 295.04 480.36 L 290.16 483.67 L 288.23 534.36 L 300.08 541.72 C 306.77 537.68 309.81 536.35 316.04 536.52 C 323.72 536.74 330.07 540.85 330.07 551.67 C 330.07 562.78 323.23 568.41 312.29 568.41 C 303.82 568.41 298.86 565.11 293.53 559.23 L 291.36 559.78 L 279.26 579.93 C 288.23 588.30 300.69 594.80 318.77 594.80 C 340.50 594.80 358.41 579.55 358.41 552.38 C 358.42 529.13 345.81 514.73 325.33 512.81 Z" fill="url(#SVGID_21_)" fill-rule="nonzero" group-id="1" node-id="478" stroke="none" target-height="114.44" target-width="79.149994" target-x="279.26" target-y="480.36"></path><path d="M 417.43 481.06 L 402.18 481.06 C 386.90 481.06 374.51 492.95 374.51 507.61 L 374.51 568.92 C 374.51 583.58 386.90 595.47 402.18 595.47 L 417.43 595.47 C 432.71 595.47 445.10 583.58 445.10 568.92 L 445.10 507.60 C 445.10 492.94 432.71 481.06 417.43 481.06 Z M 415.76 569.31 C 415.76 572.46 413.10 575.02 409.81 575.02 L 409.81 575.02 C 406.52 575.02 403.86 572.46 403.86 569.31 L 403.86 505.60 C 403.86 502.45 406.52 499.89 409.81 499.89 L 409.81 499.89 C 413.10 499.89 415.76 502.45 415.76 505.60 L 415.76 569.31 Z" fill="url(#SVGID_22_)" fill-rule="nonzero" group-id="1" node-id="480" stroke="none" target-height="114.40997" target-width="70.59" target-x="374.51" target-y="481.06"></path><path d="M 414.19 484.67 L 400.03 484.67 C 385.83 484.67 374.32 496.18 374.32 510.38 L 374.32 569.75 C 374.32 583.95 385.83 595.46 400.03 595.46 L 414.19 595.46 C 428.39 595.46 439.90 583.95 439.90 569.75 L 439.90 510.38 C 439.90 496.18 428.39 484.67 414.19 484.67 Z M 412.64 570.14 C 412.64 573.19 410.16 575.67 407.11 575.67 L 407.11 575.67 C 404.06 575.67 401.58 573.19 401.58 570.14 L 401.58 508.44 C 401.58 505.39 404.06 502.91 407.11 502.91 L 407.11 502.91 C 410.16 502.91 412.64 505.39 412.64 508.44 L 412.64 570.14 Z" fill="url(#SVGID_23_)" fill-rule="nonzero" group-id="1" node-id="482" stroke="none" target-height="110.79001" target-width="65.57999" target-x="374.32" target-y="484.67"></path><path d="M 506.85 481.06 L 491.60 481.06 C 476.32 481.06 463.93 492.95 463.93 507.61 L 463.93 568.92 C 463.93 583.58 476.32 595.47 491.60 595.47 L 506.85 595.47 C 522.13 595.47 534.52 583.58 534.52 568.92 L 534.52 507.60 C 534.52 492.94 522.13 481.06 506.85 481.06 Z M 505.18 569.31 C 505.18 572.46 502.52 575.02 499.23 575.02 L 499.23 575.02 C 495.94 575.02 493.28 572.46 493.28 569.31 L 493.28 505.60 C 493.28 502.45 495.94 499.89 499.23 499.89 L 499.23 499.89 C 502.52 499.89 505.18 502.45 505.18 505.60 L 505.18 569.31 Z" fill="url(#SVGID_24_)" fill-rule="nonzero" group-id="1" node-id="484" stroke="none" target-height="114.40997" target-width="70.59003" target-x="463.93" target-y="481.06"></path><path d="M 503.62 484.67 L 489.46 484.67 C 475.26 484.67 463.75 496.18 463.75 510.38 L 463.75 569.75 C 463.75 583.95 475.26 595.46 489.46 595.46 L 503.62 595.46 C 517.82 595.46 529.33 583.95 529.33 569.75 L 529.33 510.38 C 529.32 496.18 517.81 484.67 503.62 484.67 Z M 502.06 570.14 C 502.06 573.19 499.58 575.67 496.53 575.67 L 496.53 575.67 C 493.48 575.67 491.00 573.19 491.00 570.14 L 491.00 508.44 C 491.00 505.39 493.48 502.91 496.53 502.91 L 496.53 502.91 C 499.58 502.91 502.06 505.39 502.06 508.44 L 502.06 570.14 Z" fill="url(#SVGID_25_)" fill-rule="nonzero" group-id="1" node-id="486" stroke="none" target-height="110.79001" target-width="65.58002" target-x="463.75" target-y="484.67"></path><path d="M 279.27 578.61 L 291.51 557.55 C 296.75 563.84 301.38 567.39 309.61 567.39 C 319.66 567.39 325.95 561.98 325.95 551.31 C 325.95 540.91 320.12 536.96 313.06 536.75 C 307.34 536.58 304.54 537.86 298.40 541.74 L 287.51 534.67 L 290.16 483.66 L 348.52 483.66 L 348.52 504.18 L 311.52 504.18 L 311.00 514.10 C 315.51 513.45 317.70 513.61 321.60 513.99 C 340.41 515.83 353.13 531.72 353.13 554.04 C 353.13 577.19 335.54 592.89 315.57 592.89 C 298.95 592.89 287.51 586.65 279.27 578.61 Z" fill="url(#SVGID_26_)" fill-rule="nonzero" group-id="1" node-id="488" stroke="none" target-height="109.23001" target-width="73.860016" target-x="279.27" target-y="483.66"></path><path d="M 499.60 535.29 C 499.60 535.29 500.91 542.03 491.36 546.29 C 490.27 552.08 487.83 558.59 485.60 562.62 C 483.37 566.65 486.97 570.16 488.47 570.51 C 492.11 565.65 504.71 553.41 509.63 541.90 C 502.64 537.06 499.60 535.29 499.60 535.29 Z" fill="url(#SVGID_27_)" fill-rule="nonzero" group-id="1" node-id="490" stroke="none" target-height="35.22003" target-width="24.751648" target-x="484.87836" target-y="535.29"></path><path d="M 512.39 543.21 L 509.30 541.25 C 509.30 541.25 502.39 553.40 485.60 569.50 C 486.85 570.89 487.39 571.66 487.39 571.66 C 487.39 571.66 500.83 560.02 512.39 543.21 Z" fill="#d4e4fe" fill-rule="nonzero" group-id="1" node-id="492" stroke="none" target-height="30.409973" target-width="26.790009" target-x="485.6" target-y="541.25"></path><path d="M 503.31 372.97 L 499.64 390.44 C 499.47 391.26 499.87 392.10 500.60 392.41 C 502.50 393.23 506.30 394.63 510.20 394.63 C 514.25 394.63 518.08 392.27 519.83 391.00 C 520.44 390.56 520.69 389.76 520.46 389.02 L 514.84 371.20 C 514.58 370.39 513.81 369.90 513.02 370.05 L 504.60 371.64 C 503.96 371.77 503.45 372.29 503.31 372.97 Z" fill="url(#SVGID_28_)" fill-rule="nonzero" group-id="1" node-id="494" stroke="none" target-height="24.580017" target-width="20.9281" target-x="499.6162" target-y="370.05"></path><path d="M 522.18 367.68 C 522.72 366.92 523.06 364.98 522.62 364.41 C 521.83 363.77 521.07 364.14 520.50 364.69 C 520.63 360.05 520.21 356.18 520.11 355.21 C 519.82 352.36 516.89 347.15 507.31 347.15 C 497.74 347.15 495.88 353.98 495.88 353.98 C 495.88 353.98 495.25 358.81 495.44 364.68 C 494.87 364.14 494.12 363.79 493.34 364.42 C 492.90 364.99 493.24 366.93 493.78 367.69 C 494.32 368.45 494.66 370.25 494.76 371.25 C 494.85 372.20 494.16 374.72 496.68 374.40 C 498.18 380.35 504.27 385.31 508.05 385.31 C 512.19 385.31 517.68 380.31 519.24 374.39 C 521.81 374.74 521.11 372.20 521.21 371.25 C 521.30 370.24 521.64 368.44 522.18 367.68 Z" fill="url(#SVGID_29_)" fill-rule="nonzero" group-id="1" node-id="496" stroke="none" target-height="38.160004" target-width="29.652466" target-x="493.15375" target-y="347.15"></path><path d="M 514.21 345.12 C 514.21 345.12 512.34 339.30 505.18 340.69 C 498.02 342.08 497.53 345.43 494.72 345.56 C 489.92 345.78 486.08 351.69 492.24 357.95 C 494.98 360.74 492.66 361.93 493.97 364.40 C 495.28 366.87 495.26 369.27 495.26 369.27 C 495.26 369.27 497.55 362.05 496.04 358.96 C 495.26 357.37 498.71 356.94 503.01 357.32 C 507.31 357.70 514.08 356.29 514.62 353.40 C 515.89 359.33 517.16 359.94 518.77 360.85 C 520.38 361.76 520.48 368.91 520.48 368.91 C 520.48 368.91 520.77 363.65 521.89 362.46 C 522.82 360.52 524.63 352.88 522.58 351.03 C 520.52 349.18 522.25 343.24 514.21 345.12 Z" fill="url(#SVGID_30_)" fill-rule="nonzero" group-id="1" node-id="498" stroke="none" target-height="28.7854" target-width="34.43045" target-x="489.07852" target-y="340.4846"></path><path d="M 486.61 459.83 C 486.14 460.34 486.61 458.69 476.03 467.42 C 465.45 476.15 450.33 486.01 450.45 495.12 C 450.57 504.23 492.66 547.48 492.66 547.48 L 502.20 538.25 C 502.20 538.25 484.64 508.66 481.15 504.36 C 477.66 500.06 478.94 497.40 483.13 495.00 C 487.32 492.60 501.15 488.68 513.48 479.44 C 525.81 470.21 525.23 455.41 525.23 455.41 L 486.61 459.83 Z" fill="url(#SVGID_31_)" fill-rule="nonzero" group-id="1" node-id="500" stroke="none" target-height="92.06998" target-width="74.77997" target-x="450.45" target-y="455.41"></path><path d="M 504.99 456.40 C 505.11 456.79 504.03 477.92 508.60 488.81 C 513.18 499.70 512.82 511.51 512.82 515.58 C 512.82 519.65 512.94 523.32 514.39 530.93 C 515.84 538.54 520.41 596.15 520.41 596.15 L 531.86 596.41 C 531.86 596.41 537.40 542.81 537.40 534.47 C 537.40 525.94 538.60 521.02 539.33 512.29 C 540.03 503.83 541.74 497.59 542.94 478.30 C 544.14 459.01 529.69 446.15 529.69 446.15 L 504.99 456.40 Z" fill="url(#SVGID_32_)" fill-rule="nonzero" group-id="1" node-id="502" stroke="none" target-height="150.25998" target-width="37.99533" target-x="504.9728" target-y="446.15"></path><path d="M 547.24 414.39 C 547.24 414.39 546.15 385.40 528.42 383.66 C 521.36 383.19 517.69 383.00 517.69 383.00 C 517.69 383.00 516.38 393.35 509.31 392.74 C 502.24 392.13 501.86 383.65 501.86 383.65 C 501.86 383.65 484.24 383.73 478.61 392.39 C 472.98 401.05 471.21 420.53 471.21 420.53 L 484.04 414.43 L 485.21 455.84 C 484.75 457.24 484.02 459.89 483.12 460.84 C 479.41 464.76 474.59 467.51 474.59 467.51 C 474.59 467.51 509.10 472.00 515.12 472.00 C 521.14 472.00 536.78 471.11 543.76 479.65 L 544.11 466.37 C 543.67 445.98 539.33 433.72 538.53 430.33 L 535.39 413.64 L 547.24 414.39 Z" fill="url(#SVGID_33_)" fill-rule="nonzero" group-id="1" node-id="504" stroke="none" target-height="96.649994" target-width="76.03" target-x="471.21" target-y="383"></path><path d="M 583.30 401.05 C 583.30 401.05 585.54 398.71 585.95 397.35 C 586.37 395.99 587.84 395.48 589.44 394.92 C 591.04 394.35 593.85 394.54 596.44 393.62 C 599.03 392.70 603.64 390.30 604.53 390.68 C 605.42 391.06 605.01 393.18 603.70 394.57 C 602.39 395.96 597.37 399.50 595.16 400.20 C 592.95 400.90 590.46 403.77 587.71 407.50 C 584.96 411.23 580.99 404.75 580.99 404.75 L 583.30 401.05 Z" fill="url(#SVGID_34_)" fill-rule="nonzero" group-id="1" node-id="506" stroke="none" target-height="17.966034" target-width="23.953674" target-x="580.99" target-y="390.6779"></path><path d="M 435.91 401.57 C 435.91 401.57 433.67 399.23 433.26 397.87 C 432.84 396.51 431.37 396.00 429.77 395.44 C 428.17 394.87 425.36 395.06 422.77 394.14 C 420.18 393.22 415.57 390.82 414.68 391.20 C 413.78 391.58 414.20 393.70 415.51 395.09 C 416.82 396.48 421.84 400.02 424.05 400.72 C 426.26 401.42 428.75 404.29 431.50 408.02 C 434.25 411.75 438.22 405.27 438.22 405.27 L 435.91 401.57 Z" fill="url(#SVGID_35_)" fill-rule="nonzero" group-id="1" node-id="508" stroke="none" target-height="17.965973" target-width="23.957916" target-x="414.2621" target-y="391.1979"></path><path d="M 480.54 390.02 C 480.54 390.02 468.82 399.88 456.96 420.25 C 448.47 410.76 434.40 398.12 434.40 398.12 L 429.40 405.96 C 429.40 405.96 447.31 437.96 457.89 435.93 C 468.47 433.90 483.98 417.83 485.97 414.68 C 489.05 409.81 488.35 402.92 486.84 396.85 C 485.33 390.78 483.65 387.99 480.54 390.02 Z" fill="url(#SVGID_36_)" fill-rule="nonzero" group-id="1" node-id="510" stroke="none" target-height="46.582184" target-width="58.725983" target-x="429.4" target-y="389.38205"></path><path d="M 539.08 389.16 C 539.08 389.16 550.80 399.02 562.66 419.39 C 571.15 409.90 585.22 397.26 585.22 397.26 L 590.22 405.10 C 590.22 405.10 572.31 437.10 561.73 435.07 C 551.15 433.05 535.80 415.09 533.82 411.93 C 531.84 408.77 531.26 402.07 532.77 395.99 C 534.28 389.91 535.97 387.14 539.08 389.16 Z" fill="url(#SVGID_37_)" fill-rule="nonzero" group-id="1" node-id="512" stroke="none" target-height="46.579407" target-width="58.28888" target-x="531.9311" target-y="388.52484"></path><path d="M 519.52 595.98 C 519.52 595.98 520.69 591.93 524.83 592.50 C 528.97 593.07 530.27 596.61 531.26 596.36 C 532.25 596.11 532.62 593.70 533.11 594.97 C 533.60 596.24 534.02 598.77 534.02 598.77 C 534.02 598.77 533.56 604.20 533.23 607.47 C 532.91 610.74 533.23 613.16 526.93 614.30 C 520.63 615.44 518.77 616.05 515.62 614.49 C 512.47 612.92 514.42 607.85 515.06 606.57 C 515.72 605.29 519.52 595.98 519.52 595.98 Z" fill="url(#SVGID_38_)" fill-rule="nonzero" group-id="1" node-id="514" stroke="none" target-height="22.911194" target-width="20.10138" target-x="513.91864" target-y="592.5"></path><path d="M 533.95 597.91 C 533.95 597.91 532.87 608.19 531.69 610.02 C 530.52 611.85 522.92 615.77 517.85 614.38 C 515.13 613.75 513.99 612.09 513.73 611.09 C 513.73 612.94 513.73 614.32 513.73 614.32 C 513.73 614.32 516.37 617.39 522.02 617.01 C 527.67 616.63 532.83 613.63 533.67 610.94 C 534.50 608.25 534.50 600.79 534.50 600.79 L 533.95 597.91 Z" fill="#d4e4fe" fill-rule="nonzero" group-id="1" node-id="516" stroke="none" target-height="19.100037" target-width="20.77002" target-x="513.73" target-y="597.91"></path></g></svg>